<svg width="108" height="108" viewBox="0 0 108 108" fill="none" xmlns="http://www.w3.org/2000/svg">
<rect width="108" height="108" rx="15" fill="#E11D2E"/>
<path fill-rule="evenodd" clip-rule="evenodd" d="M75 57.9128C75 70.0142 64.254 79.8257 51 79.8257C37.746 79.8257 27 70.0142 27 57.9128C27 45.8115 37.746 36 51 36C64.254 36 75 45.8115 75 57.9128ZM66.376 56.1927C66.764 56.6985 66.984 57.2956 67.008 57.9128C67.0185 58.5167 66.8414 59.1108 66.4974 59.6266C66.1534 60.1424 65.6564 60.5587 65.064 60.8272C65.092 61.1486 65.092 61.47 65.064 61.7914C65.064 66.6999 58.8 70.688 51.072 70.688C43.344 70.688 37.08 66.6999 37.08 61.7914C37.053 61.4705 37.053 61.1482 37.08 60.8272C36.6223 60.6316 36.2165 60.3479 35.8904 59.9955C35.5643 59.643 35.3256 59.2303 35.1907 58.7857C35.0559 58.341 35.0282 57.875 35.1093 57.4196C35.1905 56.9642 35.3787 56.5303 35.6611 56.1477C35.9434 55.765 36.3131 55.4427 36.7448 55.2029C37.1765 54.9631 37.66 54.8115 38.162 54.7586C38.6639 54.7056 39.1725 54.7525 39.6528 54.896C40.133 55.0395 40.5735 55.2763 40.944 55.5901C43.7095 53.8776 46.9629 52.9408 50.304 52.8948L52.08 45.291C52.0999 45.203 52.1388 45.1195 52.1944 45.0453C52.25 44.9711 52.3211 44.9077 52.4037 44.8588C52.4863 44.8098 52.5787 44.7764 52.6756 44.7603C52.7724 44.7442 52.8718 44.7459 52.968 44.7651L58.848 45.8389C59.1352 45.3884 59.5887 45.0462 60.1274 44.8736C60.666 44.7009 61.2543 44.7093 61.7868 44.897C62.3193 45.0848 62.7611 45.4397 63.0329 45.898C63.3046 46.3564 63.3885 46.8882 63.2695 47.3979C63.1505 47.9076 62.8365 48.362 62.3837 48.6794C61.9309 48.9967 61.369 49.1563 60.7989 49.1296C60.2288 49.1028 59.6879 48.8914 59.2731 48.5332C58.8584 48.1751 58.5971 47.6937 58.536 47.1755L53.4 46.1895L51.84 53.0263C55.1405 53.0909 58.3498 54.0271 61.08 55.7216C61.4445 55.4016 61.8805 55.1575 62.3581 55.006C62.8357 54.8546 63.3436 54.7993 63.8468 54.8441C64.35 54.8889 64.8366 55.0326 65.2732 55.2654C65.7098 55.4982 66.086 55.8145 66.376 56.1927ZM43.412 58.8861C43.2368 59.1255 43.115 59.3939 43.0534 59.6763C42.9919 59.9586 42.9919 60.2492 43.0533 60.5315C43.1775 61.1017 43.5446 61.6035 44.074 61.9265C44.6034 62.2496 45.2516 62.3674 45.8761 62.254C46.1853 62.1979 46.4794 62.0867 46.7416 61.9268C47.0037 61.7669 47.2288 61.5614 47.404 61.3221C47.7578 60.8388 47.8868 60.2469 47.7627 59.6767C47.6385 59.1065 47.2714 58.6047 46.742 58.2817C46.2126 57.9587 45.5644 57.8409 44.9399 57.9542C44.3154 58.0676 43.7658 58.4028 43.412 58.8861ZM51.024 67.8174C53.154 67.8978 55.25 67.3901 56.952 66.2178C57.0793 66.1045 57.1521 65.9496 57.1543 65.7873C57.1566 65.625 57.0881 65.4685 56.964 65.3523C56.9025 65.2947 56.8293 65.2488 56.7484 65.2171C56.6675 65.1854 56.5805 65.1685 56.4925 65.1675C56.3147 65.1655 56.1433 65.228 56.016 65.3413C54.5595 66.2953 52.7899 66.7669 51 66.678C49.2123 66.7509 47.451 66.2638 46.008 65.2975C45.8836 65.2043 45.7258 65.1567 45.5651 65.1639C45.4044 65.1711 45.2524 65.2326 45.1387 65.3365C45.0249 65.4403 44.9576 65.5791 44.9497 65.7258C44.9418 65.8725 44.9939 66.0166 45.096 66.1302C46.7987 67.3017 48.8937 67.898 51.024 67.8174ZM55.186 62.0142C55.582 62.2552 56.022 62.4707 56.496 62.4707C56.8215 62.4742 57.1444 62.4171 57.445 62.303C57.7455 62.1888 58.0175 62.02 58.2443 61.8068C58.4711 61.5935 58.6479 61.3404 58.7641 61.0627C58.8803 60.7851 58.9333 60.4888 58.92 60.1918C58.9198 59.8133 58.8123 59.4413 58.6079 59.112C58.4034 58.7827 58.1091 58.5074 57.7534 58.3128C57.3978 58.1183 56.9931 58.0112 56.5786 58.002C56.1642 57.9927 55.7542 58.0816 55.3886 58.2601C55.023 58.4385 54.7142 58.7004 54.4924 59.0202C54.2706 59.3399 54.1433 59.7067 54.1229 60.0848C54.1025 60.4628 54.1897 60.8392 54.376 61.1774C54.5623 61.5155 54.8414 61.8038 55.186 62.0142Z" fill="white"/>
</svg>
