<svg width="108" height="108" viewBox="0 0 108 108" fill="none" xmlns="http://www.w3.org/2000/svg">
<rect width="108" height="108" rx="15" fill="#E11D2E"/>
<path fill-rule="evenodd" clip-rule="evenodd" d="M31 58.0352C31 68.9295 39.666 77.9887 51 79.8257V63.9991H45V57.9128H51V53.0427C51 47.5645 54.866 44.5223 60.334 44.5223C62.066 44.5223 63.934 44.7651 65.666 45.008V50.6086H62.6C59.666 50.6086 59 51.9471 59 53.6526V57.9128H65.4L64.334 63.9991H59V79.8257C70.334 77.9887 79 68.9314 79 58.0352C79 45.9156 68.2 36 55 36C41.8 36 31 45.9156 31 58.0352Z" fill="white"/>
</svg>
