<svg width="108" height="109" viewBox="0 0 108 109" fill="none" xmlns="http://www.w3.org/2000/svg">
<rect y="0.998047" width="108" height="108" rx="15" fill="#E11D2E"/>
<path d="M53.994 51.6035C49.587 51.6035 45.9906 54.8872 45.9906 58.9109C45.9906 62.9346 49.587 66.2183 53.994 66.2183C58.401 66.2183 61.9974 62.9346 61.9974 58.9109C61.9974 54.8872 58.401 51.6035 53.994 51.6035ZM77.9982 58.9109C77.9982 55.8849 78.0282 52.8863 77.8421 49.8657C77.6559 46.3573 76.7794 43.2436 73.9695 40.678C71.1536 38.107 67.7493 37.3121 63.9067 37.1422C60.5924 36.9723 57.3082 36.9997 54 36.9997C50.6857 36.9997 47.4015 36.9723 44.0933 37.1422C40.2507 37.3121 36.8404 38.1125 34.0305 40.678C31.2146 43.2491 30.344 46.3573 30.1579 49.8657C29.9718 52.8917 30.0018 55.8904 30.0018 58.9109C30.0018 61.9314 29.9718 64.9355 30.1579 67.956C30.344 71.4645 31.2206 74.5782 34.0305 77.1437C36.8464 79.7148 40.2507 80.5096 44.0933 80.6796C47.4075 80.8495 50.6917 80.8221 54 80.8221C57.3142 80.8221 60.5984 80.8495 63.9067 80.6796C67.7493 80.5096 71.1596 79.7093 73.9695 77.1437C76.7854 74.5727 77.6559 71.4645 77.8421 67.956C78.0342 64.9355 77.9982 61.9369 77.9982 58.9109ZM53.994 70.1543C47.1794 70.1543 41.6797 65.1329 41.6797 58.9109C41.6797 52.6889 47.1794 47.6675 53.994 47.6675C60.8086 47.6675 66.3083 52.6889 66.3083 58.9109C66.3083 65.1329 60.8086 70.1543 53.994 70.1543ZM66.8126 49.8328C65.2216 49.8328 63.9367 48.6597 63.9367 47.207C63.9367 45.7543 65.2216 44.5812 66.8126 44.5812C68.4037 44.5812 69.6886 45.7543 69.6886 47.207C69.689 47.552 69.615 47.8936 69.4706 48.2124C69.3263 48.5312 69.1144 48.8208 68.8473 49.0647C68.5801 49.3086 68.2629 49.502 67.9138 49.6338C67.5646 49.7656 67.1904 49.8333 66.8126 49.8328Z" fill="white"/>
</svg>
