<svg width="108" height="108" viewBox="0 0 108 108" fill="none" xmlns="http://www.w3.org/2000/svg">
<rect width="108" height="108" rx="15" fill="#E11D2E"/>
<path d="M54 36C40.7464 36 30 45.8119 30 57.9128C30 70.0138 40.7464 79.8257 54 79.8257C67.2536 79.8257 78 70.0138 78 57.9128C78 45.8119 67.2536 36 54 36ZM67.7143 48.4091L65.5286 50.3216C65.3357 50.4537 65.2446 50.6689 65.2821 50.8792V64.9514C65.2446 65.1666 65.3357 65.3818 65.5286 65.509L67.6714 67.4214V67.847H56.9143V67.441L59.1268 65.4796C59.3464 65.2791 59.3464 65.2204 59.3464 64.922V53.5352L53.1857 67.7981H52.3554L45.1875 53.5352V63.0976C45.1232 63.4987 45.2786 63.9046 45.5893 64.1932L48.4714 67.3774V67.803H40.2857V67.3774L43.1679 64.1932C43.3197 64.05 43.4327 63.8763 43.4978 63.6861C43.563 63.4958 43.5784 63.2943 43.5429 63.0976V52.0433C43.5804 51.7352 43.4518 51.4368 43.1946 51.2265L40.6339 48.4091V47.9836H48.5893L54.7286 60.2851L60.1339 47.9934H67.7143V48.4091Z" fill="white"/>
</svg>
