<svg width="44" height="35" viewBox="0 0 44 35" fill="none" xmlns="http://www.w3.org/2000/svg">
<path fill-rule="evenodd" clip-rule="evenodd" d="M28.4375 0C31.2944 0 33.7269 1.82656 34.6281 4.375H15.3125C12.4117 4.375 9.6297 5.52734 7.57852 7.57852C5.52734 9.6297 4.375 12.4117 4.375 15.3125V25.8781C3.09515 25.4253 1.98717 24.5868 1.20365 23.4781C0.420129 22.3694 -0.000391405 21.0451 2.73362e-07 19.6875V6.5625C2.73362e-07 4.82202 0.691405 3.15282 1.92211 1.92211C3.15282 0.691404 4.82202 0 6.5625 0H28.4375ZM37.1875 8.75H15.3125C13.572 8.75 11.9028 9.4414 10.6721 10.6721C9.4414 11.9028 8.75 13.572 8.75 15.3125V28.4375C8.75 30.178 9.4414 31.8472 10.6721 33.0779C11.9028 34.3086 13.572 35 15.3125 35H37.1875C38.928 35 40.5972 34.3086 41.8279 33.0779C43.0586 31.8472 43.75 30.178 43.75 28.4375V15.3125C43.75 13.572 43.0586 11.9028 41.8279 10.6721C40.5972 9.4414 38.928 8.75 37.1875 8.75ZM30.625 21.875C30.625 23.0353 30.1641 24.1481 29.3436 24.9686C28.5231 25.7891 27.4103 26.25 26.25 26.25C25.0897 26.25 23.9769 25.7891 23.1564 24.9686C22.3359 24.1481 21.875 23.0353 21.875 21.875C21.875 20.7147 22.3359 19.6019 23.1564 18.7814C23.9769 17.9609 25.0897 17.5 26.25 17.5C27.4103 17.5 28.5231 17.9609 29.3436 18.7814C30.1641 19.6019 30.625 20.7147 30.625 21.875Z" fill="white"/>
</svg>
