<svg width="194" height="166" viewBox="0 0 194 166" fill="none" xmlns="http://www.w3.org/2000/svg">
<g opacity="0.1">
<path d="M187.715 63.0157C187.715 63.0157 188.391 65.6919 186.15 68.6797C186.15 68.6797 189.811 68.5767 191.572 70.7908C191.572 70.7908 190.985 67.5726 193.5 65.1268C193.5 65.1268 190.063 65.6933 187.715 63.0157Z" fill="white"/>
</g>
<path d="M2.22418 104.316C2.22418 104.316 3.18468 108.119 0 112.365C0 112.365 5.20304 112.219 7.70524 115.366C7.70524 115.366 6.8712 110.792 10.4458 107.316C10.4458 107.316 5.56049 108.121 2.22418 104.316Z" fill="white"/>
<path d="M176.749 104.004C176.749 104.004 177.424 106.68 175.184 109.668C175.184 109.668 178.845 109.565 180.605 111.779C180.605 111.779 180.018 108.561 182.534 106.115C182.534 106.115 179.096 106.681 176.749 104.004Z" fill="white"/>
<g opacity="0.300003">
<g opacity="0.300003">
<path opacity="0.300003" d="M182.383 158.717C182.383 161.498 144.247 163.752 97.2024 163.752C50.1583 163.752 12.0215 161.498 12.0215 158.717C12.0215 155.937 50.1583 153.683 97.2024 153.683C144.247 153.683 182.383 155.937 182.383 158.717Z" fill="#000072"/>
</g>
</g>
<path d="M168.897 152.42C165.517 156.031 160.558 158.062 155.379 158.062H39.0128C33.8344 158.062 28.8751 156.031 25.4947 152.42C23.6271 150.424 22.2464 148.201 21.3178 145.926C21.3144 145.926 21.3144 145.926 21.3144 145.923C18.393 138.785 19.8815 131.125 24.5417 128.37C32.3667 123.737 38.4007 129.398 38.4007 129.398C39.0684 127.953 39.9726 126.7 40.9847 125.627C44.7963 121.571 50.1382 120.027 50.1382 120.027C47.2342 104.684 53.7168 90.7827 53.7168 90.7827C53.7168 90.7827 69.6902 101.903 97.196 101.903C124.702 101.903 140.675 90.7827 140.675 90.7827C140.675 90.7827 147.158 104.684 144.254 120.027C144.254 120.027 152.806 122.5 155.991 129.398C155.991 129.398 162.025 123.737 169.85 128.37C175.995 132.006 176.625 144.171 168.897 152.42Z" fill="#B11313"/>
<g opacity="0.300003">
<g opacity="0.300003">
<path opacity="0.300003" d="M43.0417 143.543C44.1198 133.928 38.4023 129.779 38.4023 129.779C39.0701 128.334 39.9743 127.082 40.9863 126.008C49.8547 135.78 43.0417 143.543 43.0417 143.543Z" fill="#000072"/>
</g>
</g>
<g opacity="0.300003">
<g opacity="0.300003">
<path opacity="0.300003" d="M151.385 143.543C150.307 133.929 156.024 129.78 156.024 129.78C155.356 128.335 154.452 127.082 153.44 126.009C144.572 135.78 151.385 143.543 151.385 143.543Z" fill="#000072"/>
</g>
</g>
<g opacity="0.300003">
<g opacity="0.300003">
<path opacity="0.300003" d="M152.289 151.614C151.46 151.423 150.606 151.358 149.757 151.444C148.548 151.566 146.467 151.756 143.415 151.967C138.822 152.284 134.81 149.104 134.496 144.871C134.362 143.052 134.657 141.64 134.764 141.203C133.564 145.926 131.35 150.278 129.999 152.665C123.143 152.928 114.46 153.143 103.722 153.205C103.142 134.092 115.196 116.169 115.196 116.169C96.7278 129.779 79.2256 116.169 79.2256 116.169C91.4118 136.095 90.7774 152.375 90.7774 152.375L92.8297 153.216C81.1033 153.171 71.7253 152.946 64.422 152.665C63.0714 150.279 60.8564 145.927 59.6569 141.203C59.7682 141.657 60.0833 143.167 59.9062 145.092C59.525 149.234 55.5099 152.278 51.0092 151.967C47.9554 151.756 45.8737 151.566 44.6639 151.444C43.815 151.358 42.9608 151.423 42.1322 151.614C28.8916 154.65 21.5546 146.575 21.3184 146.307C22.2469 148.582 23.6276 150.806 25.4952 152.801C28.8756 156.412 33.8349 158.443 39.0133 158.443H97.2105H155.408C160.586 158.443 165.545 156.412 168.926 152.801C170.793 150.806 172.174 148.582 173.103 146.307C172.866 146.575 165.529 154.65 152.289 151.614Z" fill="#000072"/>
</g>
</g>
<g opacity="0.300003">
<g opacity="0.300003">
<path opacity="0.300003" d="M59.6604 141.204C59.6376 141.111 59.623 141.061 59.623 141.061C59.635 141.109 59.6482 141.156 59.6604 141.204Z" fill="#000072"/>
</g>
</g>
<g opacity="0.300003">
<g opacity="0.300003">
<path opacity="0.300003" d="M134.758 141.204C134.77 141.156 134.783 141.109 134.795 141.061C134.795 141.061 134.781 141.112 134.758 141.204Z" fill="#000072"/>
</g>
</g>
<path d="M97.1855 157.333H155.383C160.265 157.333 164.86 155.417 167.989 152.077C172.032 147.761 174.025 141.785 173.192 136.48C172.704 133.374 171.25 130.897 169.203 129.685C162.283 125.587 157.072 130.355 156.854 130.559C156.572 130.824 156.166 130.942 155.77 130.872C155.374 130.804 155.042 130.557 154.884 130.216C151.95 123.861 143.976 121.493 143.896 121.47C143.318 121.303 142.965 120.768 143.069 120.219C145.378 108.026 141.563 96.6184 140.103 92.8806C135.729 95.5146 120.68 103.396 97.1996 103.396C73.7189 103.396 58.6697 95.5146 54.2965 92.8806C52.8358 96.6184 49.0209 108.026 51.3304 120.219C51.4343 120.768 51.0807 121.303 50.5036 121.47C50.4248 121.493 42.4373 123.887 39.5146 130.216C39.357 130.557 39.0249 130.804 38.6294 130.872C38.234 130.942 37.8269 130.824 37.5449 130.559C37.3272 130.358 32.072 125.613 25.1958 129.685C23.1492 130.897 21.6954 133.374 21.2075 136.48C20.3741 141.785 22.3675 147.761 26.4101 152.077C29.5394 155.417 34.1341 157.333 39.016 157.333H97.1855ZM155.383 159.554H39.016C33.4324 159.554 28.1723 157.358 24.5846 153.528C20.099 148.739 17.8905 142.085 18.8211 136.162C19.4177 132.364 21.2186 129.4 23.8919 127.817C30.2543 124.05 35.6226 126.51 37.9817 128.043C40.974 122.995 46.5258 120.52 48.7917 119.684C46.2684 104.569 52.3471 91.294 52.6123 90.7255C52.7585 90.4117 53.0531 90.1777 53.4113 90.0904C53.7699 90.0028 54.1515 90.0719 54.447 90.2778C54.6032 90.386 70.4653 101.175 97.1996 101.175C123.934 101.175 139.796 90.386 139.953 90.2772C140.249 90.0719 140.631 90.0031 140.989 90.0907C141.346 90.1783 141.641 90.4121 141.787 90.7255C142.052 91.294 148.131 104.569 145.607 119.684C147.873 120.52 153.425 122.995 156.417 128.043C158.776 126.51 164.144 124.048 170.507 127.817C173.181 129.4 174.981 132.364 175.578 136.162C176.509 142.085 174.3 148.739 169.815 153.528C166.227 157.358 160.967 159.554 155.383 159.554Z" fill="#000072"/>
<path d="M39.1047 128.875C39.237 128.958 39.2987 129.004 39.3898 129.066C39.4762 129.125 39.5459 129.181 39.6248 129.24C39.7815 129.356 39.9138 129.479 40.0557 129.6C40.2009 129.719 40.3206 129.851 40.451 129.978C40.5823 130.104 40.7056 130.235 40.8212 130.369C41.3015 130.9 41.7054 131.471 42.0656 132.062C42.7875 133.242 43.267 134.515 43.6004 135.797C43.9255 137.084 44.0455 138.391 44.0457 139.681C44.0482 140.326 43.9701 140.969 43.9225 141.604C43.8185 142.239 43.705 142.869 43.5608 143.489C43.5332 143.608 43.4067 143.683 43.2782 143.658C43.1805 143.638 43.1098 143.566 43.0935 143.481L43.0907 143.466C42.9726 142.842 42.899 142.228 42.8102 141.619L42.6374 140.712C42.5742 140.413 42.5506 140.11 42.4641 139.816C42.3021 139.227 42.2153 138.632 42.0109 138.064C41.9219 137.777 41.8521 137.487 41.7551 137.206L41.4442 136.37C41.0153 135.267 40.4913 134.212 39.8601 133.237C39.6957 132.998 39.5418 132.751 39.3632 132.524L39.105 132.177L38.8281 131.847C38.6526 131.619 38.4489 131.419 38.2583 131.214C38.16 131.116 38.0625 131.011 37.9633 130.924C37.9157 130.879 37.8648 130.826 37.8198 130.788C37.7797 130.752 37.714 130.695 37.7095 130.687L37.4493 130.206C37.1699 129.688 37.3983 129.061 37.9595 128.803C38.3397 128.629 38.7765 128.67 39.1047 128.875Z" fill="#000072"/>
<path d="M156.666 130.687C156.662 130.695 156.596 130.752 156.556 130.788C156.511 130.826 156.46 130.879 156.412 130.924C156.313 131.011 156.216 131.116 156.117 131.214C155.927 131.419 155.723 131.619 155.548 131.847L155.271 132.177L155.013 132.524C154.834 132.751 154.68 132.998 154.516 133.237C153.884 134.212 153.361 135.267 152.932 136.37L152.621 137.206C152.524 137.487 152.454 137.777 152.365 138.064C152.161 138.632 152.074 139.227 151.912 139.816C151.825 140.11 151.802 140.413 151.738 140.712L151.566 141.619C151.477 142.228 151.403 142.842 151.285 143.466L151.282 143.481C151.26 143.6 151.136 143.68 151.007 143.659C150.908 143.644 150.835 143.574 150.815 143.489C150.671 142.869 150.557 142.239 150.453 141.604C150.406 140.969 150.328 140.326 150.33 139.681C150.33 138.391 150.45 137.084 150.775 135.797C151.109 134.515 151.588 133.243 152.31 132.062C152.67 131.472 153.074 130.9 153.555 130.369C153.67 130.235 153.794 130.104 153.925 129.978C154.055 129.851 154.175 129.719 154.32 129.6C154.462 129.479 154.594 129.356 154.751 129.24C154.83 129.182 154.9 129.125 154.986 129.066C155.077 129.004 155.139 128.958 155.271 128.875C155.789 128.55 156.495 128.673 156.848 129.151C157.088 129.474 157.103 129.877 156.927 130.204L156.666 130.687Z" fill="#000072"/>
<path d="M51.3409 120.278L51.4392 121.165L51.5619 122.158C51.6051 122.496 51.6626 122.835 51.6944 123.192C51.7298 123.547 51.7507 123.915 51.7312 124.312L51.7311 124.314C51.728 124.377 51.6706 124.425 51.6026 124.422C51.5783 124.421 51.5559 124.414 51.5374 124.402C51.1832 124.172 50.8784 123.908 50.6146 123.621C50.3445 123.336 50.1234 123.024 49.9078 122.706C49.6971 122.384 49.5052 122.05 49.3382 121.701C49.2596 121.524 49.1781 121.347 49.1149 121.16C49.0807 121.067 49.0499 120.972 49.0224 120.874C48.9925 120.768 48.9726 120.691 48.9468 120.541C48.8422 119.935 49.2908 119.366 49.9488 119.269C50.6069 119.173 51.2251 119.586 51.3295 120.192C51.3329 120.212 51.3357 120.231 51.338 120.251L51.3409 120.278Z" fill="#000072"/>
<path d="M145.477 120.542C145.452 120.692 145.432 120.769 145.402 120.875C145.374 120.972 145.343 121.068 145.309 121.16C145.246 121.347 145.165 121.525 145.086 121.701C144.919 122.051 144.727 122.385 144.516 122.706C144.301 123.025 144.08 123.336 143.81 123.622C143.546 123.909 143.241 124.172 142.887 124.402C142.831 124.438 142.755 124.426 142.715 124.375C142.701 124.356 142.694 124.335 142.693 124.315L142.693 124.313C142.673 123.915 142.694 123.547 142.73 123.192C142.762 122.836 142.819 122.496 142.862 122.158L142.985 121.166L143.083 120.278L143.086 120.255C143.153 119.644 143.746 119.2 144.408 119.262C145.071 119.324 145.554 119.87 145.486 120.48C145.484 120.5 145.481 120.523 145.477 120.542Z" fill="#000072"/>
<path d="M57.19 131.287C57.19 131.287 51.6708 127.344 50.1431 120.41C50.1431 120.41 46.9679 118.932 44.7734 122.932C44.7734 122.932 47.3049 135.143 59.6231 141.061C59.6231 141.061 57.8431 134.775 57.19 131.287Z" fill="#0096F2"/>
<path d="M46.0495 123.091C46.5467 124.955 49.2238 133.47 57.7444 138.742C57.2052 136.727 56.4906 133.942 56.0809 131.881C54.8027 130.86 50.6428 127.169 49.1145 121.267C48.4204 121.156 47.171 121.285 46.0495 123.091ZM59.6235 142.171C59.4332 142.171 59.242 142.13 59.0662 142.046C46.3768 135.949 43.6976 123.66 43.5898 123.14C43.5398 122.899 43.5779 122.65 43.6981 122.431C45.0688 119.932 46.8612 119.224 48.1234 119.07C49.5201 118.898 50.5721 119.365 50.6875 119.419C51.0169 119.572 51.2519 119.856 51.3253 120.189C52.74 126.61 57.8795 130.373 57.9312 130.41C58.1671 130.58 58.3279 130.826 58.3786 131.098C59.0156 134.499 60.7727 140.718 60.7903 140.78C60.9105 141.205 60.7477 141.656 60.3748 141.93C60.1569 142.089 59.8911 142.171 59.6235 142.171Z" fill="#000072"/>
<path d="M137.238 131.287C137.238 131.287 142.757 127.344 144.285 120.41C144.285 120.41 147.46 118.932 149.654 122.932C149.654 122.932 147.123 135.143 134.805 141.061C134.805 141.061 136.585 134.775 137.238 131.287Z" fill="#0096F2"/>
<path d="M138.346 131.88C137.936 133.942 137.222 136.727 136.683 138.742C145.203 133.47 147.88 124.956 148.377 123.09C147.698 121.994 146.895 121.382 145.987 121.272C145.732 121.24 145.499 121.253 145.309 121.281C143.777 127.175 139.623 130.861 138.346 131.88ZM134.803 142.171C134.536 142.171 134.27 142.089 134.052 141.929C133.679 141.655 133.516 141.205 133.637 140.78C133.654 140.718 135.411 134.498 136.048 131.098C136.099 130.825 136.259 130.58 136.496 130.41C136.547 130.373 141.687 126.61 143.102 120.189C143.175 119.856 143.41 119.572 143.74 119.418C143.855 119.365 144.907 118.898 146.304 119.07C147.566 119.224 149.358 119.932 150.729 122.43C150.849 122.649 150.887 122.899 150.837 123.14C150.729 123.66 148.05 135.949 135.361 142.045C135.185 142.129 134.994 142.171 134.803 142.171Z" fill="#000072"/>
<path d="M73.8203 102.916C73.8203 102.916 75.8925 108.327 75.2963 116.222L82.124 121.695C82.124 121.695 83.9083 112.157 80.8692 104.235L73.8203 102.916Z" fill="#0096F2"/>
<path d="M76.5333 115.744L81.202 119.487C81.5181 116.443 81.7877 110.475 79.945 105.196L75.5108 104.366C76.0838 106.563 76.8486 110.604 76.5333 115.744ZM82.1204 122.806C81.8339 122.806 81.5516 122.711 81.3288 122.533L74.5013 117.06C74.216 116.831 74.0637 116.493 74.0898 116.145C74.6596 108.601 72.699 103.336 72.6792 103.284C72.5358 102.907 72.6231 102.487 72.9082 102.187C73.1935 101.886 73.6325 101.75 74.0565 101.827L81.1053 103.146C81.5206 103.224 81.8611 103.497 82.0021 103.864C85.1104 111.967 83.3832 121.483 83.3084 121.884C83.2343 122.279 82.9348 122.607 82.5245 122.741C82.3927 122.784 82.256 122.806 82.1204 122.806Z" fill="#000072"/>
<path d="M120.607 102.916C120.607 102.916 118.535 108.327 119.131 116.222L112.304 121.695C112.304 121.695 110.519 112.157 113.558 104.235L120.607 102.916Z" fill="#0096F2"/>
<path d="M114.479 105.196C112.633 110.485 112.904 116.447 113.221 119.488L117.891 115.744C117.576 110.604 118.341 106.563 118.913 104.366L114.479 105.196ZM112.304 122.806C112.168 122.806 112.032 122.784 111.9 122.741C111.49 122.607 111.19 122.279 111.116 121.884C111.041 121.483 109.314 111.967 112.422 103.864C112.563 103.497 112.904 103.224 113.319 103.146L120.368 101.827C120.793 101.747 121.232 101.885 121.517 102.187C121.802 102.488 121.889 102.908 121.745 103.285C121.713 103.368 119.767 108.624 120.334 116.145C120.361 116.493 120.208 116.831 119.923 117.06L113.095 122.533C112.873 122.711 112.59 122.806 112.304 122.806Z" fill="#000072"/>
<path d="M90.4025 154.974C88.6844 162.747 78.891 166.303 72.0085 161.539C66.6214 157.813 60.7058 149.291 57.0506 130.603C56.7028 128.812 56.3725 126.925 56.0664 124.942L58.393 122.911L73.817 109.435C73.817 109.435 89.0114 131.106 90.6946 147.718V147.721C90.9589 150.293 90.8963 152.744 90.4025 154.974Z" fill="#B11313"/>
<g opacity="0.300003">
<g opacity="0.300003">
<path opacity="0.300003" d="M90.4035 154.974C88.6855 162.747 78.8921 166.303 72.0095 161.539C66.6224 157.813 60.7067 149.291 57.0516 130.603C51.908 127.748 50.1413 120.408 50.1413 120.408C47.9224 110.663 50.4821 101.679 50.4821 101.679C49.995 113.542 55.1061 119.2 57.2142 121.017C57.8015 121.523 58.2121 122.176 58.391 122.898C58.392 122.902 58.393 122.907 58.394 122.911C62.1605 138.263 68.4691 156.967 77.6227 158.306C86.4597 159.597 90.2679 148.993 90.6956 147.721C90.9599 150.293 90.8973 152.744 90.4035 154.974Z" fill="#000072"/>
</g>
</g>
<path d="M75.1394 108.399C76.8956 110.161 78.2842 112.127 79.5433 114.157C80.1682 115.175 80.7382 116.219 81.3045 117.264C81.8708 118.31 82.4254 119.361 82.966 120.419C85.1307 124.649 87.1015 128.974 88.7386 133.431C90.3773 137.882 91.6968 142.482 92.178 147.27C92.4094 149.661 92.4236 152.107 91.9827 154.556C91.8871 155.157 91.7478 155.802 91.533 156.423C91.3384 157.049 91.0621 157.653 90.763 158.245C90.1388 159.418 89.3071 160.501 88.3151 161.437C86.3109 163.291 83.6627 164.541 80.851 164.908C79.4489 165.11 78.0087 165.066 76.6113 164.838C75.2148 164.593 73.8663 164.131 72.6335 163.496C72.0305 163.167 71.4232 162.806 70.8992 162.408L70.1133 161.814C69.848 161.619 69.6201 161.392 69.3722 161.182C69.1329 160.966 68.878 160.761 68.6525 160.534L67.9801 159.852C67.516 159.407 67.1311 158.913 66.7146 158.438C65.1051 156.505 63.8214 154.402 62.6945 152.258C61.5492 150.117 60.6736 147.889 59.8255 145.662C59.0386 143.419 58.3217 141.16 57.732 138.878C57.4406 137.737 57.1276 136.599 56.8898 135.45C56.6448 134.301 56.3513 133.161 56.1733 132.003C55.7789 129.692 55.5938 127.35 55.8108 124.974C55.823 124.84 55.9511 124.74 56.0969 124.752C56.1985 124.76 56.2819 124.819 56.3189 124.9L56.3221 124.907C56.8234 126.011 57.2026 127.125 57.5295 128.245C57.8516 129.366 58.1852 130.479 58.4382 131.607C58.68 132.737 58.9634 133.855 59.2303 134.978C59.4836 136.104 59.8101 137.211 60.1147 138.323C60.7308 140.546 61.468 142.731 62.2671 144.891C63.1241 147.026 64.0047 149.157 65.1243 151.163C66.2211 153.177 67.472 155.11 68.942 156.85C69.3217 157.274 69.6739 157.724 70.0892 158.111L70.6907 158.713C70.8918 158.913 71.1158 159.087 71.3265 159.276C71.544 159.456 71.7455 159.657 71.9752 159.821L72.6541 160.325C73.1039 160.663 73.5635 160.924 74.0434 161.185C75.0126 161.674 76.0566 162.022 77.1359 162.204C78.2163 162.369 79.3281 162.4 80.4139 162.232C82.5933 161.936 84.6434 160.937 86.1834 159.501C86.9507 158.778 87.5947 157.946 88.0816 157.038C88.3122 156.579 88.532 156.112 88.6834 155.622C88.8536 155.138 88.9622 154.643 89.05 154.097C89.4409 151.967 89.4448 149.736 89.234 147.512C89.0204 145.284 88.591 143.054 88.0352 140.843C87.4826 138.63 86.792 136.436 86.0234 134.263C84.4827 129.914 82.6 125.65 80.5187 121.468C79.9991 120.422 79.4652 119.381 78.9196 118.346C78.3767 117.309 77.8052 116.286 77.2757 115.242C76.2063 113.159 75.1991 111.042 74.4044 108.804L74.4018 108.797C74.3266 108.585 74.4519 108.358 74.6813 108.289C74.8494 108.238 75.027 108.287 75.1394 108.399Z" fill="#000072"/>
<path d="M60.4267 144.653C60.102 144.653 59.7781 144.533 59.5406 144.296C59.0892 143.845 59.1191 143.144 59.6077 142.727C60.055 142.346 70.7489 133.384 87.1218 132.257C87.7839 132.208 88.3642 132.67 88.4139 133.281C88.4635 133.893 87.9654 134.426 87.3014 134.472C71.7973 135.54 61.3477 144.271 61.2439 144.359C61.0122 144.555 60.7189 144.653 60.4267 144.653Z" fill="#000072"/>
<path d="M104.02 154.974C105.738 162.747 115.532 166.303 122.414 161.539C127.801 157.813 133.717 149.291 137.372 130.603C137.72 128.812 138.05 126.925 138.356 124.942L136.03 122.911L120.606 109.435C120.606 109.435 105.411 131.106 103.728 147.718V147.721C103.464 150.293 103.526 152.744 104.02 154.974Z" fill="#B11313"/>
<g opacity="0.300003">
<g opacity="0.300003">
<path opacity="0.300003" d="M104.03 154.975C105.748 162.747 115.542 166.303 122.424 161.539C127.811 157.813 133.727 149.291 137.382 130.603C142.526 127.749 144.292 120.409 144.292 120.409C146.511 110.663 143.952 101.68 143.952 101.68C144.439 113.542 139.328 119.201 137.219 121.017C136.632 121.524 136.222 122.176 136.043 122.899C136.042 122.903 136.041 122.907 136.04 122.911C132.273 138.264 125.964 156.967 116.811 158.307C107.974 159.598 104.166 148.993 103.738 147.721C103.474 150.294 103.536 152.745 104.03 154.975Z" fill="#000072"/>
</g>
</g>
<path d="M120.024 108.804C119.23 111.042 118.223 113.159 117.153 115.242C116.624 116.285 116.052 117.309 115.509 118.346C114.964 119.381 114.43 120.422 113.91 121.468C111.829 125.65 109.946 129.914 108.405 134.263C107.637 136.436 106.946 138.63 106.394 140.843C105.838 143.053 105.408 145.284 105.195 147.512C104.984 149.736 104.988 151.967 105.379 154.097C105.467 154.643 105.575 155.138 105.745 155.622C105.897 156.112 106.117 156.579 106.347 157.038C106.834 157.946 107.478 158.778 108.245 159.5C109.785 160.937 111.836 161.936 114.015 162.233C115.101 162.4 116.213 162.369 117.293 162.204C118.372 162.022 119.416 161.674 120.385 161.185C120.865 160.924 121.325 160.663 121.775 160.325L122.454 159.821C122.683 159.657 122.885 159.456 123.102 159.276C123.313 159.087 123.537 158.913 123.738 158.713L124.34 158.112C124.755 157.724 125.107 157.274 125.487 156.85C126.957 155.11 128.208 153.177 129.305 151.163C130.424 149.157 131.305 147.026 132.162 144.891C132.961 142.731 133.698 140.546 134.314 138.323C134.619 137.211 134.945 136.104 135.199 134.978C135.465 133.855 135.749 132.737 135.991 131.607C136.244 130.479 136.577 129.366 136.899 128.245C137.226 127.125 137.606 126.011 138.107 124.907L138.11 124.901C138.166 124.776 138.321 124.718 138.456 124.77C138.551 124.806 138.61 124.887 138.618 124.974C138.835 127.35 138.65 129.692 138.256 132.003C138.078 133.161 137.784 134.301 137.539 135.45C137.301 136.599 136.988 137.737 136.697 138.878C136.107 141.16 135.39 143.419 134.603 145.662C133.755 147.889 132.88 150.117 131.734 152.258C130.607 154.402 129.324 156.505 127.714 158.438C127.298 158.913 126.913 159.407 126.449 159.852L125.776 160.534C125.551 160.761 125.296 160.966 125.057 161.182C124.809 161.392 124.581 161.619 124.316 161.814L123.53 162.408C123.006 162.806 122.398 163.167 121.795 163.496C120.563 164.131 119.214 164.593 117.818 164.838C116.42 165.066 114.98 165.11 113.578 164.908C110.766 164.541 108.118 163.291 106.114 161.437C105.122 160.501 104.29 159.418 103.666 158.245C103.367 157.653 103.091 157.049 102.896 156.423C102.681 155.802 102.542 155.157 102.446 154.556C102.005 152.107 102.02 149.661 102.251 147.27C102.732 142.482 104.052 137.882 105.69 133.431C107.327 128.974 109.298 124.649 111.463 120.419C112.003 119.361 112.558 118.31 113.124 117.264C113.691 116.219 114.261 115.175 114.886 114.157C116.145 112.127 117.533 110.161 119.289 108.399C119.453 108.235 119.729 108.224 119.907 108.375C120.038 108.485 120.079 108.651 120.027 108.796L120.024 108.804Z" fill="#000072"/>
<path d="M134.003 144.653C133.71 144.653 133.417 144.556 133.185 144.359C133.081 144.271 122.632 135.54 107.128 134.472C106.464 134.426 105.966 133.893 106.015 133.281C106.065 132.67 106.644 132.208 107.307 132.257C123.68 133.384 134.374 142.346 134.821 142.727C135.31 143.144 135.34 143.846 134.888 144.297C134.65 144.533 134.327 144.653 134.003 144.653Z" fill="#000072"/>
<path d="M97.2304 98.7066C128.761 98.7066 141.281 86.0176 141.281 86.0176C141.281 86.0176 141.806 87.1101 142.062 88.663C142.485 91.2341 141.3 93.8134 139.043 95.3754C134.082 98.809 121.449 105.352 97.214 105.352C72.9794 105.352 60.3462 98.809 55.3849 95.3754C53.1279 93.8134 51.9427 91.2341 52.3661 88.663C52.6218 87.1101 53.1471 86.0176 53.1471 86.0176C53.1471 86.0176 65.6667 98.7066 97.1976 98.7066" fill="#751313"/>
<g opacity="0.300003">
<g opacity="0.300003">
<path opacity="0.300003" d="M141.945 88.0679C141.539 89.6805 140.523 91.1459 139.041 92.1717C134.08 95.6052 121.447 102.148 97.212 102.148C72.9774 102.148 60.3442 95.6052 55.3829 92.1717C53.9009 91.1459 52.8851 89.6805 52.4793 88.0679C52.4375 88.2573 52.3983 88.4557 52.3642 88.6631C51.9407 91.2342 53.1259 93.8135 55.3829 95.3754C60.3442 98.809 72.9774 105.352 97.212 105.352C121.447 105.352 134.08 98.809 139.041 95.3754C141.298 93.8135 142.483 91.2342 142.06 88.6631C142.026 88.4557 141.987 88.2573 141.945 88.0679Z" fill="#000072"/>
</g>
</g>
<path d="M97.2153 106.463C73.0131 106.463 60.1661 100.073 54.6622 96.2636C52.0233 94.4371 50.6872 91.4611 51.1754 88.4969C51.4521 86.8159 52.0218 85.6181 52.0459 85.5681C52.2111 85.2246 52.5533 84.9812 52.9558 84.9214C53.3575 84.8607 53.7661 84.9928 54.0405 85.2706C54.1615 85.3923 66.6598 97.5962 97.199 97.5962V99.8176C71.1158 99.8176 57.8848 91.3416 53.7219 88.0407C53.6619 88.2842 53.6056 88.5489 53.5593 88.8298C53.2045 90.9848 54.182 93.1531 56.1106 94.4878C61.3739 98.1302 73.7133 104.241 97.2153 104.241C120.717 104.241 133.057 98.1302 138.32 94.4878C140.249 93.1531 141.226 90.9852 140.871 88.8298C140.825 88.5489 140.769 88.2842 140.709 88.0407C136.546 91.3416 123.315 99.8176 97.2315 99.8176V97.5962C127.875 97.5962 140.268 85.3938 140.39 85.2706C140.664 84.9928 141.073 84.8613 141.475 84.9214C141.877 84.9812 142.219 85.2246 142.385 85.5681C142.409 85.6181 142.978 86.8159 143.255 88.4969C143.743 91.4611 142.407 94.4374 139.769 96.2636C134.265 100.073 121.418 106.463 97.2153 106.463Z" fill="#000072"/>
<g opacity="0.3">
<path d="M1.90093 14.9155C1.90093 14.9155 2.5768 17.5916 0.335938 20.5794C0.335938 20.5794 3.99691 20.4764 5.75757 22.6904C5.75757 22.6904 5.17066 19.4723 7.68585 17.0266C7.68585 17.0266 4.24843 17.593 1.90093 14.9155Z" fill="white"/>
</g>
<path d="M53.1738 95.4084L72.615 136.178" stroke="#000072" stroke-miterlimit="10"/>
<path d="M120.969 136.177L140.822 95.4082" stroke="#000072" stroke-miterlimit="10"/>
<path fill-rule="evenodd" clip-rule="evenodd" d="M95.7878 112.058C95.7797 112.156 95.715 112.244 95.6719 112.34C95.6302 112.434 95.592 112.534 95.556 112.632C95.462 112.888 95.3742 113.14 95.3822 113.472C95.7028 113.511 96.107 113.482 96.3962 113.444C96.5543 113.509 96.6558 113.609 96.8018 113.682C96.7742 113.558 96.9059 113.534 97.019 113.499C96.9688 113.553 96.8909 113.589 96.9176 113.691C96.9836 113.718 96.9942 113.645 97.048 113.636C97.1226 113.689 97.2171 113.687 97.2943 113.636C97.3497 113.644 97.3347 113.696 97.3957 113.7C97.4817 113.629 97.3589 113.552 97.3232 113.499C97.4307 113.535 97.5531 113.561 97.5406 113.672C97.6576 113.628 97.8001 113.52 97.9171 113.444C98.2189 113.484 98.6047 113.503 98.9601 113.481C98.9482 112.926 98.7342 112.498 98.5255 112.067C98.5834 112.062 98.5829 112.11 98.598 112.131C98.8135 112.424 99.0052 112.76 99.163 113.116C99.1858 113.168 99.2244 113.238 99.2498 113.308C99.2721 113.368 99.3191 113.474 99.3078 113.508C99.2829 113.583 99.0867 113.608 99.047 113.672C98.9264 113.583 98.579 113.609 98.2503 113.599C98.1572 113.597 98.0323 113.58 97.9752 113.59C97.8488 113.613 97.7936 113.729 97.7289 113.791C97.9074 113.799 98.0483 113.69 98.2069 113.682C98.3074 113.676 98.4545 113.724 98.5834 113.745C98.957 113.808 99.3735 113.86 99.7134 113.928C99.7339 113.194 99.4347 112.583 99.0326 112.085C99.4322 112.432 99.7013 112.839 99.9017 113.317C99.9363 113.399 99.966 113.478 99.9886 113.563C100.02 113.682 100.022 113.83 100.119 113.919C99.9988 114.001 99.8543 114.068 99.7278 114.147C99.3719 114.013 98.6843 113.82 98.1055 113.855C97.9669 113.863 97.8444 113.907 97.7433 113.964C97.9202 114.009 98.0426 114.013 98.2792 114.01C98.3381 114.009 98.4232 113.994 98.4676 114.001C98.5179 114.009 98.5986 114.074 98.6704 114.119C99.0887 114.383 99.463 114.576 99.9596 114.785C100.115 114.851 100.202 114.917 100.38 114.831C100.409 115.697 100.044 116.336 99.5975 116.92C99.5454 116.988 99.5124 117.067 99.4237 117.121C99.7595 116.622 100.018 116.028 100.018 115.333C100.018 115.26 100.04 115.169 100.018 115.105C99.9861 115.014 99.7582 114.917 99.6264 114.84C99.2521 114.623 98.9544 114.47 98.54 114.265C98.4588 114.225 98.3899 114.171 98.3228 114.156C98.2522 114.14 98.1409 114.136 98.062 114.129C97.9633 114.119 97.8684 114.116 97.7868 114.11C97.9469 114.219 98.2009 114.353 98.4241 114.457C98.4648 114.48 98.5074 114.449 98.5546 114.448C98.6075 115.465 98.4877 116.461 98.0331 117.203C97.9244 117.38 97.8043 117.554 97.613 117.687C98.2307 116.984 98.2772 115.778 98.1489 114.722C98.2802 114.65 98.2232 114.59 98.1055 114.503C97.9768 114.407 97.7483 114.267 97.5985 114.22C97.5879 114.267 97.6137 114.314 97.6419 114.357C97.6702 114.4 97.733 114.437 97.7433 114.475C97.7652 114.557 97.7124 114.736 97.6853 114.831C97.5958 115.146 97.407 115.491 97.2363 115.725C97.1762 115.72 97.2184 115.651 97.1784 115.634C97.1141 115.636 97.1531 115.703 97.1205 115.725C96.921 115.511 96.7507 115.156 96.6569 114.831C96.6234 114.715 96.5713 114.575 96.599 114.475C96.6209 114.396 96.7565 114.324 96.7438 114.229C96.6112 114.248 96.4876 114.331 96.3817 114.402C96.2762 114.473 96.1666 114.549 96.092 114.63C96.1009 114.67 96.1627 114.677 96.1789 114.712C96.0839 115.782 96.087 116.986 96.7293 117.677C96.6616 117.672 96.6301 117.618 96.599 117.586C96.001 116.984 95.8403 116.055 95.7733 115.096C95.7585 114.884 95.7433 114.676 95.7878 114.466C95.8001 114.422 95.8746 114.487 95.9181 114.457C96.1467 114.349 96.3527 114.226 96.57 114.11C96.3808 114.129 96.1752 114.123 96.0051 114.165C95.8574 114.202 95.6958 114.303 95.556 114.375C95.1308 114.593 94.6828 114.83 94.3247 115.077C94.2516 115.891 94.5477 116.547 94.9041 117.121C94.3899 116.49 93.9128 115.787 93.9626 114.831C94.1585 114.948 94.4569 114.758 94.6144 114.685C95.0531 114.483 95.5214 114.222 95.8602 114.001C96.1056 114.024 96.3937 114.005 96.599 113.973C96.3431 113.768 95.687 113.871 95.2953 113.946C95.0324 113.996 94.7871 114.069 94.6289 114.147C94.4785 114.083 94.3635 113.998 94.2233 113.928C94.3259 113.766 94.3478 113.493 94.4262 113.308C94.6176 112.855 94.9163 112.454 95.2807 112.085C95.2711 112.155 95.194 112.215 95.1504 112.277C94.8329 112.721 94.624 113.272 94.6144 113.919C94.9492 113.871 95.3488 113.812 95.7443 113.745C95.8733 113.724 96.0068 113.679 96.1064 113.682C96.2674 113.685 96.4188 113.79 96.599 113.791C96.5562 113.705 96.4745 113.644 96.3817 113.59C96.0833 113.612 95.7501 113.578 95.4836 113.609C95.4564 113.612 95.4208 113.622 95.3822 113.636C95.3857 113.635 95.2961 113.672 95.3098 113.672C95.2495 113.672 95.1024 113.54 95.0346 113.526C95.1737 112.966 95.4879 112.517 95.7878 112.058Z" fill="#000072"/>
<path fill-rule="evenodd" clip-rule="evenodd" d="M97.2167 106.463V122.215V106.463Z" fill="#000072"/>
<path d="M97.2167 106.463V122.215" stroke="#000072" stroke-miterlimit="10"/>
<path d="M91.878 106.355C91.878 106.355 92.8179 119.259 91.4413 121.544" stroke="#000072" stroke-miterlimit="10"/>
<path d="M87.6524 106.108C87.6524 106.108 89.772 112.078 86.709 120.143" stroke="#000072" stroke-miterlimit="10"/>
<path d="M102.087 106.463C102.087 106.463 101.104 117.897 102.525 121.79" stroke="#000072" stroke-miterlimit="10"/>
<path d="M107.101 106.107C107.101 106.107 104.854 117.445 108.191 120.143" stroke="#000072" stroke-miterlimit="10"/>
<path d="M83.2617 108.375C83.2617 108.375 85.3782 106.514 88.1579 108.375C88.1579 108.375 89.6067 106.528 92.0161 108.629C92.0161 108.629 93.3301 106.329 97.1978 108.375C97.1978 108.375 98.8301 106.452 101.759 108.375C101.759 108.375 104.059 106.24 106.754 108.269C106.754 108.269 109.157 105.859 111.238 108.011" stroke="#000072" stroke-miterlimit="10"/>
<path d="M96.9067 111.331C96.831 111.281 96.7558 111.235 96.6812 111.191C94.047 109.635 92.1355 111.374 92.1355 111.374C90.1814 109.505 88.3692 111.374 88.3692 111.374C85.3316 108.109 83.6914 111.374 83.6914 111.374" stroke="#000072" stroke-miterlimit="10"/>
<path d="M96.832 111.366C96.832 111.366 99.2333 109.592 101.759 111.366C101.759 111.366 104.214 109.171 106.362 111.464C106.362 111.464 109.552 109.203 110.742 111.418" stroke="#000072" stroke-miterlimit="10"/>
<path d="M83.6914 116.826C83.6914 116.826 85.6404 113.868 87.6916 117.077C87.6916 117.077 91.3702 114.736 92.153 118.005C92.153 118.005 95.199 116.579 97.328 118.927C97.328 118.927 99.5836 116.496 102.196 118.35C102.196 118.35 103.941 114.633 106.893 117.501C106.893 117.501 108.713 114.401 110.741 116.17" stroke="#000072" stroke-miterlimit="10"/>
<path d="M83.4922 118.595C83.4922 118.595 86.0303 116.223 87.1402 118.927C87.1402 118.927 90.796 117.404 91.8168 120.143C91.8168 120.143 95.5945 118.317 97.1671 121.238C97.1671 121.238 99.4023 119.298 102.089 120.616C102.089 120.616 104.559 117.194 107.417 119.214C107.417 119.214 109.451 116.013 110.669 118.005" stroke="#000072" stroke-miterlimit="10"/>
<path d="M61.2441 144.358C61.2441 144.358 72.4934 133.465 86.7123 134.516L89.9446 143.662C89.9446 143.662 86.4508 157.241 64.4255 152.665L61.2441 144.358Z" fill="#000072"/>
<path d="M61.2441 144.358C61.2441 144.358 72.4934 133.465 86.7123 134.516L89.9446 143.662C89.9446 143.662 86.4508 157.241 64.4255 152.665L61.2441 144.358Z" stroke="#000072" stroke-miterlimit="10"/>
<path d="M103.967 145.91L107.279 132.935L122.888 137.307L132.189 142.171V145.91L130.005 152.665C130.005 152.665 114.378 157.405 103.967 145.91Z" fill="#000072"/>
<path d="M103.967 145.91L107.279 132.935L122.888 137.307L132.189 142.171V145.91L130.005 152.665C130.005 152.665 114.378 157.405 103.967 145.91Z" stroke="#000072" stroke-miterlimit="10"/>
<path d="M24.9727 128.629L36.9893 157.333" stroke="#000072" stroke-miterlimit="10"/>
<path d="M21.8516 132.253C21.8516 132.253 23.9279 145.54 32.9919 157.117" stroke="#000072" stroke-miterlimit="10"/>
<path d="M29.8516 127.525C29.8516 127.525 39.2372 142.203 40.6873 157.564" stroke="#000072" stroke-miterlimit="10"/>
<path d="M35.873 128.629C35.873 128.629 41.5654 139.083 44.7747 157.333" stroke="#000072" stroke-miterlimit="10"/>
<path d="M20.5781 138.453C20.5781 138.453 20.6018 135.513 22.8704 136.653C22.8704 136.653 23.7145 131.512 27.4226 134.776C27.4226 134.776 27.563 129.556 32.7451 132.686C32.7451 132.686 34.2232 128.856 37.3272 132.253C37.3272 132.253 38.8667 131.469 39.8572 133.237" stroke="#000072" stroke-miterlimit="10"/>
<path d="M22.2148 134.049C22.2148 134.049 23.0104 130.247 26.1775 131.507C26.1775 131.507 26.8046 128.382 30.981 129.421C30.981 129.421 31.5956 127.377 36.5513 129.99" stroke="#000072" stroke-miterlimit="10"/>
<path d="M21.0195 140.017C21.0195 140.017 21.1944 137.071 23.6137 139.121C23.6137 139.121 24.376 134.02 28.6028 137.307C28.6028 137.307 28.716 132.312 33.6345 135.135C33.6345 135.135 35.4441 132.346 38.5981 134.776C38.5981 134.776 39.1614 133.324 40.7352 134.776" stroke="#000072" stroke-miterlimit="10"/>
<path d="M21.0195 142.545C21.0195 142.545 22.0014 139.712 24.688 142.171C24.688 142.171 26.3321 137.546 29.8492 140.676C29.8492 140.676 31.2661 134.502 35.5804 138.742C35.5804 138.742 36.2514 134.711 39.6827 137.693C39.6827 137.693 39.9431 135.218 41.7521 137.206" stroke="#000072" stroke-miterlimit="10"/>
<path d="M21.8516 144.685C21.8516 144.685 22.7652 142.351 25.4272 144.026C25.4272 144.026 28.3215 140.343 30.9776 142.981C30.9776 142.981 33.8279 139.016 36.5478 142.029C36.5478 142.029 37.9625 138.309 40.7598 140.899C40.7598 140.899 41.7963 139.512 42.6336 140.712" stroke="#000072" stroke-miterlimit="10"/>
<path d="M22.8184 147.431C22.8184 147.431 24.4274 144.889 26.4846 146.407C26.4846 146.407 28.2872 143.51 32.2152 145.924C32.2152 145.924 34.0845 142.002 37.9309 144.964C37.9309 144.964 39.3218 141.626 41.7568 144.652C41.7568 144.652 41.766 141.414 43.4708 142.981" stroke="#000072" stroke-miterlimit="10"/>
<path d="M23.998 150.636V149.821C23.998 149.821 25.076 146.847 27.6569 148.787C27.6569 148.787 30.3218 145.973 33.1416 148.144C33.1416 148.144 36.0555 144.63 38.6913 147.431C38.6913 147.431 40.2784 144.36 42.636 147.42" stroke="#000072" stroke-miterlimit="10"/>
<path d="M26.0039 151.633C26.0039 151.633 26.1038 150.051 28.6607 150.636C28.6607 150.636 31.4014 148.723 34.1264 150.506C34.1264 150.506 36.0491 147.365 39.312 149.746C39.312 149.746 41.5714 147.298 43.1174 149.371" stroke="#000072" stroke-miterlimit="10"/>
<path d="M27.4258 153.608C27.4258 153.608 28.4135 152.224 30.2209 153.206C30.2209 153.206 32.5675 151.108 35.1148 152.854C35.1148 152.854 36.8869 150.38 39.8679 152.16C39.8679 152.16 41.7581 149.904 43.645 151.634" stroke="#000072" stroke-miterlimit="10"/>
<path d="M29.3848 155.011C29.3848 155.011 29.6948 153.545 31.3901 154.946C31.3901 154.946 33.3706 153.775 35.8746 155.011C35.8746 155.011 38.6057 153.434 40.3255 154.675C40.3255 154.675 42.5614 153.128 44.0472 154.605" stroke="#000072" stroke-miterlimit="10"/>
<path d="M32.2441 156.035C32.2441 156.035 33.5612 154.761 36.5493 156.286C36.5493 156.286 38.1895 155.364 39.6917 155.689C39.9063 155.736 40.1181 155.807 40.3219 155.911" stroke="#000072" stroke-miterlimit="10"/>
<path d="M40.5488 156.294C40.5488 156.294 42.0683 155.074 44.6492 155.914" stroke="#000072" stroke-miterlimit="10"/>
<path d="M43.4698 142.553C43.0164 143.502 44.7756 158.438 44.7756 158.438H66.7181L66.2509 157.332L61.2461 148.538L58.1134 140.276C51.0146 139.349 44.0465 124.035 44.0465 124.035L39.1055 128.875L40.3248 131.507L42.6381 136.433L43.4698 142.553Z" fill="#000072"/>
<path d="M168.552 127.935L157.811 157.333" stroke="#000072" stroke-miterlimit="10"/>
<path d="M171.407 131.524C171.407 131.524 169.497 150.283 160.533 157.783" stroke="#000072" stroke-miterlimit="10"/>
<path d="M164.414 127.756C164.414 127.756 157.14 143.851 153.686 157.512" stroke="#000072" stroke-miterlimit="10"/>
<path d="M158.371 129.167C158.371 129.167 153.077 138.313 150.33 159.212" stroke="#000072" stroke-miterlimit="10"/>
<path d="M173.191 136.479C173.191 136.479 172.612 133.879 170.776 135.63C170.776 135.63 170.01 130.981 166.39 133.851C166.39 133.851 165.368 129.889 162.191 132.935C162.191 132.935 159.718 129.148 156.638 132.935C156.638 132.935 156.002 131.976 154.512 133.236" stroke="#000072" stroke-miterlimit="10"/>
<path d="M173.376 139.111C173.376 139.111 172.697 136.56 170.193 138.453C170.193 138.453 168.737 135.256 165.128 137.307C165.128 137.307 164.281 134.069 160.53 136.178C160.53 136.178 159.421 133.712 155.685 135.464C155.685 135.464 154.811 133.905 153.246 135.602" stroke="#000072" stroke-miterlimit="10"/>
<path d="M173.381 142.171C173.381 142.171 171.951 139.423 169.508 141.203C169.508 141.203 167.225 138.224 163.926 140.603C163.926 140.603 162.678 137.699 159.506 139.681C159.506 139.681 157.883 136.479 154.515 138.742C154.515 138.742 153.898 137.054 151.449 138.453" stroke="#000072" stroke-miterlimit="10"/>
<path d="M172.788 144.653C172.788 144.653 171.945 141.936 168.611 144.189C168.611 144.189 166.338 140.702 162.946 143.284C162.946 143.284 161.479 139.73 158.369 142.633C158.369 142.633 157.389 139.742 153.686 141.939C153.686 141.939 153.144 139.677 151.564 141.618C149.984 143.559 151.146 141.582 151.146 141.582" stroke="#000072" stroke-miterlimit="10"/>
<path d="M171.891 147.349C171.891 147.349 170.684 144.316 167.71 146.697C167.71 146.697 165.85 144.221 162.029 145.785C162.029 145.785 159.719 143.23 157.041 145.784C157.041 145.784 155.217 143.187 152.823 145.35C152.823 145.35 151.89 141.088 149.639 145.207" stroke="#000072" stroke-miterlimit="10"/>
<path d="M170.065 149.452C170.065 149.452 169.992 146.682 166.783 148.91C166.783 148.91 164.669 146.192 160.947 148.748C160.947 148.748 158.935 145.951 156.213 148.906C156.213 148.906 154.359 146.196 152.059 148.82C152.059 148.82 151.987 144.301 148.883 147.843" stroke="#000072" stroke-miterlimit="10"/>
<path d="M168.553 151.797C168.553 151.797 168.076 150.286 165.513 151.453C165.513 151.453 162.73 149.528 159.978 151.404C159.978 151.404 158.39 149.347 155.484 151.19C155.484 151.19 153.092 149.27 151.448 151.11C151.448 151.11 151.593 147.674 148.105 150.312" stroke="#000072" stroke-miterlimit="10"/>
<path d="M166.708 153.633C166.708 153.633 166.314 151.926 164.186 153.633C164.186 153.633 161.769 152.136 159.051 153.944C159.051 153.944 156.377 152.383 154.656 153.944C154.656 153.944 152.813 151.642 150.862 153.944C150.862 153.944 150.265 150.902 148.381 153.409" stroke="#000072" stroke-miterlimit="10"/>
<path d="M165.079 154.512C165.079 154.512 164.196 153.768 163.311 154.845C163.311 154.845 159.777 153.889 158.367 155.809C158.367 155.809 156.849 154.285 154.131 155.809C154.131 155.809 152.802 153.559 150.811 155.809C150.811 155.809 149.713 152.818 147.656 155.809" stroke="#000072" stroke-miterlimit="10"/>
<path d="M137.041 140.035L144.093 133.774L149.64 125.107L150.327 123.183L154.983 127.935L155.348 130.296L152.824 132.935L151.447 136.178L150.86 140.035V142.107L150.812 143.489C150.812 143.489 148.403 153.947 149.64 158.063L128.162 158.553L127.461 157.333L130.969 151.056L134.82 142.728L137.041 140.035Z" fill="#000072"/>
<path d="M133.1 99.4371C133.1 99.4371 115.911 130.164 113.98 138.743" stroke="#000072" stroke-miterlimit="10"/>
<path d="M127.615 101.796C127.615 101.796 110.812 132.779 112.298 135.4" stroke="#000072" stroke-miterlimit="10"/>
<path d="M143.658 100.104C143.658 100.104 130.883 132.157 124.941 139.646" stroke="#000072" stroke-miterlimit="10"/>
<path d="M120.609 106.463C120.609 106.463 124.497 102.673 125.458 105.837C125.458 105.837 128.068 102.296 130.194 104.721C130.194 104.721 135.259 100.964 136.07 105.167C136.07 105.167 140.675 101.825 141.059 106.463C141.059 106.463 142.731 106.027 142.69 109.923C142.69 109.923 144.192 112.95 143.757 114.126" stroke="#000072" stroke-miterlimit="10"/>
<path d="M127.016 102.916C127.016 102.916 130.06 100.383 131.797 101.796C131.797 101.796 135.893 97.9721 138.028 101.154C138.028 101.154 142.078 100.494 142.15 103.829C142.15 103.829 143.79 105.724 143.662 106.463C143.662 106.463 141.785 118.082 138.194 124.986C138.194 124.986 133.434 140.032 128.586 141.237" stroke="#000072" stroke-miterlimit="10"/>
<path d="M120.023 108.797C120.023 108.797 122.457 105.998 123.9 108.797C123.9 108.797 127.469 105.627 127.613 108.797C127.613 108.797 133.246 106.288 133.99 109.436C133.99 109.436 138.149 106.705 138.99 111.374C138.99 111.374 142.988 109.996 141.72 114.748C141.72 114.748 143.938 114.213 143.52 117.201" stroke="#000072" stroke-miterlimit="10"/>
<path d="M117.832 112.295C117.832 112.295 121.368 109.251 121.814 112.833C121.814 112.833 125.238 109.761 125.425 113.644C125.425 113.644 131.543 110.75 131.404 114.748C131.404 114.748 135.678 113.493 136.445 117.255C136.445 117.255 140.137 116.121 140.521 119.295C140.521 119.295 143.244 119.139 142.989 121.166" stroke="#000072" stroke-miterlimit="10"/>
<path d="M115.951 116.17C115.951 116.17 118.676 111.979 120.332 116.145C120.332 116.145 122.536 114.313 123.537 116.908C123.537 116.908 128.897 115.261 129.366 118.927C129.366 118.927 132.993 116.828 134.802 120.143C134.802 120.143 139.008 119.503 139.62 121.789C139.62 121.789 141.538 121.239 142.227 123.183" stroke="#000072" stroke-miterlimit="10"/>
<path d="M114.879 118.598C114.879 118.598 117.401 117.384 118.152 120.143C118.152 120.143 120.764 118.038 121.812 120.563C121.812 120.563 126.088 119.056 127.459 122.215C127.459 122.215 132.091 120.597 133.597 123.576C133.597 123.576 136.738 122.807 138.452 124.77C138.452 124.77 140.536 124.049 140.82 126.009" stroke="#000072" stroke-miterlimit="10"/>
<path d="M113.074 121.839C113.074 121.839 116.57 119.447 116.564 123.46C116.564 123.46 119.601 121.481 120.025 123.952C120.025 123.952 124.752 122.69 125.92 126.009C125.92 126.009 129.856 123.367 131.799 127.399C131.799 127.399 135.849 125.402 136.767 128.693" stroke="#000072" stroke-miterlimit="10"/>
<path d="M111.783 125.682C111.783 125.682 114.485 122.998 115.387 126.009C115.387 126.009 117.874 124.07 118.792 126.822C118.792 126.822 123.142 125.711 124.612 128.693C124.612 128.693 128.517 127.15 130.418 130.216C130.418 130.216 133.794 128.233 135.538 131.252" stroke="#000072" stroke-miterlimit="10"/>
<path d="M110.57 128.216C110.57 128.216 113.339 126.638 114.21 128.693C114.21 128.693 116.635 127.15 117.569 129.444C117.569 129.444 122.325 128.542 123.063 131.252C123.063 131.252 127.405 130.108 129.091 132.807C129.091 132.807 132.389 131.731 134.299 133.866C134.299 133.866 135.072 133.439 135.071 135.4" stroke="#000072" stroke-miterlimit="10"/>
<path d="M109.516 130.602C109.516 130.602 112.474 129.204 113.074 130.996C113.074 130.996 116.249 129.824 116.505 131.829C116.505 131.829 121.888 130.707 122.208 133.632C122.208 133.632 126.975 132.317 127.679 135.4C127.679 135.4 131.811 133.834 132.725 137.307C132.725 137.307 134.337 136.603 134.804 138.743" stroke="#000072" stroke-miterlimit="10"/>
<path d="M58.6035 97.2001C58.6035 97.2001 73.9259 120.402 77.5065 135.4" stroke="#000072" stroke-miterlimit="10"/>
<path d="M67.3945 101.679C67.3945 101.679 78.8415 120.997 82.6421 133.782" stroke="#000072" stroke-miterlimit="10"/>
<path d="M51.2344 100.882C51.2344 100.882 64.5785 135.735 68.9483 138.453" stroke="#000072" stroke-miterlimit="10"/>
<path d="M50.7012 107.388C50.7012 107.388 61.4938 138.446 64.7133 140.035" stroke="#000072" stroke-miterlimit="10"/>
<path d="M52.1953 102.285C52.1953 102.285 52.493 98.6395 55.7173 100.751C55.7173 100.751 57.002 98.139 60.6546 100.418C60.6546 100.418 61.6243 99.0196 64.7096 100.158" stroke="#000072" stroke-miterlimit="10"/>
<path d="M51.4258 109.436C51.4258 109.436 51.7148 106.87 53.99 107.873C53.99 107.873 54.6943 104.318 58.6098 106.803C58.6098 106.803 59.3363 103.064 63.6583 105.352C63.6583 105.352 66.3744 102.075 69.5024 105.352C69.5024 105.352 71.7914 103.393 73.463 105.352" stroke="#000072" stroke-miterlimit="10"/>
<path d="M50.7012 106.356C50.7012 106.356 51.7048 104.794 52.9104 105.352C52.9104 105.352 54.2102 101.957 57.0171 103.469C57.0171 103.469 58.7958 101.008 62.0058 102.605C62.0058 102.605 65.3478 101.188 67.3961 102.066" stroke="#000072" stroke-miterlimit="10"/>
<path d="M50.3301 114.3C50.3301 114.3 50.7159 112.574 52.9052 113.568C52.9052 113.568 53.207 110.957 55.7158 112.306C55.7158 112.306 56.3593 108.723 60.8244 110.942C60.8244 110.942 61.2751 106.761 66.0138 109.436C66.0138 109.436 68.0979 106.23 71.2545 108.542C71.2545 108.542 71.6063 106.716 74.025 108.269" stroke="#000072" stroke-miterlimit="10"/>
<path d="M50.7012 118.332C50.7012 118.332 51.7 115.475 54.2494 117.201C54.2494 117.201 54.7766 114.154 57.3974 116.17C57.3974 116.17 59.3391 113.369 62.1826 114.747C62.1826 114.747 64.741 110.948 68.0583 113.125C68.0583 113.125 70.4671 110.199 73.0677 111.926C73.0677 111.926 73.1602 110.81 75.6215 111.374" stroke="#000072" stroke-miterlimit="10"/>
<path d="M51.4375 121.166C51.4375 121.166 52.1237 118.228 55.3547 120.143C55.3547 120.143 56.855 118.134 58.8096 119.487C58.8096 119.487 60.4911 116.089 63.9651 118.043C63.9651 118.043 66.2971 114.949 70.0428 116.897C70.0428 116.897 71.7545 114.313 75.0519 115.793C75.0519 115.793 74.772 114.275 77.2761 115.242" stroke="#000072" stroke-miterlimit="10"/>
<path d="M52.7051 124.035C52.7051 124.035 53.4573 121.457 56.0651 122.751C56.0651 122.751 57.619 120.054 59.9793 122.088C59.9793 122.088 61.0197 118.658 65.4356 121.002C65.4356 121.002 67.5427 118.009 71.4246 119.473C71.4246 119.473 72.9659 116.642 76.441 118.374C76.441 118.374 77.1633 116.969 78.9178 118.092" stroke="#000072" stroke-miterlimit="10"/>
<path d="M52.9082 126.594C52.9082 126.594 53.9665 123.294 56.8572 124.035C56.8572 124.035 59.4545 122.747 60.7637 123.926C60.7637 123.926 64.498 121.343 66.4155 123.183C66.4155 123.183 70.274 120.374 72.6123 122.163C72.6123 122.163 75.2472 120.125 77.8265 121.544C77.8265 121.544 79.2397 120.109 80.9853 121.166" stroke="#000072" stroke-miterlimit="10"/>
<path d="M82.6439 125.106C82.6439 125.106 79.9564 121.836 79.3327 124.912C79.3327 124.912 74.745 122.381 74.3124 126.009C74.3124 126.009 69.806 122.891 68.221 126.964C68.221 126.964 63.6129 124.631 62.4416 127.916C62.4416 127.916 59.5028 125.085 59.0488 128.694C59.0488 128.694 57.5144 128.154 57.2461 129.554" stroke="#000072" stroke-miterlimit="10"/>
<path d="M83.8538 127.916C83.8538 127.916 81.369 125.389 80.708 128.254C80.708 128.254 77.0555 126.041 75.5107 129.034C75.5107 129.034 71.5718 127.2 70.0413 130.602C70.0413 130.602 65.8278 128.438 64.7099 132.168C64.7099 132.168 61.8162 131.089 60.8262 133.782C60.8262 133.782 59.3384 133.419 58.6035 135.4" stroke="#000072" stroke-miterlimit="10"/>
<path d="M84.4358 130.083C84.4358 130.083 82.5606 126.962 81.6847 130.848C81.6847 130.848 79.3576 129.515 76.6328 132.253C76.6328 132.253 73.1475 131.154 71.2344 133.279C71.2344 133.279 68.4739 132.579 66.471 134.445C66.3609 134.547 66.2533 134.657 66.1484 134.776" stroke="#000072" stroke-miterlimit="10"/>
<path d="M66.2496 134.658C66.2496 134.658 63.6753 134.442 62.338 136.653C62.338 136.653 60.4804 136.726 59.6227 138.742C58.7651 140.759 59.2203 138.453 59.2203 138.453" stroke="#000072" stroke-miterlimit="10"/>
<path fill-rule="evenodd" clip-rule="evenodd" d="M96.9838 15.2207C126.553 15.2207 149.3 43.5717 149.3 67.2449C149.3 90.9186 107.607 100.485 96.9838 100.952C86.3601 101.418 42.5 90.2243 42.5 66.5507C42.5 42.8771 67.4146 15.2207 96.9838 15.2207Z" fill="#FF850B"/>
<path d="M96.9838 16.3719C67.4953 16.3719 43.7496 43.8227 43.7496 66.5508C43.7496 72.4609 46.6653 78.0187 52.4162 83.0699C65.2259 94.3213 88.5974 99.8134 96.3249 99.8141C96.5371 99.8141 96.7361 99.81 96.9244 99.8017C102.523 99.5558 115.421 96.9015 126.567 91.7709C136.368 87.2597 148.05 79.3427 148.05 67.2449C148.05 43.7191 125.743 16.3719 96.9838 16.3719ZM96.3564 102.116C88.0669 102.116 64.1768 96.581 50.6916 84.7364C44.4269 79.2336 41.25 73.1151 41.25 66.5508C41.25 54.7012 47.4132 41.4955 57.7365 31.2259C68.6966 20.3228 83.0016 14.0695 96.9838 14.0695C111.053 14.0695 124.617 20.2969 135.177 31.6046C144.803 41.9112 150.55 55.2346 150.55 67.2449C150.55 77.7519 142.643 86.9451 127.684 93.8306C116.213 99.1109 102.861 101.846 97.0432 102.102C96.8286 102.111 96.5986 102.116 96.3564 102.116Z" fill="#000072"/>
<g opacity="0.5">
<g opacity="0.5">
<path opacity="0.5" fill-rule="evenodd" clip-rule="evenodd" d="M96.9768 15.2212C115.15 15.2212 130.744 25.9319 140.066 39.6822C140.163 40.1266 140.256 40.5727 140.338 41.0225C131.827 29.53 118.557 21.9518 103.861 19.9076C104.804 20.2355 105.35 20.6249 105.35 21.043C105.35 22.2115 101.078 23.1586 95.8081 23.1586C90.539 23.1586 86.2669 22.2115 86.2669 21.043C86.2669 20.6249 86.8122 20.2355 87.7551 19.9076C73.0585 21.9523 59.7899 29.5309 51.2792 41.0225L51.3263 40.7802C61.1397 26.4806 78.1102 15.2212 96.9768 15.2212Z" fill="white"/>
</g>
</g>
<path fill-rule="evenodd" clip-rule="evenodd" d="M147.894 74.519C140.541 92.9039 106.442 100.536 96.9819 100.952C87.6189 101.363 52.4462 92.7148 44.2285 74.4516C44.8586 64.5038 50.3447 61.785 60.4905 66.6463C64.6628 68.645 68.9072 70.7298 72.2703 69.1424C91.4671 60.0784 103.189 61.7872 116.328 69.1424C122.473 72.5822 128.47 67.4511 132.232 65.8868C144.214 60.903 149.711 64.3887 147.894 74.519Z" fill="white"/>
<g opacity="0.300003">
<g opacity="0.300003">
<path opacity="0.300003" fill-rule="evenodd" clip-rule="evenodd" d="M149.076 63.1106C149.225 64.4999 149.304 65.8803 149.304 67.2447C149.304 68.1169 149.241 68.9668 149.131 69.8011L149.143 69.5517C147.682 85.3504 113.147 97.4134 94.5677 98.3873C79.0588 99.2007 48.0836 83.8214 42.8753 69.5517C42.885 69.8475 42.9015 70.1428 42.916 70.4378C42.6507 69.1809 42.5039 67.8867 42.5039 66.5505C42.5039 65.4868 42.5562 64.4152 42.6545 63.3377L42.7354 63.1071C54.8425 79.1422 74.7039 88.7032 95.9077 88.7032C117.109 88.7032 136.969 79.1426 149.076 63.1106Z" fill="#000072"/>
</g>
</g>
<path fill-rule="evenodd" clip-rule="evenodd" d="M77.8535 55.5461C76.2001 54.867 74.5074 53.7289 72.7779 52.1339C69.7796 52.2592 67.3809 55.2097 67.3809 58.8306C67.3809 62.5314 69.8857 65.5317 72.9756 65.5317C76.0659 65.5317 78.5707 62.5314 78.5707 58.8306C78.5707 57.6372 78.3102 56.5169 77.8535 55.5461Z" fill="#000072"/>
<path d="M124.808 49.2366C122.79 51.7061 120.806 53.6157 118.856 54.9653C115.988 56.9507 112.883 57.2982 112.539 55.1116C114.082 54.9488 115.69 54.288 117.362 53.1307C121.484 50.2771 122.773 48.4398 124.808 49.2366Z" fill="#000072"/>
<path fill-rule="evenodd" clip-rule="evenodd" d="M115.401 55.5461C117.054 54.867 118.747 53.7289 120.477 52.1339C123.475 52.2592 125.874 55.2097 125.874 58.8306C125.874 62.5314 123.369 65.5317 120.279 65.5317C117.188 65.5317 114.684 62.5314 114.684 58.8306C114.684 57.6372 114.944 56.5169 115.401 55.5461Z" fill="#000072"/>
<path fill-rule="evenodd" clip-rule="evenodd" d="M117.969 57.124C117.061 57.124 116.326 57.8459 116.326 58.7359C116.326 59.6261 117.061 60.3479 117.969 60.3479C118.876 60.3479 119.611 59.6261 119.611 58.7359C119.611 57.8459 118.876 57.124 117.969 57.124Z" fill="white"/>
<path fill-rule="evenodd" clip-rule="evenodd" d="M95.9029 60.0065C99.9042 60.0065 103.148 61.9985 103.148 64.4556C103.148 66.913 99.9042 68.905 95.9029 68.905C91.9016 68.905 88.6582 66.913 88.6582 64.4556C88.6582 61.9985 91.9016 60.0065 95.9029 60.0065Z" fill="#000072"/>
<path d="M102.826 74.3574C100.276 74.3574 97.8094 73.4839 95.9167 71.9228C93.8028 73.6962 90.8888 74.5211 88.0248 74.1016C84.6978 73.6146 81.8762 71.514 80.6606 68.6195C80.4117 68.0264 80.7317 67.3598 81.3755 67.1304C82.0188 66.9012 82.7426 67.1959 82.9919 67.7888C83.8871 69.9213 85.966 71.469 88.417 71.8277C90.8695 72.1867 93.3661 71.3092 94.9352 69.5384C95.1695 69.2738 95.5193 69.1188 95.8898 69.1151C96.2634 69.1155 96.6133 69.2594 96.8541 69.519C98.4907 71.2857 100.963 72.2241 103.478 72.0298C105.99 71.8357 108.262 70.5297 109.556 68.5366C109.91 67.9906 110.678 67.8126 111.27 68.1392C111.862 68.4654 112.055 69.1723 111.701 69.718C109.995 72.3461 107 74.0682 103.687 74.3241C103.4 74.3465 103.112 74.3574 102.826 74.3574Z" fill="#000072"/>
<path fill-rule="evenodd" clip-rule="evenodd" d="M95.9056 70.2659C98.5106 72.547 101.07 73.5174 103.585 73.1766C104.207 88.2122 87.6598 87.5997 88.223 72.9642C91.3057 73.3247 93.8657 72.4257 95.9056 70.2659Z" fill="#000072"/>
<path d="M89.469 74.193C89.593 78.0241 91.068 81.0361 93.5249 82.3761C95.148 83.2611 96.982 83.2736 98.5575 82.4093C100.909 81.1188 102.262 78.2304 102.349 74.3901C100.223 74.3274 98.0861 73.4796 95.9705 71.8586C94.1494 73.4111 91.9901 74.1932 89.5257 74.1932C89.5071 74.1932 89.488 74.1932 89.469 74.193ZM96.0935 85.3467C94.7804 85.3468 93.4607 85.0168 92.2516 84.3573C88.6937 82.4168 86.7707 78.2492 86.9758 72.9231L87.0244 71.6631L88.3819 71.8219C91.0507 72.1333 93.2005 71.377 94.9642 69.5099L95.8214 68.6023L96.768 69.4311C99.1015 71.4741 101.275 72.327 103.404 72.0371L104.782 71.8505L104.835 73.1323C105.054 78.4221 103.232 82.5244 99.8365 84.3876C98.6706 85.0271 97.3854 85.3467 96.0935 85.3467Z" fill="#000072"/>
<path fill-rule="evenodd" clip-rule="evenodd" d="M96.0413 78.5809C93.8164 78.5809 91.7266 79.5621 90.4199 81.2195C93.428 85.1657 98.7617 85.2304 101.635 81.186C100.327 79.5487 98.2502 78.5809 96.0413 78.5809Z" fill="#FF0066"/>
<path d="M92.0386 81.2458C93.197 82.4223 94.6543 83.0603 96.1664 83.0473C97.6278 83.0254 98.9761 82.3899 100.037 81.2395C98.9799 80.2842 97.5412 79.732 96.0414 79.732C94.5358 79.732 93.0958 80.2862 92.0386 81.2458ZM96.0886 85.3503C93.5149 85.3503 91.0818 84.0907 89.3976 81.8809L88.8848 81.2081L89.4091 80.5429C90.946 78.5934 93.4253 77.4296 96.0414 77.4296C98.6365 77.4296 101.104 78.5786 102.642 80.5033L103.157 81.1474L102.681 81.8164C101.113 84.0235 98.7533 85.3112 96.2072 85.3494C96.1677 85.35 96.128 85.3503 96.0886 85.3503Z" fill="#000072"/>
<path fill-rule="evenodd" clip-rule="evenodd" d="M143.216 43.1553C135.19 30.9379 125.568 22.6663 114.348 18.3417C136.356 -10.0673 145.979 -1.79617 143.216 43.1553Z" fill="#FF850B"/>
<path d="M116.264 17.8586C126.114 21.9999 134.809 29.2591 142.165 39.479C143.507 11.7811 139.429 4.40985 135.677 3.19439C132.814 2.26748 127.137 4.11074 116.264 17.8586ZM144.233 46.9309L142.144 43.7514C134.295 31.8036 124.78 23.6119 113.862 19.4038L112.418 18.8471L113.327 17.673C123.395 4.678 130.975 -0.770489 136.506 1.02242C143.562 3.3087 146.09 16.7174 144.461 43.2205L144.233 46.9309Z" fill="#000072"/>
<path fill-rule="evenodd" clip-rule="evenodd" d="M112.433 44.6421C114.284 43.943 116.15 44.1964 116.601 45.2083C117.051 46.2202 115.915 47.6077 114.065 48.3073C112.214 49.0064 110.348 48.7526 109.897 47.7407C109.447 46.7288 110.583 45.3412 112.433 44.6421Z" fill="white"/>
<path fill-rule="evenodd" clip-rule="evenodd" d="M80.188 44.5742C78.3369 43.8746 76.4709 44.1285 76.0205 45.1403C75.57 46.1522 76.7053 47.5397 78.5563 48.2388C80.4069 48.9379 82.2729 48.6845 82.7234 47.6727C83.1737 46.6608 82.0385 45.2732 80.188 44.5742Z" fill="white"/>
<path fill-rule="evenodd" clip-rule="evenodd" d="M73.799 57.124C72.8914 57.124 72.1562 57.8459 72.1562 58.7359C72.1562 59.6261 72.8914 60.3479 73.799 60.3479C74.7062 60.3479 75.4413 59.6261 75.4413 58.7359C75.4413 57.8459 74.7062 57.124 73.799 57.124Z" fill="white"/>
<path fill-rule="evenodd" clip-rule="evenodd" d="M49.4312 43.7375C57.4565 31.5197 67.0792 23.2485 78.2991 18.9235C56.2904 -9.4856 46.6677 -1.21397 49.4312 43.7375Z" fill="#FF850B"/>
<path d="M58.3034 3.57494C57.801 3.57494 57.3578 3.64985 56.9669 3.77658C53.2155 4.9921 49.1372 12.3631 50.4794 40.0611C57.8351 29.8415 66.5295 22.5823 76.38 18.4405C66.9913 6.57023 61.4768 3.57494 58.3034 3.57494ZM48.4114 47.5137L48.1832 43.8028C46.554 17.2996 49.0815 3.89096 56.1376 1.60448C61.6657 -0.186249 69.2479 5.25911 79.316 18.255L80.2256 19.429L78.7811 19.9858C67.8631 24.1944 58.3479 32.3863 50.5001 44.3338L48.4114 47.5137Z" fill="#000072"/>
<g opacity="0.649994">
<g opacity="0.649994">
<path opacity="0.649994" fill-rule="evenodd" clip-rule="evenodd" d="M75.548 20.0825C76.4561 19.6689 77.3758 19.283 78.3061 18.9238C64.6657 1.3165 55.7854 -2.19428 51.6602 8.37734C56.0533 0.943516 64.0152 4.84471 75.5465 20.0816L75.548 20.0825Z" fill="white"/>
</g>
</g>
<path fill-rule="evenodd" clip-rule="evenodd" d="M55.4396 35.4556C59.3518 30.9982 63.7857 27.1398 68.7416 23.8816C57.6321 3.9526 53.1978 7.81045 55.4396 35.4556Z" fill="#000072"/>
<path d="M58.2981 12.5112C58.2434 12.5112 58.2061 12.5179 58.1843 12.5235C58.0505 12.5583 56.8632 13.009 56.355 18.0846C56.0127 21.5044 56.0532 26.3605 56.4739 32.5454C59.7042 29.1788 63.2777 26.1576 67.1369 23.5323C61.2912 13.2398 58.8663 12.5112 58.2981 12.5112ZM54.4277 38.439L54.193 35.5416C52.4871 14.5054 54.9107 10.9808 57.5068 10.3073C60.6113 9.49993 64.305 13.4039 69.8529 23.356L70.3464 24.2411L69.4671 24.819C64.6281 28.0002 60.2353 31.8225 56.4108 36.1797L54.4277 38.439Z" fill="#000072"/>
<g opacity="0.300003">
<g opacity="0.300003">
<path opacity="0.300003" fill-rule="evenodd" clip-rule="evenodd" d="M56.8809 12.0241C52.8267 14.817 50.2081 22.3734 49.0254 34.6926C49.0966 37.5216 49.2308 40.5362 49.4274 43.7378C50.027 42.7389 50.6609 41.7516 51.3307 40.7799L51.2838 41.0221C54.5223 36.4718 58.0059 32.527 61.7335 29.1871C59.5537 31.081 57.4998 33.1199 55.5713 35.3034C55.5335 35.3462 55.4957 35.3886 55.458 35.4323C55.4546 35.4358 55.4512 35.4398 55.4473 35.4448C55.4439 35.4484 55.4411 35.452 55.4376 35.4555C54.3513 22.0607 54.8327 14.2504 56.8809 12.0241ZM135.758 11.4419C139.812 14.2352 142.431 21.7912 143.613 34.1103C143.542 36.9393 143.408 39.9544 143.212 43.1556C142.612 42.1567 141.978 41.1698 141.308 40.1976L141.355 40.4399C138.117 35.8896 134.633 31.9447 130.905 28.6053C133.085 30.4992 135.139 32.5381 137.067 34.7216C137.105 34.764 137.143 34.8068 137.181 34.8501C137.184 34.8541 137.187 34.8581 137.191 34.8625C137.195 34.8666 137.198 34.8697 137.201 34.8737C138.288 21.4789 137.806 13.6681 135.758 11.4419Z" fill="#000072"/>
</g>
</g>
<g opacity="0.649994">
<g opacity="0.649994">
<path opacity="0.649994" fill-rule="evenodd" clip-rule="evenodd" d="M117.108 19.5C116.2 19.0864 115.28 18.7005 114.35 18.3418C127.99 0.734411 136.871 -2.77682 140.996 7.79481C136.603 0.360977 128.64 4.26256 117.109 19.4996L117.108 19.5Z" fill="white"/>
</g>
</g>
<path fill-rule="evenodd" clip-rule="evenodd" d="M137.202 34.8735C133.29 30.4156 128.856 26.5572 123.9 23.299C135.01 3.36989 139.445 7.22816 137.202 34.8735Z" fill="#000072"/>
<path d="M125.504 22.9494C129.364 25.5752 132.938 28.5968 136.167 31.9629C136.588 25.7778 136.628 20.9219 136.286 17.5019C135.778 12.4262 134.591 11.9754 134.457 11.9408C134.21 11.8777 131.913 11.6652 125.504 22.9494ZM138.213 37.8569L136.23 35.5974C132.407 31.2407 128.014 27.4182 123.174 24.2362L122.295 23.6583L122.788 22.7732C128.336 12.8218 132.026 8.918 135.135 9.72459C137.73 10.398 140.154 13.9227 138.448 34.9593L138.213 37.8569Z" fill="#000072"/>
<path d="M58.3039 3.57493C57.8015 3.57493 57.3583 3.64984 56.9674 3.77658C53.216 4.9921 49.1374 12.3633 50.4796 40.0612C57.8356 29.8414 66.53 22.5821 76.3805 18.4405C66.9919 6.57022 61.4774 3.57493 58.3039 3.57493ZM48.4112 47.5134L48.183 43.8027C46.5541 17.2996 49.082 3.89076 56.1381 1.60448C61.6662 -0.186245 69.2484 5.2591 79.3166 18.2549L80.2261 19.429L78.7817 19.9857C67.8637 24.1943 58.3484 32.3862 50.5 44.3337L48.4112 47.5134Z" fill="#000072"/>
<path d="M96.9838 16.3719C67.4953 16.3719 43.7496 43.8227 43.7496 66.5508C43.7496 72.4609 46.6653 78.0187 52.4162 83.0699C65.2259 94.3213 88.5974 99.8134 96.3249 99.8141C96.5371 99.8141 96.7361 99.81 96.9244 99.8017C102.523 99.5558 115.421 96.9015 126.567 91.7709C136.368 87.2597 148.05 79.3427 148.05 67.2449C148.05 43.7191 125.743 16.3719 96.9838 16.3719ZM96.3564 102.116C88.0669 102.116 64.1768 96.581 50.6916 84.7364C44.4269 79.2336 41.25 73.1151 41.25 66.5508C41.25 54.7012 47.4132 41.4955 57.7365 31.2259C68.6966 20.3228 83.0016 14.0695 96.9838 14.0695C111.053 14.0695 124.617 20.2969 135.177 31.6046C144.803 41.9112 150.55 55.2346 150.55 67.2449C150.55 77.7519 142.643 86.9451 127.684 93.8306C116.213 99.1109 102.861 101.846 97.0432 102.102C96.8286 102.111 96.5986 102.116 96.3564 102.116Z" fill="#000072"/>
<g opacity="0.559998">
<g opacity="0.559998">
<path opacity="0.559998" fill-rule="evenodd" clip-rule="evenodd" d="M98.2575 61.7896C99.35 62.055 100.158 62.5387 100.063 62.8706C99.9685 63.202 99.0062 63.2561 97.9136 62.9906C96.821 62.7256 96.0122 62.2415 96.1072 61.9096C96.2021 61.5781 97.1649 61.5241 98.2575 61.7896Z" fill="white"/>
</g>
</g>
<path d="M69.3516 49.2366C71.3701 51.7061 73.3544 53.6157 75.3041 54.9653C78.1728 56.9507 81.2776 57.2982 81.6215 55.1116C80.0784 54.9488 78.4706 54.288 76.7978 53.1307C72.6763 50.2771 71.3871 48.4398 69.3516 49.2366Z" fill="#000072"/>
<path d="M116.264 17.8586C126.114 21.9999 134.809 29.2591 142.165 39.479C143.507 11.7811 139.429 4.40985 135.677 3.19439C132.814 2.26748 127.137 4.11074 116.264 17.8586ZM144.233 46.9309L142.144 43.7514C134.295 31.8036 124.78 23.6119 113.862 19.4038L112.418 18.8471L113.327 17.673C123.395 4.678 130.975 -0.770489 136.506 1.02242C143.562 3.3087 146.09 16.7174 144.461 43.2205L144.233 46.9309Z" fill="#000072"/>
</svg>
