<svg width="35" height="35" viewBox="0 0 35 35" fill="none" xmlns="http://www.w3.org/2000/svg">
<path d="M17.5 0C7.8506 0 0 7.85144 0 17.5C0 27.1637 7.8363 35 17.5 35C27.1494 35 35 27.1494 35 17.5C35 7.83546 27.1645 0 17.5 0ZM17.5 26.3341C15.4025 26.3341 13.3909 25.5009 11.9077 24.0177C10.4246 22.5346 9.59135 20.523 9.59135 18.4255C9.59135 16.328 10.4246 14.3164 11.9077 12.8332C13.3909 11.3501 15.4025 10.5168 17.5 10.5168H17.8542L16.6671 9.33053C16.4462 9.10962 16.3221 8.81001 16.3221 8.4976C16.3221 8.18519 16.4462 7.88557 16.6671 7.66466C16.888 7.44376 17.1876 7.31965 17.5 7.31965C17.8124 7.31965 18.112 7.44376 18.3329 7.66466L21.6983 11.03C21.8077 11.1394 21.8945 11.2693 21.9537 11.4122C22.0129 11.5551 22.0434 11.7083 22.0434 11.863C22.0434 12.0177 22.0129 12.1708 21.9537 12.3138C21.8945 12.4567 21.8077 12.5865 21.6983 12.6959L18.3329 16.0613C18.112 16.2822 17.8124 16.4063 17.5 16.4063C17.1876 16.4063 16.888 16.2822 16.6671 16.0613C16.4462 15.8404 16.3221 15.5408 16.3221 15.2284C16.3221 14.916 16.4462 14.6163 16.6671 14.3954L18.1815 12.881C17.9813 12.8726 17.7524 12.8726 17.5 12.8726C16.4017 12.8726 15.3282 13.1983 14.415 13.8084C13.5018 14.4186 12.7901 15.2858 12.3698 16.3005C11.9495 17.3151 11.8396 18.4316 12.0538 19.5088C12.2681 20.5859 12.7969 21.5754 13.5735 22.352C14.3501 23.1285 15.3395 23.6574 16.4167 23.8717C17.4938 24.0859 18.6103 23.976 19.625 23.5557C20.6397 23.1354 21.5069 22.4237 22.1171 21.5105C22.7272 20.5973 23.0529 19.5237 23.0529 18.4255C23.0529 18.1131 23.177 17.8135 23.3979 17.5926C23.6188 17.3717 23.9184 17.2476 24.2308 17.2476C24.5432 17.2476 24.8428 17.3717 25.0637 17.5926C25.2846 17.8135 25.4087 18.1131 25.4087 18.4255C25.4062 20.5222 24.5722 22.5324 23.0896 24.015C21.6069 25.4977 19.5968 26.3317 17.5 26.3341Z" fill="white"/>
</svg>
