<svg width="108" height="108" viewBox="0 0 108 108" fill="none" xmlns="http://www.w3.org/2000/svg">
<rect width="108" height="108" rx="15" fill="#E11D2E"/>
<path d="M77.6918 36.3869C77.6918 36.3869 83.0198 34.4899 82.5741 39.0966C82.4274 40.9936 81.0957 47.6338 80.0589 54.8149L76.5069 76.0891C76.5069 76.0891 76.2107 79.2057 73.546 79.7479C70.8827 80.2888 66.8864 77.8509 66.1458 77.3087C65.5534 76.9017 55.0455 70.8037 51.3454 67.8236C50.3086 67.0097 49.1237 65.3844 51.4936 63.4874L67.0331 49.9365C68.8091 48.3112 70.5851 44.5172 63.1849 49.1239L42.4627 61.9961C42.4627 61.9961 40.0943 63.3521 35.655 62.1325L26.0331 59.4216C26.0331 59.4216 22.4811 57.3894 28.5496 55.3571C43.3514 48.9886 61.557 42.4849 77.6891 36.3869H77.6918Z" fill="white"/>
</svg>
