<svg width="108" height="109" viewBox="0 0 108 109" fill="none" xmlns="http://www.w3.org/2000/svg">
<path d="M0 15.0088C0 6.72452 6.71573 0.00878906 15 0.00878906H93C101.284 0.00878906 108 6.72452 108 15.0088V93.0088C108 101.293 101.284 108.009 93 108.009H15C6.71573 108.009 0 101.293 0 93.0088V15.0088Z" fill="#E11D2E"/>
<path d="M83.0002 41.199C80.8305 42.0775 78.4997 42.6711 76.0494 42.9394C78.5776 41.557 80.4691 39.3814 81.3709 36.8185C78.9956 38.1077 76.3958 39.0151 73.6848 39.5014C71.8617 37.7228 69.4469 36.5438 66.8154 36.1477C64.1838 35.7515 61.4828 36.1603 59.1316 37.3105C56.7804 38.4608 54.9105 40.2882 53.8124 42.5089C52.7142 44.7297 52.4492 47.2196 53.0584 49.5921C48.2453 49.3713 43.5368 48.2282 39.2385 46.237C34.9401 44.2458 31.148 41.4511 28.1083 38.0341C27.0689 39.6724 26.4713 41.5718 26.4713 43.5947C26.4701 45.4157 26.9609 47.2089 27.9001 48.8151C28.8393 50.4212 30.1978 51.7908 31.8552 52.8021C29.9331 52.7462 28.0534 52.2717 26.3725 51.4179V51.5604C26.3723 54.1145 27.3392 56.59 29.1091 58.5669C30.8791 60.5437 33.343 61.9002 36.0829 62.4061C34.2998 62.847 32.4303 62.912 30.6158 62.596C31.3888 64.7937 32.8946 66.7155 34.9223 68.0923C36.9501 69.4691 39.3982 70.2321 41.9241 70.2744C37.6363 73.3501 32.3408 75.0184 26.8896 75.0111C25.924 75.0114 24.9592 74.9598 24.0002 74.8568C29.5335 78.1076 35.9746 79.8329 42.553 79.8261C64.8215 79.8261 76.9952 62.9735 76.9952 48.3575C76.9952 47.8826 76.9822 47.403 76.9588 46.9281C79.3267 45.3634 81.3707 43.4258 82.995 41.2061L83.0002 41.199Z" fill="white"/>
</svg>
