<svg width="644" height="606" viewBox="0 0 644 606" fill="none" xmlns="http://www.w3.org/2000/svg">
<path opacity="0.03" fill-rule="evenodd" clip-rule="evenodd" d="M549.232 69.675C533.047 85.673 516.789 101.633 500.356 117.849C522.053 133.771 534.757 155.423 549.874 175.487C561.324 190.644 573.872 205.129 585.778 220.011C588.285 223.112 590.855 223.292 594.72 222.157C609.433 217.789 624.23 213.714 639.037 209.648C640.498 209.242 642.27 209.762 643.876 209.866L644 211.662C642.363 212.211 640.705 212.835 639.057 213.307C623.94 217.619 608.863 222.063 593.621 226.1C589.145 227.292 587.187 229.164 586.213 233.352C578.1 269.234 582.286 304.511 591.093 339.826C593.621 350.019 597.611 356.079 610.304 356.703C619.049 357.101 627.649 359.682 636.291 361.299C636.457 361.838 636.612 362.377 636.736 362.934C635.317 363.379 633.763 364.324 632.467 364.107C621.759 362.35 611.085 360.424 600.45 358.33C596.564 357.564 593.507 358.065 590.212 360.202C567.645 374.876 551.822 394.373 539.761 416.394C531.71 431.049 525.027 446.272 517.722 461.22C516.707 463.319 515.515 465.352 514.178 467.905C530.353 481.18 546.859 494.72 563.396 508.259C561.49 512.23 559.656 510.462 557.604 508.798C545.056 498.539 532.467 488.347 519.96 478.088C509.453 469.503 509.495 469.484 496.812 475.592C479.591 483.903 462.225 491.94 445.221 500.563C430.767 507.853 418.167 517.166 407.784 528.871C405.619 531.33 405.09 533.325 406.365 536.426C413.079 552.5 419.524 568.659 426.031 584.779C426.156 585.091 426.394 585.385 426.436 585.725C426.601 587.739 426.715 589.8 426.84 591.833C425.399 590.273 423.42 588.93 422.695 587.162C415.883 571.127 409.313 555.008 402.987 538.809C401.505 535.008 399.505 533.854 395.112 533.902C365.892 534.138 337.615 539.792 309.307 545.522C293.671 548.689 278.015 552.046 262.389 555.176C259.208 555.79 257.851 557.095 257.125 559.903C253.623 573.414 249.883 586.841 246.225 600.295C245.738 602.026 245.22 603.746 244.774 605.382C240.029 605.723 241.117 603.415 241.718 601.25C245.696 586.51 249.841 571.807 253.416 556.953C254.266 553.549 254.027 549.361 252.608 546.118C239.697 516.315 213.969 501.376 179.661 496.79C167.238 495.136 154.731 494.077 142.307 492.535C138.971 492.091 136.919 492.942 134.712 495.136C120.005 509.728 105.208 524.245 90.3229 538.686C89.152 539.764 87.1833 540.189 85.6187 540.917C85.2146 540.359 84.769 539.82 84.3649 539.263C101.296 522.565 118.258 505.877 135.676 488.687C132.184 485.009 128.879 481.331 125.314 477.871C113.253 466.487 100.871 455.405 89.0484 443.794C70.5942 425.669 64.4394 415.911 51.2593 386.081C48.8036 386.723 46.2339 387.338 43.7056 388.066C31.0436 391.659 18.3713 395.318 5.70929 398.798C4.10323 399.261 2.13451 398.76 0.36266 398.684C1.8133 397.606 3.09815 396.065 4.74566 395.555C18.4127 391.479 32.0902 387.48 45.8816 383.736C49.705 382.714 51.4769 380.871 52.4716 377.467C59.5486 353.725 58.1809 330.002 52.3162 306.393C48.4202 290.764 43.5916 275.352 38.8045 259.94C38.2865 258.333 35.551 256.546 33.4786 256.13C22.5678 253.813 11.5015 251.95 0.486999 249.927L0 248.31C1.40919 247.894 2.93236 246.949 4.22757 247.138C12.2268 248.386 20.226 249.596 28.1113 251.393C33.0227 252.527 36.1105 251.686 39.8096 248.272C59.673 229.835 75.1534 208.977 85.3286 185.037C93.2138 166.524 97.5139 147.339 98.7988 127.635C98.9127 125.394 97.545 122.501 95.7835 120.846C84.3649 110.077 72.6251 99.5625 60.8335 88.8121C62.1598 86.0417 63.8073 87.2142 65.8175 88.9917C76.9563 98.8818 88.0951 108.791 99.3894 118.511C100.757 119.683 103.254 120.827 104.933 120.543C143.934 113.887 180.252 101.699 210.757 78.1278C215.782 74.2607 220.207 69.7601 224.994 65.6755C227.605 63.4724 227.926 61.2126 226.921 58.1397C221.616 41.4988 216.559 24.7727 211.399 8.07497C211.161 7.29965 210.715 6.47706 210.757 5.69228C210.809 4.11328 211.088 2.55319 211.285 0.983643C212.363 2.15608 214.062 3.18668 214.508 4.52931C218.207 15.9416 221.699 27.4012 225.284 38.8135C227.056 44.5338 229.066 50.2258 230.558 55.984C231.397 59.3027 233.408 60.8817 236.785 62.1109C269.715 74.0432 303.37 74.185 337.46 67.453C346.464 65.6755 355.313 63.1793 364.234 61.2126C367.571 60.4941 369.032 59.0191 369.778 56.0029C373.881 39.5888 378.191 23.222 382.523 6.85526C382.927 5.49373 384.222 4.32129 385.092 3.07322C385.735 3.32851 386.346 3.60271 386.999 3.8769C386.792 5.25735 386.678 6.66616 386.356 8.01824C382.367 23.6097 378.285 39.1633 374.534 54.8399C374.088 56.816 374.772 59.8417 376.254 61.2977C408.064 92.197 447.47 109.916 493.994 114.974C495.838 115.173 498.532 113.915 499.9 112.592C514.448 98.5414 528.84 84.3398 543.274 70.2328C544.818 68.7578 546.372 65.874 549.273 69.675H549.232ZM138.629 485.794C146.514 478.069 154.027 470.836 161.269 463.395C162.233 462.402 162.399 459.982 161.756 458.658C158.898 452.217 155.773 445.878 152.389 439.653C139.044 415.174 121.097 393.9 96.8611 377.117C95.1722 375.964 92.6853 374.385 91.1518 374.791C79.3706 377.788 67.6619 381.249 55.7666 384.615C61.1962 402.419 69.9207 418.02 82.8625 431.304C100.799 449.694 119.657 467.319 138.629 485.794ZM583.571 225.126C571.344 209.61 559.49 194.728 547.916 179.628C537.813 166.457 528.488 152.776 518.002 139.803C512.375 132.816 505.091 126.888 498.087 120.052C489.082 128.892 480.969 136.731 473.115 144.815C472.286 145.694 472.732 148.228 473.498 149.58C478.804 158.827 484.026 168.121 489.808 177.142C503.868 198.992 521.659 217.997 544.849 232.634C546.362 233.589 548.672 234.761 550.154 234.373C561.448 231.471 572.649 228.209 583.571 225.126ZM259.457 551.923C306.375 543.451 351.22 530.318 399.423 530.129C395.599 520.712 392.221 511.89 388.315 503.191C387.177 501.073 385.193 499.432 382.771 498.606C369.861 494.861 356.567 495.013 343.324 496.923C317.949 500.591 294.552 509.725 270.917 518.121C270.197 518.404 269.549 518.821 269.016 519.345C268.482 519.869 268.075 520.489 267.819 521.166C264.969 531.065 262.4 540.993 259.457 551.923ZM40.6178 252.593C41.9856 253.312 42.5451 253.785 43.1979 253.917C53.6943 255.884 64.1285 257.86 74.6767 259.59C76.0445 259.808 78.1168 258.872 79.2151 257.898C111.067 229.721 127.552 195.324 130.879 155.641C130.961 154.213 131.158 152.209 130.278 151.405C121.75 143.529 112.994 135.861 103.379 127.313C99.0371 176.47 79.3809 218.281 40.5868 252.593H40.6178ZM106.974 124.155C115.543 132.098 123.656 139.709 131.987 147.16C132.909 148.001 135.085 148.294 136.495 148.058C170.875 142.082 202.799 131.237 229.128 109.717C240.184 100.688 240.143 100.64 236.205 88.084C233.981 80.9922 231.743 73.904 229.491 66.8195C196.074 99.7611 153.591 115.296 106.974 124.117V124.155ZM94.3432 369.666C106.684 366.168 118.103 363.01 129.449 359.521C130.899 359.086 132.381 356.987 132.671 355.484C133.997 348.496 135.448 341.5 135.811 334.465C136.66 317.73 130.982 301.921 127.169 285.771C124.682 275.352 119.937 269.735 107.513 269.111C99.2339 268.714 91.0689 266.417 82.3029 264.857C83.4531 300.304 96.4363 333.803 94.3432 369.619V369.666ZM582.897 229.154C572.411 232.085 563.003 234.95 553.428 237.314C549.097 238.373 547.315 240.34 546.424 244.263C539.316 275.673 543.17 306.487 551.221 337.302C553.024 344.166 556.195 347.211 563.966 348.043C572.608 348.941 581.125 350.964 589.042 352.354C585.436 331.818 581.25 311.773 578.556 291.558C575.872 271.012 577.872 250.466 582.897 229.154ZM511.215 465.305C529.793 424.194 547.242 383.669 588.969 356.25C577.229 354.084 566.785 352.014 556.247 350.302C554.61 350.028 552.154 350.86 550.828 351.919C543.119 358.046 534.985 363.88 528.218 370.754C514.189 385.031 504.905 401.965 496.75 419.353C492.885 427.503 489.186 435.72 485.28 444.21L511.215 465.305ZM81.8263 260.857C95.2136 263.315 107.44 265.622 119.74 267.646C121.066 267.863 123.076 266.587 124.247 265.518C148.815 243.233 161.922 216.295 164.575 185.207C164.699 183.703 164.533 181.633 163.528 180.659C154.721 172.253 145.716 164.075 136.754 155.839C136.225 156.009 135.666 156.189 135.189 156.369C131.22 196.572 114.6 231.612 81.8263 260.848V260.857ZM367.664 63.9263C322.601 76.3124 278.564 81.2102 233.449 64.7016C236.298 74.0054 239.075 82.0044 241.127 90.1642C242.246 94.7121 244.95 96.9529 249.686 98.617C285.548 111.145 321.099 107.297 356.608 97.4257C357.317 97.1542 357.956 96.7495 358.483 96.2381C359.009 95.7265 359.412 95.1196 359.665 94.4568C362.369 84.7275 364.815 74.932 367.664 63.9263ZM372.285 63.0848C369.591 73.5516 367.104 82.8176 364.897 92.1403C364.787 92.8952 364.849 93.6629 365.079 94.395C365.309 95.1272 365.702 95.8081 366.234 96.3951C392.687 122.444 425.368 137.998 464.37 142.867C466.069 143.065 468.514 143.065 469.488 142.167C477.477 134.717 485.176 127.03 493.776 118.633C445.605 112.875 405.515 94.9674 372.285 63.0848ZM468.514 149.032C459.873 157.475 451.739 165.304 443.905 173.322C443.139 174.125 443.48 176.404 444.144 177.633C447.076 183.136 450.174 188.545 453.428 193.943C465.25 213.61 479.923 231.225 500.273 244.557C501.952 245.663 504.438 247.147 506.024 246.741C518.168 243.62 530.146 240.103 543.564 236.302C508.158 213.79 486.564 183.042 468.514 149.032ZM137.645 151.707C143.955 157.466 149.664 162.789 155.498 167.999C167.041 178.267 167.082 178.305 182.915 174.617C207.721 168.802 230.361 159.338 248.815 142.905C251.302 140.664 252.11 138.726 251.022 135.53C248.287 127.843 246.111 120.014 243.666 112.232C242.94 109.85 242.06 107.467 240.972 104.328C212.425 131.455 176.76 144.257 137.645 151.698V151.707ZM542.994 240.358C531.524 243.573 521.276 246.656 510.852 249.294C506.78 250.343 504.946 252.083 504.055 255.884C497.942 282.68 501.485 308.993 509.298 335.042C509.723 336.564 512.272 338.238 514.199 338.673C520.955 340.214 527.856 341.244 534.736 342.492C539.326 343.296 543.865 344.138 549.284 345.093C539.129 310.307 534.29 276.222 542.994 240.33V240.358ZM547.688 348.988C545.73 348.468 544.548 348.071 543.378 347.854C533.969 346.104 524.654 344.175 515.163 342.842C512.469 342.464 508.925 343.079 506.666 344.459C496.139 350.832 487.217 358.954 481.145 368.806C471.25 384.927 462.442 401.568 453.2 417.944C463.22 426.142 472.141 433.413 481.995 441.44C497.662 406.617 512.562 372.323 547.688 348.988ZM97.3688 372.579C130.381 395.252 151.208 424.572 166.005 457.533C166.885 457.296 167.331 457.315 167.528 457.107C172.678 452.162 177.786 447.16 182.884 442.178C191.733 433.422 191.733 433.403 186.303 422.473C175.123 399.979 159.922 380.199 138.07 364.911C136.36 363.71 133.583 362.443 131.853 362.887C120.734 365.724 109.751 369.042 97.3688 372.579ZM358.069 100.886C319.917 111.154 282.729 114.795 244.526 100.593C248.142 112.317 251.364 122.898 254.742 133.431C254.981 134.149 256.027 134.821 256.877 135.161C286.148 146.517 315.814 145.042 345.573 136.92C346.992 136.523 348.951 135.53 349.241 134.48C352.246 123.673 354.981 112.781 358.069 100.886ZM464.95 146.791C444.89 143.822 426.394 139.047 409.049 130.982C391.848 122.945 376.969 112.157 362.949 99.0992L354.183 133.128C356.39 135.019 358.473 136.636 360.318 138.357C380.108 156.596 403.971 167.98 431.979 172.291C434.466 172.66 438.175 172.698 439.564 171.412C448.071 163.668 456.101 155.48 464.95 146.791ZM403.06 527.926C413.801 515.646 427.071 505.403 442.123 497.774C458.432 489.406 475.156 481.7 491.683 473.663C496.315 471.432 500.895 469.087 506.013 466.562C497.714 459.792 490.17 453.486 482.399 447.416C481.446 446.631 478.917 446.413 477.747 446.952C460.184 455.32 442.558 463.65 425.192 472.396C413.091 478.417 402.476 486.643 394.003 496.563C392.895 497.906 392.045 500.289 392.605 501.735C395.692 510.188 399.236 518.499 403.07 527.926H403.06ZM141.644 488.252C143.893 488.612 145.105 488.848 146.307 488.999C158.731 490.503 171.196 491.675 183.557 493.566C216.425 498.587 241.355 513.365 255.188 541.314C255.509 541.948 256.193 542.506 257.084 543.565C259.457 534.79 261.788 526.649 263.798 518.471C264.202 516.986 263.798 515.162 263.239 513.696C254.224 491.061 237.138 475.989 210.601 470.808C196.769 468.113 182.573 466.903 168.543 465.135C167.217 464.964 165.29 465.21 164.523 465.967C156.969 473.105 149.612 480.414 141.644 488.224V488.252ZM42.6487 257.472C55.1967 298.214 69.2265 337.784 55.7148 380.578C67.2163 377.297 77.5469 374.47 87.7635 371.321C88.8826 370.952 89.9706 368.787 89.9706 367.454C90.012 359.71 90.3747 351.91 89.3282 344.242C85.7948 318.268 81.7745 292.333 77.7852 266.388C77.578 265.301 76.1377 263.75 75.0083 263.523C64.6466 261.462 54.1813 259.637 42.6487 257.519V257.472ZM384.999 494.653C380.875 484.508 377.083 474.949 372.98 465.503C372.472 464.312 370.285 463.083 368.773 462.941C360.514 462.241 352.235 461.031 344.081 461.513C326.383 462.534 310.302 469.153 293.619 473.843C282.242 477.057 276.17 482.428 274.958 493.122C274.191 499.986 271.58 506.699 269.611 514.188C281.31 510.226 291.889 506.397 302.665 503.012C324.663 496.119 346.93 490.21 370.731 492.592C375.249 493.027 379.694 493.869 384.999 494.653ZM389.797 495.192C412.665 468.718 447.128 459.272 476.876 442.764C468.152 435.644 459.914 428.836 451.521 422.171C450.63 421.461 448.34 421.187 447.294 421.698C431.119 429.583 414.696 437.148 399.132 445.875C391.807 449.988 385.973 456.332 379.829 461.948C378.616 463.045 378.026 465.674 378.554 467.158C381.901 476.216 385.683 485.142 389.797 495.192ZM266.555 508.694C269.166 498.899 271.663 489.689 274.036 480.442C274.274 479.544 273.922 478.466 273.559 477.54C266.928 459.934 254.898 446.726 234.154 441.932C222.248 439.199 209.907 437.989 197.68 436.41C195.991 436.211 193.577 437.507 192.209 438.755C187.298 443.218 182.656 447.936 177.972 452.588C175.237 455.301 172.584 458.091 169.403 461.324C179.765 462.553 189.059 463.603 198.312 464.775C228.589 468.642 252.193 480.953 264.897 507.002C265.104 507.371 265.591 507.664 266.555 508.694ZM170.533 185.803L168.885 186.578C165.393 218.073 152.079 245.615 126.464 268.941C137.479 270.936 147.395 272.837 157.311 274.444C158.513 274.643 160.409 273.64 161.446 272.723C180.625 255.184 190.925 234.014 193.173 209.658C193.287 208.334 192.852 206.575 191.878 205.658C184.894 198.936 177.693 192.383 170.533 185.803ZM499.485 248.726C471.012 230.109 453.967 205.063 439.294 177.718C432.165 184.668 425.617 190.908 419.4 197.366C418.612 198.208 418.809 200.448 419.441 201.659C422.198 206.868 425.171 212.003 428.27 217.071C437.315 231.802 448.382 245.067 463.582 255.269C465.136 256.328 467.675 257.491 469.291 257.085C479.021 254.655 488.616 251.809 499.485 248.726ZM198.582 205.025C207.431 213.203 215.958 221.136 224.642 228.946C225.45 229.684 227.356 229.863 228.62 229.665C241.21 227.556 253.229 224.011 264.12 217.742C274.481 211.728 274.481 211.747 271.197 200.94L269.673 196.194C267.58 189.443 265.456 182.692 263.322 175.865C240.961 185.141 217.44 190.795 198.582 205.025ZM498.698 252.868C490.336 255.222 481.176 257.671 472.162 260.479C470.701 260.942 469.354 262.937 468.939 264.422C463.23 286.178 465.965 307.603 472.4 328.839C472.665 329.496 473.095 330.088 473.654 330.567C474.213 331.046 474.887 331.4 475.622 331.6C485.072 333.501 494.584 335.136 504.159 336.886C501.755 322.684 498.335 308.984 497.444 295.16C496.532 281.346 498.17 267.362 498.698 252.868ZM504.728 340.857C498.491 339.722 493.559 339.467 489.248 337.869C475.747 332.867 466.421 338.067 458.329 347.097C456.122 349.565 453.386 351.758 451.811 354.472C444.111 368.125 436.567 381.852 429.181 395.649C428.736 396.424 428.943 398.06 429.585 398.599C436.383 404.319 443.325 409.936 450.941 416.138C463.686 388 475.788 360.334 504.728 340.857ZM127.293 272.903C136.101 300.928 145.188 328.026 136.619 357.413C141.8 356.004 145.986 354.898 150.131 353.687C169.31 348.184 169.828 347.371 170.201 328.915C170.481 312.312 164.896 296.739 159.985 281.044C159.705 280.089 158.7 278.746 157.778 278.567C147.965 276.628 138.111 274.888 127.293 272.903ZM194.727 430.557C201.566 423.882 207.711 417.991 213.606 411.921C214.047 411.37 214.346 410.735 214.482 410.065C214.618 409.394 214.588 408.703 214.394 408.045C205.307 386.96 192.282 368.258 172.087 354.113C170.926 353.29 168.947 352.335 167.745 352.666C158.492 355.096 149.291 357.81 139.033 360.741C165.694 379.339 182.418 403.081 194.727 430.557ZM265.612 168.651C266.7 168.415 267.549 168.046 268.347 168.112C269.394 168.188 270.482 168.519 271.487 168.897C293.194 177.009 315.109 175.723 337.107 170.022C338.527 169.653 340.485 168.642 340.775 167.601C343.304 158.893 345.469 150.1 348.018 140.229C317.213 148.266 287.371 150.544 256.452 138.801C259.778 149.76 262.638 159.054 265.612 168.651ZM353.23 137.222L345.822 166.004C348.474 167.951 350.66 169.275 352.505 170.939C367.944 184.97 386.367 194.057 408.075 197.612C409.753 197.886 412.323 198.16 413.214 197.338C420.322 190.814 427.14 184.016 434.808 176.518C402.324 171.752 375.891 158.978 353.23 137.222ZM462.391 259.221C439.864 243.81 426.363 223.774 414.789 201.725C405.826 210.528 397.651 218.527 390.056 225.996L397.039 237.843C403.557 248.83 411.162 259.117 422.218 266.956C423.835 268.09 426.695 269.083 428.456 268.629C439.398 265.859 450.205 262.635 462.391 259.221ZM199.152 210.953C198.582 211.227 198.022 211.539 197.463 211.832C194.24 236.104 183.837 257.463 164.171 275.768C176.677 278.047 188.013 280.212 199.432 282.008C200.882 282.226 203.1 280.874 204.301 279.701C216.197 268.213 222.921 254.513 225.129 239.044C225.367 237.399 225.129 235.12 224.041 234.024C215.917 226.195 207.514 218.602 199.193 210.953H199.152ZM370.596 459.244C367.26 450.914 364.4 443.426 361.146 436.089C360.535 434.727 358.338 433.167 356.774 433.091C349.448 432.647 341.739 431.314 334.817 432.836C319.814 436.098 305.255 440.911 290.552 445.165C289.464 445.496 288.055 446.432 287.775 447.331C285.247 456.181 282.916 465.087 280.294 474.722C309.835 464.898 337.864 453.231 370.596 459.244ZM464.919 262.474C454.319 265.443 444.827 268.383 435.129 270.69C430.611 271.749 428.933 273.952 428.166 277.716C425.316 292.248 426.653 306.573 430.653 320.765C430.974 321.975 432.311 323.686 433.481 323.904C444.734 326.154 456.029 328.121 468.172 330.343C462.028 307.717 458.93 285.686 464.919 262.474ZM468.214 334.21C458.64 332.442 450.039 331.402 441.802 329.161C434.31 327.109 429.016 329.18 424.156 333.879C423.14 334.834 422.011 335.713 421.058 336.706C410.8 346.851 405.329 359.313 399.868 371.765C399.505 372.588 399.785 374.205 400.459 374.763C408.313 381.372 416.26 387.849 424.829 394.817C435.17 371.955 444.983 349.792 468.214 334.21ZM171.766 347.485C182.501 344.44 191.909 341.575 201.442 339.155C205.182 338.2 206.747 336.366 207.514 333.132C210.042 322.164 207.192 311.64 205.379 300.862C203.441 289.44 197.784 283.379 184.448 283.162C179.578 283.048 174.719 281.469 169.828 280.628C168.16 280.335 166.471 280.117 164.14 279.767C171.217 302.214 178.335 323.743 171.745 347.485H171.766ZM446.164 417.736C438.984 411.846 432.134 406.116 425.099 400.632C424.311 399.989 421.959 400.244 420.809 400.802C410.997 405.341 400.811 409.463 391.651 414.909C383.175 419.949 375.725 426.406 367.975 432.392C366.887 433.233 365.768 435.181 366.13 436.202C368.98 444.04 372.244 451.765 375.684 460.35C394.335 438.802 421.918 431.011 446.164 417.736ZM218.663 407.109C226.424 399.478 233.542 392.623 240.495 385.56C241.303 384.691 241.541 382.752 241.086 381.656C234.796 366.754 225.781 353.479 211.834 343.239C210.508 342.284 208.384 341.112 207.13 341.443C196.437 344.27 185.858 347.409 174.242 350.747C195.39 365.941 208.736 384.87 218.663 407.109ZM275.517 471.536C275.926 471.364 276.33 471.184 276.73 470.997C278.056 466.231 279.424 461.447 280.626 456.701C281.393 453.703 283.102 450.3 282.253 447.624C277.807 433.677 269.487 421.991 253.198 417.519C243.23 414.767 232.651 413.841 222.32 412.233C221.201 412.044 219.43 412.233 218.746 412.867C212.114 419.145 205.638 425.565 198.198 432.845C231.491 435.247 261.778 440.381 275.517 471.536ZM339.532 173.36C314.871 179.657 291.246 180.347 266.482 171.45L276.978 205.422C280.108 205.554 282.605 205.129 284.615 205.819C298.81 210.755 313.12 210.386 327.554 207.067C329.129 206.698 331.139 205.138 331.543 203.805C334.31 194.085 336.672 184.29 339.491 173.36H339.532ZM409.163 201.64C385.041 197.508 365.27 188.176 348.971 173.085C346.36 170.646 344.475 171.213 343.625 174.475C341.097 184.233 338.568 194.01 336.216 203.03C339.232 204.845 341.988 206.036 344.029 207.795C354.204 216.626 365.985 222.819 379.808 225.646C381.549 225.996 384.243 225.864 385.227 224.909C393.133 217.562 400.728 209.932 409.163 201.64ZM195.028 202.566C212 190.161 232.34 183.562 252.328 176.3C254.897 175.401 257.361 174.27 259.685 172.925C260.648 172.376 261.633 170.759 261.415 169.918C259.001 161.512 256.307 153.182 253.447 143.973C230.372 164.982 201.939 175.052 171.745 180.81C179.465 188.034 187.07 195.116 195.028 202.566ZM420.198 396.547C411.877 389.759 404.23 383.339 396.314 377.212C395.382 376.474 392.895 376.55 391.6 377.117C385.486 379.774 379.176 382.308 373.591 385.759C366.835 389.9 360.639 394.836 354.401 399.611C353.323 400.433 352.318 402.381 352.681 403.364C356.059 412.347 359.727 421.235 363.654 430.954C378.544 413.67 400.324 407.222 420.198 396.547ZM289.184 441.383C312.022 433.819 333.615 425.385 358.38 429.271C354.836 420.544 351.293 412.574 348.402 404.433C347.044 400.585 344.64 399.45 340.413 399.261C325.917 398.599 312.996 403.516 299.961 408.035C299.038 408.357 297.951 409.245 297.754 410.011C294.904 420.157 292.169 430.33 289.184 441.383ZM222.849 408.574C249.986 410.408 273.507 415.807 284.605 441.856C287.506 431.068 289.951 422.019 292.366 412.961C292.49 412.498 292.687 411.883 292.448 411.515C288.998 406.201 286.18 400.301 281.755 395.677C273.113 386.676 260.524 385.939 248.38 384.889C247.499 384.795 246.287 385.608 245.603 386.279C238.371 393.276 231.211 400.358 222.849 408.574ZM369.798 245.928L374.472 251.875C380.585 259.656 386.533 267.542 392.822 275.191C393.817 276.382 396.47 277.593 397.858 277.224C405.267 275.503 412.489 273.262 419.659 271.21C413.628 264.932 407.515 259.429 402.583 253.161C397.589 246.882 393.775 239.876 389.506 233.125C387.849 230.45 386.129 229.825 383.642 232.322C378.969 236.955 374.233 241.578 369.798 245.928ZM427.192 326.721C419.628 325.331 413.556 324.008 407.401 323.242C404.97 322.988 402.516 323.491 400.438 324.67C388.698 332.149 383.839 343.674 378.886 355.087C378.585 355.853 379.124 357.394 379.901 358.008C384.802 362.206 389.838 366.244 395.382 370.754C402.966 354.387 410.012 338.351 427.192 326.721ZM424.726 273.792C417.379 275.862 410.986 277.385 404.873 279.531C403.815 279.961 402.866 280.585 402.083 281.365C401.301 282.144 400.702 283.061 400.324 284.06C397.433 294.498 398.324 304.975 401.174 315.337C401.495 316.453 402.469 318.127 403.422 318.325C410.831 319.904 418.302 321.171 426.549 322.712C422.239 306.232 420.478 290.622 424.726 273.792ZM231.211 238.921L229.315 240.028C226.703 256.356 219.264 270.738 206.477 283.426C214.56 284.93 221.554 286.414 228.631 287.36C230.32 287.577 232.848 286.424 234.06 285.176C241.543 277.674 246.315 268.253 247.727 258.191C247.935 256.867 247.644 255.09 246.764 254.191C241.749 248.972 236.443 243.98 231.211 238.921ZM205.4 287.095C210.301 303.462 215.648 319.148 211.109 336.205C217.989 334.267 223.688 332.451 229.522 331.09C233.387 330.191 234.786 328.187 235.314 324.887C237.086 313.919 233.625 303.679 230.289 293.411C230.009 292.456 228.392 291.359 227.232 291.113C220.393 289.733 213.565 288.561 205.4 287.095ZM245.365 380.823C250.629 375.652 255.177 371.274 259.478 366.839C260.244 366.055 260.731 364.343 260.327 363.417C255.623 352.354 249.188 342.266 238.775 334.645C237.687 333.841 235.677 333.283 234.392 333.624C227.719 335.316 221.129 337.33 213.565 339.495C228.641 350.718 238.288 364.513 245.406 380.823H245.365ZM329.709 211.18C321.482 211.918 313.959 213.307 306.561 213.014C298.924 212.702 291.402 210.632 283.765 209.525C280.387 209.043 278.854 210.915 279.641 213.705C281.517 220.2 283.641 226.658 285.216 231.66C289.236 231.858 292.252 231.527 294.863 232.265C303.381 234.648 312.438 234.938 321.119 233.106C322.539 232.813 324.414 231.414 324.787 230.204C326.621 224.048 328.072 217.751 329.709 211.199V211.18ZM230.568 233.314C236.475 238.874 241.946 244.084 247.572 249.218C248.059 249.615 249.302 249.615 250.111 249.473C260.472 247.752 270.533 245.001 279.144 239.271C280.47 238.411 281.838 236.245 281.558 235.016C279.869 228.511 277.693 222.101 275.445 214.896C262.089 225.003 246.857 230.024 230.568 233.314ZM329.626 229.23C333.004 231.045 335.512 232.445 338.03 233.797C345.231 237.645 352.36 241.578 359.685 245.275C360.877 245.88 363.488 246.079 364.224 245.426C369.685 240.51 374.865 235.338 380.43 229.92C359.499 223.793 356.432 222.29 340.827 210.131C337.812 207.776 335.284 207.814 334.227 211.36C332.299 217.676 330.921 224.115 329.626 229.23ZM391.154 372.843C385.652 368.343 380.999 364.419 376.119 360.665C375.207 359.947 373.228 359.219 372.441 359.597C362.67 364.372 351.8 367.804 344.816 376.276C344.008 377.268 342.713 378.724 343.034 379.566C345.138 385.419 347.583 391.167 350.277 397.862C361.364 385.315 376.762 380.379 391.154 372.843ZM250.587 381.41C270.616 382.696 286.211 388.217 293.93 405.227C296.179 398.949 297.826 392.964 299.401 386.95C299.567 386.345 299.639 385.56 299.318 385.078C297.391 382.251 295.256 379.538 293.371 376.71C287.661 368.201 278.294 366.31 268.243 365.667C267.363 365.61 266.109 366.253 265.435 366.915C260.804 371.321 256.265 375.831 250.587 381.41ZM344.775 395.791C342.506 390.212 340.257 385.371 338.62 380.379C337.449 376.937 335.325 375.132 331.419 375.945C323.378 377.628 315.42 379.556 307.463 381.485C306.54 381.712 305.328 382.582 305.131 383.329C303.162 389.919 301.391 396.557 299.298 404.149C314.529 398.949 328.528 394.25 344.775 395.791ZM389.444 279.796C382.927 270.662 376.616 261.869 370.379 253.066C368.7 250.683 366.41 249.71 364.068 251.742C359.095 256.243 354.494 261.046 350.526 264.951C352.857 267.372 354.65 268.989 356.069 270.842C359.292 275.002 362.183 279.427 365.602 283.445C366.514 284.514 369.187 285.28 370.659 284.911C377.217 283.389 383.652 281.403 389.444 279.796ZM397.92 321.436C390.17 319.989 383.735 318.722 377.259 317.682C376.202 317.493 374.814 318.098 373.798 318.703C365.726 323.582 362.224 331.213 358.919 338.956C358.639 339.618 359.126 340.942 359.727 341.49C364.462 345.518 369.301 349.423 374.637 353.829C380.15 341.594 385.538 330.229 397.92 321.436ZM395.392 317.039V282.169C388.263 284.145 381.486 286.027 374.772 288.003C374.088 288.192 373.239 289.081 373.239 289.686C373.114 296.692 372.959 303.736 373.239 310.752C373.28 311.735 375.508 313.21 376.938 313.541C383.165 314.912 389.527 315.952 395.392 317.039ZM241.075 327.09C262.659 321.861 265.239 325.086 259.643 302.157C259.364 301.041 259.125 299.85 258.524 298.857C257.996 297.921 257.156 296.673 256.193 296.474C249.354 295.047 242.443 293.846 236.122 292.692C237.863 304.615 239.469 315.914 241.075 327.09ZM265.684 360.892C270.026 356.628 274.813 351.948 280.481 346.369C275.859 340.242 271.311 333.964 266.482 327.913C265.56 326.778 263.228 325.568 262.016 325.842C255.385 327.421 248.909 329.454 243.407 331.033C250.888 341.055 258.162 350.775 265.684 360.892ZM323.181 236.747C312.125 238.723 302.147 238.354 292.262 235.565C291.257 235.309 287.641 238.278 287.879 239.252C289.444 245.871 291.702 252.366 294.034 259.836C296.966 256.026 299.546 255.6 303.287 256.81C306.623 257.869 310.53 257.945 314.146 257.831C315.638 257.756 317.876 256.29 318.28 255.061C320.125 249.407 321.409 243.592 323.181 236.747ZM323.14 254.465C326.808 256.158 329.543 257.274 332.072 258.626C335.211 260.337 338.102 262.408 341.356 263.93C342.464 264.469 344.879 264.412 345.645 263.713C350.567 259.306 355.137 254.655 360.017 249.918C354.857 247.733 350.205 246.173 346.049 243.857C341.843 241.55 338.216 238.392 334.185 235.801C331.087 233.834 328.393 234.515 327.43 237.834C325.72 243.724 324.383 249.681 323.14 254.465ZM238.34 289.137C241.272 289.686 245.023 290.423 248.701 291.104C261.653 293.506 263.736 292.447 268.202 281.072C268.72 279.682 269.29 278.245 269.445 276.798C269.57 275.749 269.404 274.321 268.72 273.631C263.653 268.695 258.472 263.911 253.768 259.524C248.463 269.735 243.51 279.162 238.288 289.137H238.34ZM340.05 372.72C350.194 366.83 359.799 361.27 369.798 355.436C365.063 351.588 360.39 347.702 355.53 344.034C354.722 343.41 352.557 343.296 351.707 343.816C346.081 347.163 340.661 350.699 335.273 354.302C334.465 354.841 333.615 356.287 333.854 357.016C335.823 362.405 338.05 367.757 340.05 372.72ZM253.126 253.785C258.172 258.389 263.374 263.183 268.679 267.892C269.207 268.327 270.368 268.629 271.052 268.44C276.481 266.937 281.911 265.452 287.174 263.542C288.262 263.145 289.464 260.904 289.184 259.798C287.62 253.766 285.589 247.819 283.879 242.41C273.518 246.249 263.415 249.993 253.126 253.785ZM299.971 379.651C300.458 379.594 300.893 379.538 301.339 379.462L306.447 360.627C304.395 358.992 302.986 358.216 302.137 357.138C300.769 355.427 299.971 353.271 298.479 351.673C295.101 348.024 287.257 345.821 284.812 347.986C280.025 352.165 275.642 356.732 270.337 361.932C284.574 363.218 294.78 368.21 299.971 379.651ZM334.589 371.066C333.014 367.104 331.491 362.736 329.45 358.576C328.517 356.779 326.269 353.895 325.108 354.075C320.591 354.775 314.011 355.38 312.364 358.074C309.069 363.436 308.499 370.149 306.737 376.606C316.415 374.687 325.264 372.947 334.589 371.066ZM362.297 287.256C358.629 281.989 355.499 277.186 352.039 272.525C349.935 269.622 347.096 268.506 343.925 271.428C340.91 274.255 338.061 277.262 335.201 280.117C337.408 281.441 339.812 282.245 341.024 283.786C347.055 291.529 346.93 291.624 357.116 288.797C358.836 288.296 360.556 287.766 362.297 287.256ZM353.81 336.564C358.753 329.463 363.343 322.845 368.203 315.82C363.53 315.233 357.416 312.737 353.81 314.458C349.376 316.529 346.36 321.871 344.153 326.343C343.511 327.686 347.531 330.967 349.614 333.208C350.919 334.56 352.598 335.628 353.81 336.564ZM269.29 323.592L283.6 343.145C287.174 339.628 290.552 336.262 293.889 333.009C291.36 329.17 289.226 325.539 286.532 322.23C285.61 321.058 283.154 319.999 281.662 320.254C277.455 320.982 273.352 322.438 269.29 323.592ZM267.114 320.037C268.844 319.592 270.782 319.101 272.668 318.552C282.926 315.631 283.486 314.865 280.709 305.655C280.097 303.679 278.74 300.975 276.968 300.37C272.782 298.942 268.161 298.555 263.612 297.77C264.824 305.324 265.912 312.397 267.114 320.037ZM367.757 311.801V290.026L352.028 294.357C351.945 296.115 351.945 297.401 351.79 298.687C350.64 308.709 350.598 308.709 361.644 310.799C363.613 311.149 365.592 311.451 367.757 311.801ZM316.415 262.465C310.986 261.746 306.24 260.63 301.577 260.772C299.484 260.81 295.629 263.561 295.785 264.753C296.386 269.301 298.313 273.688 299.277 276.808C303.546 276.411 306.634 276.278 309.618 275.721C311.027 275.446 313.089 274.605 313.483 273.593C314.768 270.047 315.451 266.322 316.415 262.465ZM349.749 339.571C338.216 329.813 339.895 326.75 326.352 338.814C327.958 342.615 329.637 346.501 331.294 350.435L349.749 339.571ZM340.661 268.79C336.268 265.953 332.548 262.975 328.238 260.999C326.538 260.224 322.01 261.094 321.523 262.171C319.751 266.303 319.078 270.813 318.384 273.688C323.088 275.522 326.663 276.884 330.766 278.425L340.661 268.79ZM290.677 342.067C296.552 346.161 301.898 349.858 307.929 354.065C309.172 349.716 310.54 345.102 311.462 341.793C309.048 339.703 307.162 338.569 306.033 336.99C302.934 332.621 300.769 332.29 296.821 336.063C294.583 338.238 292.324 340.431 290.677 342.067ZM274.72 277.772C271.342 284.05 268.73 288.854 265.871 294.13C270.616 294.99 275.238 296.181 279.869 296.408C281.475 296.522 283.807 294.432 284.688 292.834C285.496 291.454 285.454 288.892 284.491 287.681C281.714 284.259 278.294 281.29 274.72 277.772ZM291.36 266.559C285.444 268.535 280.139 270.312 274.792 272.137C274.357 272.78 273.911 273.442 273.424 274.104C276.004 275.721 278.771 277.073 281.02 278.945C287.009 283.994 286.884 284.079 295.495 280.193L291.36 266.559ZM325.699 349.328C324.134 345.461 322.808 342.076 321.316 338.739C321.036 338.124 319.928 337.198 319.472 337.33C318.581 337.566 317.41 338.275 317.171 339.004C315.845 343.041 314.778 347.107 313.472 351.777L325.699 349.328ZM300.727 300.219C305.556 298.243 309.732 295.453 314.281 294.933C318.912 294.442 323.844 296.2 328.642 296.947C318.342 288.494 302.986 290.575 300.727 300.219ZM340.983 293.09L342.174 291.416C338.9 289.062 335.781 286.291 332.051 284.722C330.994 284.277 328.062 287.417 325.575 289.232C328.341 290.348 330.828 290.612 331.439 291.69C334.102 296.484 337.563 294.243 340.983 293.09ZM346.889 312.728C340.941 310.676 338.454 311.65 335.315 316.434C332.465 320.784 336.061 322.107 338.941 324.112C341.708 320.178 344.278 316.453 346.889 312.728ZM302.302 324.235C300.81 322.013 299.888 319.082 297.764 317.824C295.754 316.689 292.459 317.314 288.397 317.077C290.801 320.33 292.179 322.022 293.381 323.809C297.391 329.87 297.515 329.889 302.302 324.235ZM286.822 314.269C290.397 313.191 294.655 313.73 294.096 308.596C293.578 303.481 290.677 301.571 284.967 302.091C285.568 306.015 286.169 309.835 286.822 314.269ZM338.734 298.016C340.288 307.452 340.288 307.452 347.376 307.149C346.847 303.698 346.36 300.285 345.873 296.881C343.469 297.269 341.066 297.656 338.734 298.016ZM312.519 281.365C311.794 280.543 311.068 279.72 310.312 278.926C307.618 280.004 303.877 280.486 302.551 282.339C301.391 284.013 302.831 287.18 303.152 289.695C303.877 289.846 304.644 289.988 305.359 290.121C307.773 287.199 310.146 284.258 312.519 281.365ZM321.699 327.629C322.881 329.577 323.886 331.345 325.057 333.245L334.341 327.383C330.03 320.216 326.145 324.707 321.699 327.629ZM314.488 286.244L316.425 287.974C319.917 286.358 323.461 284.75 326.953 283.114C326.787 282.311 326.59 281.517 326.435 280.713C323.813 280.382 320.601 279.068 318.798 279.975C316.695 281.034 315.845 284.06 314.488 286.244ZM315.203 329.095C312.25 327.96 310.022 327.081 307.286 326.022L303.784 329.577C306.758 331.525 309.338 333.17 311.866 334.824C313.079 332.773 314.249 330.73 315.203 329.095ZM298.645 292.957L297.122 284.372C294.707 285.327 293.018 285.97 290.573 286.925C293.298 288.958 295.184 290.385 298.645 292.957ZM295.464 299.302L296.189 297.76C294.345 296.049 292.49 294.328 290.241 292.201C289.081 294.508 288.314 296.068 287.309 298.016L295.464 299.302Z" fill="white"/>
</svg>
