<svg width="251" height="287" viewBox="0 0 251 287" fill="none" xmlns="http://www.w3.org/2000/svg">
<path fill-rule="evenodd" clip-rule="evenodd" d="M191.191 1.17711C194.804 0.507419 195.822 1.78682 198.219 2.0417C196.593 3.1212 193.566 2.9063 191.476 3.53601C190.972 3.03624 190.912 2.22162 191.191 1.17711Z" fill="#00783A"/>
<path fill-rule="evenodd" clip-rule="evenodd" d="M160.705 14.3854C159.583 16.1546 159.096 18.4584 156.326 18.7283C154.805 17.4289 157.766 17.0841 158.324 15.6898C156.419 16.7243 154.547 17.7937 151.493 17.7737C151.926 16.7443 151.11 16.6643 150.24 16.6393C149.999 15.0301 151.904 15.375 152.145 14.1855C155.226 14.2905 157.202 16.0596 160.705 14.3854Z" fill="#00783A"/>
<path fill-rule="evenodd" clip-rule="evenodd" d="M198.253 17.4243C197.47 18.6538 195.592 19.9482 194.383 18.7737C195.116 17.5343 196.999 16.2399 198.253 17.4243Z" fill="#00783A"/>
<path fill-rule="evenodd" clip-rule="evenodd" d="M209.85 28.7183C211.333 29.293 213.298 29.5429 214.574 30.2726C213.167 31.637 209.626 30.2926 209.85 28.7183Z" fill="#00783A"/>
<path fill-rule="evenodd" clip-rule="evenodd" d="M1.04177 38.7541C3.3516 38.7291 6.67952 37.9195 5.80922 40.3134C3.46654 40.3334 0.15505 41.1531 1.04177 38.7541Z" fill="#00783A"/>
<path fill-rule="evenodd" clip-rule="evenodd" d="M181.063 32.9771C181.38 35.3758 177.116 36.3104 178.069 33.7067C178.78 33.2119 179.815 32.992 181.063 32.9771Z" fill="#00783A"/>
<path fill-rule="evenodd" clip-rule="evenodd" d="M186.154 32.7513C187.95 32.7213 187.451 34.8902 186.34 35.6898C184.49 35.7148 184.988 33.5459 186.154 32.7513Z" fill="#00783A"/>
<path fill-rule="evenodd" clip-rule="evenodd" d="M37.6487 50.6875C36.5431 52.7015 34.9886 54.3057 31.918 54.5006C32.0931 51.647 35.2842 51.5371 37.6487 50.6875Z" fill="#00783A"/>
<path fill-rule="evenodd" clip-rule="evenodd" d="M176.57 57.4102C179.077 56.8954 179.055 58.2898 179.044 59.6642C176.532 60.1839 176.57 58.7846 176.57 57.4102Z" fill="#00783A"/>
<path fill-rule="evenodd" clip-rule="evenodd" d="M228.849 62.1274C232.243 62.0225 227.771 63.5368 227.727 64.5513C235.149 63.3618 232.051 67.9097 234.684 69.5489C232.03 69.359 231.531 68.9492 230.125 70.9332C228.548 70.9332 230.283 68.4244 230.059 67.3949C228.094 68.2745 223.945 69.6388 221.975 68.3445C222.478 64.6362 225.959 63.6517 228.849 62.1174" fill="#00783A"/>
<path fill-rule="evenodd" clip-rule="evenodd" d="M212.535 65.2456C213.531 64.0212 218.742 63.9512 217.39 66.2001C215.283 67.7244 213.942 65.7653 212.535 65.2456Z" fill="#00783A"/>
<path fill-rule="evenodd" clip-rule="evenodd" d="M184.215 70.6579C185.19 70.6529 186.159 70.5679 187.122 70.5229C187.27 72.7968 183.208 72.9767 184.215 70.6579Z" fill="#00783A"/>
<path fill-rule="evenodd" clip-rule="evenodd" d="M184.262 78.3391C183.638 81.0478 175.406 82.7519 171.58 84.8259C174.815 81.7574 180.42 80.8779 184.262 78.3391Z" fill="#00783A"/>
<path fill-rule="evenodd" clip-rule="evenodd" d="M179.015 130.59C177.219 131.029 175.555 131.599 173.136 131.444C172.162 128.236 167.542 127.786 163.946 126.546C162.069 126.771 164.767 127.531 163.53 128.93C162.501 127.991 162.069 126.596 159.605 126.746C166.639 122.114 176.519 126.856 179.015 130.59Z" fill="#00783A"/>
<path fill-rule="evenodd" clip-rule="evenodd" d="M190.909 132.413C188.671 133.842 184.932 133.917 181.254 134.042C181.643 130.024 189.103 131.504 190.909 132.413Z" fill="#00783A"/>
<path fill-rule="evenodd" clip-rule="evenodd" d="M170.492 133.933C172.205 133.658 173.256 133.903 174.017 134.368C173.951 135.897 168.718 136.652 170.492 133.933Z" fill="#00783A"/>
<path fill-rule="evenodd" clip-rule="evenodd" d="M203.888 140.099L206.05 140C205.552 141.399 204.759 142.503 203.954 143.643C201.053 142.788 205.355 141.999 203.888 140.099Z" fill="#00783A"/>
<path fill-rule="evenodd" clip-rule="evenodd" d="M150.572 282.589C151.289 282.549 152.023 282.509 152.74 282.484C153.107 283.569 153.583 284.618 153.561 286.008C151.952 285.303 150.917 284.209 150.572 282.589Z" fill="#00783A"/>
<path fill-rule="evenodd" clip-rule="evenodd" d="M180.186 9.96731C182.605 8.84786 179.529 4.14517 183.777 2.11616C185.244 2.0412 186.689 1.97623 188.117 1.91626C187.926 2.91077 187.756 3.91028 187.575 4.8948C187.964 6.49401 190.991 6.08421 193.043 6.41905C200.438 0.292054 202.507 11.0218 209.464 6.85883C209.032 8.07824 207.313 8.11822 206.88 9.33762C210.526 9.49254 213.596 10.0823 215.841 11.2967C216.07 13.1108 213.662 12.5311 213.865 14.3402C216.738 16.789 222.294 17.2387 225.928 19.1178C225.343 21.1518 222.737 21.2918 222.261 23.4207C218.512 23.5107 218.495 20.797 215.66 20.1823C214.582 20.817 212.868 20.867 212.458 22.1014C213.027 25.4297 217.428 25.8895 217.565 29.5527C217.258 31.3168 212.639 32.6562 216.092 33.7556C213.799 34.6102 211.44 31.0969 206.235 32.4213C205.413 27.2238 196.032 28.1084 191.385 27.1889C192.616 25.0599 196.59 25.4497 199.71 25.0349C200.487 24.5801 199.754 22.2663 201.806 21.3967C205.222 20.5221 205.348 23.6856 208.205 21.7016C209.01 19.5376 206.388 19.9774 204.209 20.0923C203.646 11.0518 188.686 11.2817 173.317 12.0413C168.801 9.3776 170.881 1.89127 179.414 2.30607C180.728 3.21062 180.558 5.21964 179.879 7.60347C178.664 3.61543 177.575 9.81738 180.17 9.96731H180.186ZM214.538 30.2673C213.263 29.5377 211.292 29.2928 209.814 28.7131C209.59 30.2923 213.131 31.6367 214.538 30.2673Z" fill="#00783A"/>
<path fill-rule="evenodd" clip-rule="evenodd" d="M79.72 21.0171C83.5242 20.7472 89.036 17.9636 92.9277 15.6847C100.569 16.8991 109.682 17.5587 117.635 18.1235C118.177 20.0076 115.216 18.6732 115.769 20.5673C119.972 22.4763 128.227 19.7177 129.349 24.6853C130.224 21.9716 132.397 20.4973 134.083 18.5583C132.452 18.1335 130.602 19.5428 133.257 19.183C132.337 20.9521 130.985 18.9381 129.633 19.3479C137.395 15.4898 144.352 24.2555 153.536 18.2734C155.353 18.0935 155.616 19.103 156.952 19.2979C159.201 18.5782 159.957 16.4943 161.331 14.96C161.648 13.1809 158.079 14.3403 157.324 13.3658C157.28 11.2468 158.687 10.4522 159.53 9.13786C166.651 8.21332 164.259 14.4653 166.706 17.084C169.541 17.109 169.404 14.4403 172.179 14.4653C173.865 15.5997 172.557 18.9731 174.018 20.2974C177.324 19.4028 179.18 17.1589 179.546 13.5407C182.71 13.2359 184.183 14.1604 185.737 15.04C183.537 17.5637 185.868 18.3634 185.398 20.9671C182.825 22.1115 180.472 23.4259 176.366 23.151C174.286 27.5589 185.244 26.3145 184.987 31.0422C180.083 28.2435 177.932 33.436 173.29 32.1616C172.316 30.9422 175.682 29.1781 175.107 26.1545C175.321 24.2855 170.006 25.0301 168.709 25.8697C168.835 27.289 171.183 27.0641 172.715 27.4639C165.841 31.367 156.968 34.5554 153.941 43.681C155.178 45.8199 160.061 45.2152 158.643 49.3682C165.633 49.9129 168.058 53.916 175.792 53.916C173.673 59.953 176.52 62.2519 180.466 63.7412C185.392 60.8276 184.615 52.7066 188.851 49.1833C186.279 44.4056 188.485 39.2481 190.948 33.7208C198.556 30.9672 201.26 35.6999 206.252 36.5744C206.619 38.7634 204.156 38.3536 204.134 40.2127C204.675 41.7169 205.447 43.0013 207.117 43.626C211.435 43.4561 214.528 39.0382 217.21 39.623C217.779 45.695 220.281 50.3077 227.248 51.5821C226.871 53.791 222.59 52.4517 222.333 54.7656C223.822 56.5047 226.871 53.851 229.597 54.4307C230.653 55.7901 230.85 57.7941 229.312 59.7681C219.613 63.4113 203.98 61.6022 199.421 69.9781C202.617 70.7777 205.732 65.5703 211.572 66.4748C211.572 68.3189 209.689 68.4539 207.615 68.4289C206.783 73.2265 213.253 70.7178 213.061 74.0911C216.088 74.0811 216.52 71.6823 219.262 71.4524C216.323 75.0007 210.724 76.1301 206.509 78.5339C206.865 75.8453 209.848 75.5504 211.616 74.1561C206.942 74.0911 194.736 76.8048 196.421 82.527C192.251 84.9458 186.542 86.0103 185.485 91.2927C184.298 90.8129 184.703 89.1587 183.044 89.0388C183.865 97.5296 175.436 101.982 168.884 107.415C169.015 111.778 170.247 115.291 170.247 119.759C165.731 120.993 166.53 114.082 165.359 111.118C162.141 110.438 158.747 109.929 153.969 110.453C152.327 111.628 153.367 112.637 153.312 114.022C147.034 112.367 139.595 112.327 134.888 116.64C131.385 126.236 130.197 138.63 144.538 134.517C145.791 133.577 146.207 131.863 146.755 130.284C148.895 129.454 150.75 128.385 153.607 128.205C155.096 131.643 150.126 134.592 150.192 138.984C151.079 141.073 157.193 139.194 159.289 140.349C158.358 145.511 156.317 151.498 160.608 152.703C164.976 152.168 169.59 150.929 170.466 154.032C173.854 149.584 176.388 148.585 181.293 145.861C182.809 146.836 177.729 150.189 181.024 151.198C183.383 150.069 183.778 147.225 185.628 145.671C188.654 148.19 193.767 149.119 200.921 148.515C202.596 158.045 220.954 154.992 221.583 165.312C219.832 167.665 216.909 168.95 215.398 171.498C217.648 173.078 221.386 167.076 223.806 168.76C223.472 171.229 219.481 170.349 218.814 172.528C221.89 174.612 224.758 170.579 227.199 169.784C233.313 173.912 245.962 173.098 250.013 178.795C248.967 185.502 243.954 188.57 239.646 192.278C237.785 200.299 235.639 208.071 230.16 212.793C222.142 213.363 217.839 217.291 212.913 220.664C212.048 228.815 203.055 241.819 192.36 238.741C190.307 240.64 194.889 241.929 194.15 244.563C192.075 247.751 186.717 247.941 182.535 249.22C180.45 251.254 179.552 254.373 174.527 253.718C174.182 255.532 174.637 256.732 176.06 257.192C172.557 258.851 172.168 263.389 168.233 264.653C167.346 267.512 167.975 269.291 170.98 269.251C165.337 273.818 162.223 280.715 155.945 284.703C157.116 281.25 153.881 281.12 150.898 280.795C153.531 279.021 150.652 272.229 155.934 272.894C156.798 269.825 151.615 268.636 151.85 267.751C152.195 265.133 153.925 267.497 154.724 267.616C157.275 264.913 158.484 258.241 156.902 255.707C163.142 242.179 169.42 225.722 173.433 208.266C163.186 202.633 159.99 191.689 156.957 180.649C156.957 178.785 159.185 178.975 159.661 177.566C156.005 169.474 175.896 160.594 166.295 153.043C160.416 157.116 157.165 151.528 152.852 151.868C153.706 143.187 141.171 144.602 136.322 140.209C127.406 139.974 115.539 138.23 115.993 129.309C110.547 123.672 108.407 115.521 102.2 110.423C100.191 117.085 106.436 121.983 108.467 127.285C100.383 123.157 100.711 115.746 97.5638 108.269C87.8045 102.907 82.2488 91.8124 89.1783 75.5554C91.1926 75.9802 91.5374 76.2051 92.8839 74.7908C91.5867 70.6378 88.5215 67.8292 82.8564 66.9796C84.9309 65.2205 83.3107 62.3219 81.1924 64.091C79.1836 63.8561 82.5116 63.1215 82.2488 62.2719C81.904 60.9875 79.9773 60.9026 79.0523 60.053C83.869 52.7615 71.548 54.1309 72.6537 47.9289C63.4582 46.8194 54.4323 45.595 47.7765 42.5515C44.0161 43.0713 44.1804 47.1593 40.3653 47.619C38.4988 46.5146 41.4162 43.9858 42.593 43.3861C38.3784 41.4171 35.6143 46.7195 34.2513 49.673C28.5479 53.951 21.4323 56.9645 14.3879 60.023C15.7891 57.1194 25.9918 56.2548 26.9004 50.5926C22.2533 49.0733 10.3156 49.673 11.9631 41.8169C15.0337 39.0382 22.0782 39.9378 21.9687 34.2706C16.6977 36.7694 9.9543 35.9148 9.5 31.8817C14.1142 28.9682 18.5313 32.9312 21.9906 30.1326C20.7153 26.8192 14.0157 27.6238 13.9062 23.4009C23.7859 19.6927 34.7659 11.7516 44.465 17.2889C55.0563 16.2244 66.8353 18.4983 75.4616 20.6173C76.6494 21.6118 74.7063 24.9901 77.6018 24.6603C79.8514 23.101 77.5799 20.6123 77.9685 18.7332C79.8295 19.9076 83.0042 17.6487 84.8433 16.6492C87.8045 17.2089 80.1087 18.993 79.6982 21.0171H79.72ZM157.039 73.6663C160.301 72.4119 167.455 72.6418 167.477 75.5504C165.512 75.1456 165.447 76.4749 163.755 76.305C162.825 78.0692 160.471 83.3966 163.044 84.0263C164.472 80.2431 165.222 75.8103 170.373 75.4155C170.674 77.7543 171.391 79.7833 173.739 80.5879C173.504 78.0692 176.202 78.1891 176.656 76.31C170.132 75.7703 167.882 71.9921 164.325 69.1835C161.686 70.0431 156.842 72.5069 157.039 73.6663ZM187.089 70.5229L184.183 70.6578C183.175 72.9767 187.237 72.7967 187.089 70.5229ZM171.539 84.8259C175.365 82.7519 183.597 81.0477 184.221 78.339C180.384 80.8778 174.779 81.7574 171.539 84.8259Z" fill="#00783A"/>
<path fill-rule="evenodd" clip-rule="evenodd" d="M164.364 69.1846C167.921 71.9932 170.171 75.7664 176.696 76.3112C176.241 78.1903 173.543 78.0703 173.778 80.5891C171.425 79.7845 170.708 77.7555 170.412 75.4166C165.267 75.8114 164.511 80.2393 163.083 84.0275C160.51 83.4028 162.864 78.0703 163.794 76.3062C165.486 76.4761 165.546 75.1467 167.516 75.5515C167.495 72.6379 160.335 72.408 157.078 73.6674C156.876 72.508 161.72 70.0442 164.364 69.1846Z" fill="#00783A"/>
</svg>
