<svg width="35" height="33" viewBox="0 0 35 33" fill="none" xmlns="http://www.w3.org/2000/svg">
<g opacity="0.300003">
<g opacity="0.300003">
<path opacity="0.300003" d="M35 31.6054C35 32.1615 27.165 32.6123 17.5 32.6123C7.83502 32.6123 0 32.1615 0 31.6054C0 31.0493 7.83502 30.5985 17.5 30.5985C27.165 30.5985 35 31.0493 35 31.6054Z" fill="#000072"/>
</g>
</g>
<path d="M32.2299 30.3462C31.5354 31.0684 30.5166 31.4746 29.4527 31.4746H5.54576C4.48188 31.4746 3.46302 31.0684 2.76853 30.3462C2.38485 29.947 2.1012 29.5024 1.91043 29.0474C1.90971 29.0474 1.90971 29.0474 1.90971 29.0468C1.30954 27.6192 1.61534 26.0871 2.57276 25.536C4.18037 24.6095 5.42001 25.7417 5.42001 25.7417C5.55719 25.4527 5.74296 25.2022 5.95088 24.9876C6.73396 24.1764 7.83142 23.8675 7.83142 23.8675C7.23482 20.7989 8.56664 18.0187 8.56664 18.0187C8.56664 18.0187 11.8483 20.2427 17.4992 20.2427C23.1501 20.2427 26.4318 18.0187 26.4318 18.0187C26.4318 18.0187 27.7636 20.7989 27.167 23.8675C27.167 23.8675 28.924 24.3622 29.5784 25.7417C29.5784 25.7417 30.8181 24.6095 32.4257 25.536C33.6882 26.2633 33.8175 28.6963 32.2299 30.3462Z" fill="#B11313"/>
<g opacity="0.300003">
<g opacity="0.300003">
<path opacity="0.300003" d="M6.37696 28.5703C6.59845 26.6474 5.42383 25.8176 5.42383 25.8176C5.56101 25.5286 5.74678 25.2781 5.9547 25.0634C7.77665 27.0177 6.37696 28.5703 6.37696 28.5703Z" fill="#000072"/>
</g>
</g>
<g opacity="0.300003">
<g opacity="0.300003">
<path opacity="0.300003" d="M28.6347 28.5703C28.4132 26.6474 29.5878 25.8176 29.5878 25.8176C29.4506 25.5286 29.2649 25.2781 29.057 25.0634C27.235 27.0177 28.6347 28.5703 28.6347 28.5703Z" fill="#000072"/>
</g>
</g>
<g opacity="0.300003">
<g opacity="0.300003">
<path opacity="0.300003" d="M28.8213 30.1843C28.651 30.1463 28.4755 30.1332 28.3012 30.1504C28.0527 30.1749 27.6252 30.2128 26.9982 30.255C26.0545 30.3184 25.2303 29.6824 25.1659 28.8357C25.1382 28.472 25.1989 28.1895 25.2209 28.1021C24.9745 29.0469 24.5194 29.9173 24.242 30.3946C22.8335 30.4473 21.0495 30.4901 18.8434 30.5027C18.7244 26.6799 21.2007 23.0955 21.2007 23.0955C17.4065 25.8174 13.8108 23.0955 13.8108 23.0955C16.3144 27.0807 16.1841 30.3367 16.1841 30.3367L16.6057 30.5048C14.1966 30.4957 12.2699 30.4508 10.7695 30.3947C10.492 29.9173 10.037 29.0469 9.79052 28.1021C9.81339 28.193 9.87813 28.495 9.84174 28.8799C9.76344 29.7085 8.93854 30.3172 8.0139 30.255C7.3865 30.2128 6.95884 30.1749 6.71028 30.1504C6.53589 30.1332 6.36039 30.1463 6.19016 30.1843C3.46996 30.7917 1.96259 29.1766 1.91406 29.1231C2.10483 29.578 2.38848 30.0227 2.77217 30.4219C3.46665 31.1441 4.48552 31.5503 5.5494 31.5503H17.5057H29.462C30.5259 31.5503 31.5448 31.1441 32.2393 30.4219C32.6229 30.0227 32.9066 29.578 33.0974 29.1231C33.0488 29.1766 31.5415 30.7917 28.8213 30.1843Z" fill="#000072"/>
</g>
</g>
<g opacity="0.300003">
<g opacity="0.300003">
<path opacity="0.300003" d="M9.78496 28.1025C9.78032 28.0839 9.77734 28.0737 9.77734 28.0737C9.77979 28.0834 9.78247 28.0929 9.78496 28.1025Z" fill="#000072"/>
</g>
</g>
<g opacity="0.300003">
<g opacity="0.300003">
<path opacity="0.300003" d="M25.2207 28.1025C25.2232 28.0929 25.2259 28.0834 25.2283 28.0737C25.2283 28.0737 25.2254 28.0839 25.2207 28.1025Z" fill="#000072"/>
</g>
</g>
<path d="M17.4962 31.3282H29.4526C30.4556 31.3282 31.3995 30.945 32.0424 30.2769C32.873 29.4138 33.2825 28.2186 33.1113 27.1576C33.011 26.5364 32.7124 26.0411 32.2919 25.7987C30.8701 24.979 29.7997 25.9325 29.7548 25.9734C29.6969 26.0264 29.6134 26.05 29.532 26.0361C29.4508 26.0223 29.3825 25.973 29.3502 25.9048C28.7473 24.6339 27.109 24.1602 27.0925 24.1555C26.974 24.1222 26.9013 24.0152 26.9227 23.9054C27.3971 21.4668 26.6134 19.1853 26.3133 18.4377C25.4148 18.9645 22.3231 20.5409 17.4991 20.5409C12.6751 20.5409 9.58332 18.9645 8.68486 18.4377C8.38476 19.1853 7.60102 21.4668 8.07548 23.9054C8.09683 24.0152 8.0242 24.1222 7.90562 24.1555C7.88943 24.1602 6.24844 24.6389 5.64799 25.9048C5.61561 25.973 5.54738 26.0223 5.46613 26.0361C5.3849 26.05 5.30125 26.0264 5.24333 25.9734C5.19861 25.9332 4.11895 24.9842 2.70625 25.7987C2.28579 26.0411 1.98712 26.5364 1.88689 27.1576C1.71567 28.2186 2.1252 29.4138 2.95573 30.2769C3.59864 30.945 4.54259 31.3282 5.54556 31.3282H17.4962ZM29.4526 31.7725H5.54556C4.39843 31.7725 3.31776 31.3331 2.58069 30.5672C1.65915 29.6095 1.20543 28.2786 1.39662 27.094C1.51918 26.3344 1.88916 25.7416 2.43839 25.425C3.74551 24.6715 4.8484 25.1636 5.33306 25.4701C5.94781 24.4606 7.08841 23.9656 7.55392 23.7984C7.03552 20.7753 8.28436 18.1204 8.33884 18.0067C8.36888 17.9439 8.42941 17.8971 8.50299 17.8797C8.57667 17.8621 8.65507 17.876 8.71577 17.9171C8.74786 17.9388 12.0067 20.0966 17.4991 20.0966C22.9915 20.0966 26.2503 17.9388 26.2826 17.917C26.3434 17.876 26.4219 17.8622 26.4953 17.8797C26.5688 17.8972 26.6293 17.944 26.6593 18.0067C26.7138 18.1204 27.9626 20.7753 27.4442 23.7984C27.9098 23.9656 29.0504 24.4606 29.6651 25.4701C30.1497 25.1636 31.2525 24.6713 32.5598 25.425C33.109 25.7416 33.479 26.3343 33.6016 27.094C33.7928 28.2786 33.339 29.6095 32.4175 30.5672C31.6804 31.3331 30.5997 31.7725 29.4526 31.7725Z" fill="#000072"/>
<path d="M5.55991 25.6373C5.58709 25.6539 5.59975 25.663 5.61847 25.6754C5.63623 25.6872 5.65055 25.6985 5.66676 25.7102C5.69894 25.7335 5.72613 25.7581 5.75528 25.7823C5.78512 25.8061 5.8097 25.8324 5.83649 25.8578C5.86347 25.8831 5.88879 25.9092 5.91254 25.936C6.01123 26.0422 6.09421 26.1565 6.1682 26.2745C6.3165 26.5107 6.41503 26.7653 6.48352 27.0216C6.5503 27.2791 6.57497 27.5404 6.57501 27.7985C6.57552 27.9274 6.55947 28.056 6.54969 28.1831C6.52834 28.31 6.50502 28.4359 6.47538 28.56C6.46972 28.5837 6.44373 28.5988 6.41732 28.5937C6.39726 28.5899 6.38274 28.5755 6.37938 28.5585L6.37881 28.5554C6.35454 28.4307 6.33942 28.3078 6.32118 28.186L6.28568 28.0047C6.27269 27.9448 6.26785 27.8842 6.25007 27.8254C6.21679 27.7077 6.19895 27.5887 6.15697 27.4749C6.13868 27.4177 6.12433 27.3597 6.10441 27.3034L6.04054 27.1362C5.95242 26.9156 5.84478 26.7046 5.71508 26.5096C5.68132 26.4618 5.64971 26.4123 5.61301 26.3671L5.55997 26.2976L5.50308 26.2316C5.46701 26.1861 5.42517 26.146 5.38602 26.105C5.36582 26.0855 5.34579 26.0643 5.32541 26.047C5.31562 26.038 5.30516 26.0275 5.29593 26.0197C5.28769 26.0126 5.27418 26.0012 5.27327 25.9996L5.21981 25.9033C5.16241 25.7999 5.20932 25.6744 5.32463 25.6229C5.40274 25.588 5.49248 25.5963 5.55991 25.6373Z" fill="#000072"/>
<path d="M29.7139 25.9986C29.7129 26.0003 29.6994 26.0116 29.6912 26.0188C29.682 26.0265 29.6715 26.0371 29.6617 26.046C29.6413 26.0634 29.6213 26.0845 29.6011 26.104C29.5619 26.1451 29.5201 26.1851 29.484 26.2306L29.4272 26.2966L29.3741 26.3661C29.3374 26.4114 29.3058 26.4608 29.272 26.5086C29.1423 26.7037 29.0347 26.9146 28.9466 27.1352L28.8827 27.3024C28.8628 27.3587 28.8485 27.4167 28.8302 27.474C28.7882 27.5877 28.7703 27.7067 28.7371 27.8244C28.7193 27.8833 28.7144 27.9438 28.7015 28.0037L28.666 28.185C28.6477 28.3068 28.6326 28.4297 28.6083 28.5544L28.6077 28.5574C28.6031 28.5813 28.5778 28.5973 28.5512 28.5931C28.5309 28.5899 28.5158 28.576 28.5117 28.5591C28.4821 28.435 28.4588 28.3091 28.4374 28.1821C28.4277 28.055 28.4116 27.9265 28.4121 27.7975C28.4122 27.5394 28.4368 27.2781 28.5036 27.0207C28.5721 26.7643 28.6706 26.5097 28.8189 26.2736C28.8929 26.1555 28.9759 26.0412 29.0746 25.9351C29.0983 25.9082 29.1237 25.8821 29.1506 25.8568C29.1774 25.8314 29.202 25.8051 29.2318 25.7813C29.261 25.7571 29.2882 25.7325 29.3204 25.7092C29.3366 25.6975 29.3509 25.6863 29.3686 25.6745C29.3874 25.6621 29.4 25.6529 29.4272 25.6363C29.5337 25.5712 29.6787 25.5959 29.7513 25.6914C29.8004 25.756 29.8036 25.8366 29.7675 25.9021L29.7139 25.9986Z" fill="#000072"/>
<path d="M8.07896 23.9171L8.09914 24.0946L8.12436 24.2932C8.13323 24.3608 8.14505 24.4287 8.15157 24.4999C8.15884 24.5709 8.16314 24.6446 8.15913 24.7241L8.15911 24.7245C8.15848 24.737 8.14668 24.7466 8.13272 24.7461C8.12772 24.7459 8.12313 24.7444 8.11933 24.7419C8.04655 24.696 7.98394 24.6433 7.92975 24.5858C7.87425 24.5288 7.82883 24.4665 7.78454 24.4027C7.74124 24.3385 7.70181 24.2717 7.6675 24.2018C7.65136 24.1665 7.63462 24.131 7.62163 24.0936C7.61462 24.0751 7.60829 24.056 7.60263 24.0364C7.5965 24.0153 7.5924 23.9998 7.58709 23.9699C7.5656 23.8487 7.65777 23.7347 7.79295 23.7155C7.92815 23.6962 8.05516 23.7789 8.07662 23.9001C8.07732 23.904 8.07788 23.9079 8.07835 23.9117L8.07896 23.9171Z" fill="#000072"/>
<path d="M27.4173 23.9699C27.412 23.9998 27.4079 24.0153 27.4018 24.0364C27.3961 24.056 27.3898 24.0751 27.3828 24.0936C27.3698 24.131 27.3531 24.1665 27.3369 24.2018C27.3026 24.2717 27.2632 24.3385 27.2199 24.4027C27.1756 24.4665 27.1302 24.5288 27.0747 24.5858C27.0205 24.6433 26.9579 24.696 26.8851 24.7419C26.8737 24.7492 26.8579 24.7467 26.8499 24.7365C26.847 24.7328 26.8455 24.7286 26.8453 24.7244L26.8453 24.7241C26.8413 24.6446 26.8456 24.571 26.8529 24.4999C26.8594 24.4287 26.8712 24.3608 26.8801 24.2932L26.9053 24.0946L26.9255 23.9171L26.926 23.9125C26.9399 23.7903 27.0615 23.7014 27.1977 23.7139C27.3339 23.7263 27.433 23.8354 27.4191 23.9575C27.4187 23.9615 27.418 23.9661 27.4173 23.9699Z" fill="#000072"/>
<path d="M9.27749 26.1189C9.27749 26.1189 8.1436 25.3303 7.82974 23.9436C7.82974 23.9436 7.17741 23.6479 6.72656 24.4479C6.72656 24.4479 7.24664 26.8902 9.77736 28.0737C9.77736 28.0737 9.41167 26.8164 9.27749 26.1189Z" fill="#0096F2"/>
<path d="M6.98826 24.4797C7.0904 24.8527 7.6404 26.5556 9.39091 27.6101C9.28015 27.207 9.13333 26.6501 9.04915 26.2378C8.78656 26.0337 7.93193 25.2954 7.61794 24.1149C7.47535 24.0929 7.21865 24.1186 6.98826 24.4797ZM9.77698 28.2959C9.73787 28.2959 9.69858 28.2876 9.66247 28.2707C7.05549 27.0515 6.50507 24.5936 6.48291 24.4896C6.47265 24.4414 6.48047 24.3916 6.50517 24.3478C6.78678 23.8481 7.15502 23.7064 7.41434 23.6756C7.70128 23.6412 7.91741 23.7346 7.9411 23.7454C8.00878 23.776 8.05707 23.8328 8.07214 23.8994C8.36278 25.1836 9.41867 25.9362 9.42929 25.9437C9.47775 25.9776 9.51079 26.0268 9.52122 26.0812C9.65208 26.7614 10.0131 28.0052 10.0167 28.0177C10.0414 28.1027 10.0079 28.1928 9.93132 28.2475C9.88655 28.2795 9.83195 28.2959 9.77698 28.2959Z" fill="#000072"/>
<path d="M25.7264 26.1189C25.7264 26.1189 26.8603 25.3303 27.1742 23.9436C27.1742 23.9436 27.8265 23.6479 28.2774 24.4479C28.2774 24.4479 27.7573 26.8902 25.2266 28.0737C25.2266 28.0737 25.5923 26.8164 25.7264 26.1189Z" fill="#0096F2"/>
<path d="M25.9521 26.2378C25.8679 26.6501 25.7211 27.207 25.6103 27.6101C27.3608 26.5557 27.9108 24.8529 28.013 24.4797C27.8735 24.2604 27.7085 24.1382 27.5218 24.116C27.4695 24.1097 27.4215 24.1124 27.3825 24.1179C27.0679 25.2967 26.2145 26.0338 25.9521 26.2378ZM25.2243 28.2959C25.1693 28.2959 25.1147 28.2795 25.07 28.2475C24.9933 28.1928 24.9599 28.1027 24.9846 28.0177C24.9882 28.0052 25.3492 26.7614 25.48 26.0812C25.4905 26.0266 25.5233 25.9776 25.572 25.9437C25.5826 25.9362 26.6385 25.1836 26.9291 23.8994C26.9442 23.8328 26.9925 23.776 27.0602 23.7454C27.0838 23.7346 27.2999 23.6412 27.5869 23.6756C27.8462 23.7064 28.2145 23.8481 28.4961 24.3478C28.5208 24.3916 28.5286 24.4415 28.5184 24.4896C28.4962 24.5936 27.9458 27.0515 25.3388 28.2707C25.3027 28.2876 25.2634 28.2959 25.2243 28.2959Z" fill="#000072"/>
<path d="M12.6953 20.4448C12.6953 20.4448 13.121 21.5271 12.9985 23.1061L14.4013 24.2007C14.4013 24.2007 14.7678 22.293 14.1435 20.7086L12.6953 20.4448Z" fill="#0096F2"/>
<path d="M13.2491 23.0106L14.2083 23.7591C14.2732 23.1503 14.3286 21.9568 13.95 20.9009L13.039 20.7349C13.1568 21.1743 13.3139 21.9825 13.2491 23.0106ZM14.3969 24.4229C14.3381 24.4229 14.2801 24.404 14.2343 24.3683L12.8316 23.2737C12.773 23.228 12.7417 23.1602 12.7471 23.0908C12.8642 21.5819 12.4614 20.529 12.4573 20.5185C12.4278 20.4431 12.4458 20.3592 12.5044 20.299C12.563 20.2388 12.6532 20.2117 12.7403 20.2272L14.1884 20.4909C14.2737 20.5065 14.3437 20.561 14.3726 20.6346C15.0112 22.255 14.6564 24.1582 14.641 24.2385C14.6258 24.3175 14.5643 24.3831 14.48 24.41C14.4529 24.4186 14.4248 24.4229 14.3969 24.4229Z" fill="#000072"/>
<path d="M22.307 20.4448C22.307 20.4448 21.8813 21.5271 22.0038 23.1061L20.6011 24.2007C20.6011 24.2007 20.2345 22.293 20.8588 20.7086L22.307 20.4448Z" fill="#0096F2"/>
<path d="M21.0492 20.9009C20.6699 21.9587 20.7254 23.1512 20.7906 23.7593L21.7501 23.0106C21.6853 21.9825 21.8424 21.1743 21.9601 20.7349L21.0492 20.9009ZM20.6023 24.4229C20.5744 24.4229 20.5463 24.4186 20.5192 24.41C20.4349 24.3831 20.3734 24.3175 20.3582 24.2385C20.3428 24.1582 19.988 22.255 20.6265 20.6346C20.6555 20.561 20.7255 20.5065 20.8108 20.4909L22.2589 20.2272C22.3463 20.2111 22.4366 20.2388 22.4951 20.2991C22.5536 20.3594 22.5714 20.4433 22.5419 20.5187C22.5354 20.5353 22.1354 21.5864 22.2521 23.0908C22.2575 23.1602 22.2262 23.228 22.1676 23.2737L20.7649 24.3683C20.7191 24.404 20.6611 24.4229 20.6023 24.4229Z" fill="#000072"/>
<path d="M16.1011 30.8564C15.7481 32.4108 13.7361 33.1221 12.3221 32.1693C11.2154 31.4241 10 29.7196 9.24908 25.9821C9.17763 25.6239 9.10975 25.2465 9.04688 24.8499L9.52487 24.4436L12.6936 21.7486C12.6936 21.7486 15.8153 26.0827 16.1611 29.405V29.4057C16.2154 29.9202 16.2025 30.4104 16.1011 30.8564Z" fill="#B11313"/>
<g opacity="0.300003">
<g opacity="0.300003">
<path opacity="0.300003" d="M16.1002 30.8564C15.7472 32.4108 13.7352 33.1221 12.3212 32.1693C11.2145 31.4241 9.99912 29.7197 9.24819 25.9821C8.19145 25.4112 7.82849 23.9432 7.82849 23.9432C7.37264 21.994 7.89851 20.1973 7.89851 20.1973C7.79844 22.5699 8.84849 23.7016 9.28158 24.0649C9.40226 24.1661 9.4866 24.2967 9.52335 24.4412C9.52357 24.442 9.52377 24.4428 9.52398 24.4436C10.2978 27.5142 11.5939 31.2549 13.4744 31.5228C15.2899 31.781 16.0723 29.6601 16.1602 29.4057C16.2145 29.9202 16.2016 30.4104 16.1002 30.8564Z" fill="#000072"/>
</g>
</g>
<path d="M12.9664 21.5415C13.3272 21.8939 13.6125 22.287 13.8712 22.6931C13.9996 22.8966 14.1167 23.1055 14.233 23.3146C14.3494 23.5237 14.4633 23.734 14.5744 23.9456C15.0191 24.7915 15.424 25.6566 15.7603 26.5479C16.097 27.4382 16.3681 28.3581 16.4669 29.3158C16.5145 29.7939 16.5174 30.2831 16.4268 30.7729C16.4072 30.8931 16.3785 31.0222 16.3344 31.1464C16.2944 31.2715 16.2377 31.3923 16.1762 31.5106C16.048 31.7454 15.8771 31.9618 15.6733 32.1491C15.2616 32.5198 14.7175 32.7699 14.1399 32.8433C13.8518 32.8837 13.5559 32.8749 13.2688 32.8293C12.9819 32.7804 12.7049 32.688 12.4516 32.5608C12.3277 32.4951 12.203 32.4229 12.0953 32.3433L11.9339 32.2245C11.8793 32.1854 11.8325 32.1401 11.7816 32.0982C11.7324 32.0549 11.6801 32.0138 11.6337 31.9685L11.4956 31.8321C11.4002 31.7431 11.3212 31.6443 11.2356 31.5494C10.9049 31.1627 10.6412 30.7422 10.4097 30.3134C10.1744 29.885 9.99451 29.4395 9.82028 28.9942C9.6586 28.5455 9.51133 28.0937 9.39018 27.6373C9.3303 27.4091 9.266 27.1816 9.21714 26.9516C9.16681 26.722 9.10653 26.4938 9.06994 26.2622C8.98892 25.8001 8.9509 25.3317 8.99547 24.8566C8.99798 24.8297 9.0243 24.8098 9.05425 24.812C9.07513 24.8136 9.09225 24.8256 9.09987 24.8418L9.10051 24.8432C9.2035 25.064 9.28141 25.2868 9.34858 25.5107C9.41474 25.7349 9.48329 25.9576 9.53525 26.183C9.58494 26.409 9.64317 26.6327 9.69798 26.8572C9.75004 27.0825 9.81712 27.3038 9.87969 27.5263C10.0063 27.9709 10.1577 28.408 10.3219 28.8399C10.498 29.2668 10.6789 29.6932 10.9089 30.0944C11.1342 30.4972 11.3912 30.8837 11.6932 31.2318C11.7712 31.3165 11.8436 31.4065 11.9289 31.484L12.0525 31.6044C12.0938 31.6444 12.1398 31.6791 12.1831 31.7169C12.2278 31.7529 12.2692 31.7931 12.3164 31.8259L12.4558 31.9268C12.5483 31.9943 12.6427 32.0466 12.7413 32.0988C12.9404 32.1965 13.1549 32.2661 13.3766 32.3025C13.5986 32.3355 13.827 32.3417 14.0501 32.3082C14.4978 32.2489 14.919 32.0492 15.2354 31.7618C15.393 31.6173 15.5253 31.4509 15.6253 31.2694C15.6727 31.1775 15.7179 31.0842 15.749 30.9861C15.7839 30.8893 15.8063 30.7903 15.8243 30.6811C15.9046 30.2551 15.9054 29.8089 15.8621 29.364C15.8182 28.9184 15.73 28.4724 15.6158 28.0303C15.5023 27.5878 15.3604 27.149 15.2025 26.7143C14.886 25.8445 14.4992 24.9916 14.0716 24.1553C13.9648 23.946 13.8551 23.738 13.7431 23.5309C13.6315 23.3235 13.5141 23.1188 13.4053 22.91C13.1856 22.4935 12.9787 22.0701 12.8154 21.6225L12.8149 21.621C12.7995 21.5787 12.8252 21.5332 12.8723 21.5194C12.9069 21.5093 12.9433 21.519 12.9664 21.5415Z" fill="#000072"/>
<path d="M9.94307 28.7925C9.87637 28.7925 9.80983 28.7685 9.76103 28.7211C9.66829 28.631 9.67444 28.4906 9.77481 28.4074C9.86671 28.3312 12.0637 26.5388 15.4275 26.3133C15.5635 26.3035 15.6827 26.3959 15.6929 26.5182C15.7031 26.6406 15.6008 26.7472 15.4644 26.7563C12.2791 26.9699 10.1323 28.7161 10.111 28.7337C10.0634 28.773 10.0031 28.7925 9.94307 28.7925Z" fill="#000072"/>
<path d="M18.9002 30.8568C19.2532 32.4113 21.2652 33.1226 22.6792 32.1698C23.786 31.4246 25.0013 29.7201 25.7522 25.9826C25.8237 25.6244 25.8916 25.247 25.9544 24.8504L25.4764 24.4441L22.3077 21.7491C22.3077 21.7491 19.186 26.0832 18.8402 29.4055V29.4062C18.7859 29.9207 18.7988 30.4109 18.9002 30.8568Z" fill="#B11313"/>
<g opacity="0.300003">
<g opacity="0.300003">
<path opacity="0.300003" d="M18.8924 30.8564C19.2454 32.4108 21.2574 33.1221 22.6714 32.1693C23.7781 31.4241 24.9935 29.7197 25.7444 25.9821C26.8012 25.4112 27.1641 23.9432 27.1641 23.9432C27.62 21.994 27.0941 20.1973 27.0941 20.1973C27.1942 22.5699 26.1441 23.7016 25.711 24.0649C25.5904 24.1661 25.506 24.2967 25.4693 24.4412C25.469 24.442 25.4688 24.4428 25.4686 24.4436C24.6948 27.5142 23.3987 31.2549 21.5182 31.5228C19.7027 31.781 18.9203 29.6601 18.8324 29.4057C18.7781 29.9202 18.791 30.4104 18.8924 30.8564Z" fill="#000072"/>
</g>
</g>
<path d="M22.1861 21.6225C22.0229 22.0701 21.8159 22.4935 21.5962 22.91C21.4875 23.1188 21.37 23.3235 21.2585 23.5309C21.1464 23.7379 21.0367 23.946 20.93 24.1553C20.5024 24.9916 20.1156 25.8445 19.7991 26.7143C19.6411 27.149 19.4993 27.5878 19.3858 28.0303C19.2716 28.4724 19.1834 28.9184 19.1395 29.364C19.0962 29.8089 19.097 30.2551 19.1773 30.6811C19.1953 30.7903 19.2176 30.8893 19.2526 30.9862C19.2837 31.0842 19.3289 31.1775 19.3762 31.2694C19.4763 31.4509 19.6086 31.6173 19.7662 31.7618C20.0826 32.0492 20.5038 32.2489 20.9515 32.3082C21.1746 32.3417 21.403 32.3355 21.625 32.3025C21.8467 32.2661 22.0612 32.1965 22.2603 32.0988C22.3589 32.0466 22.4533 31.9943 22.5457 31.9268L22.6852 31.8259C22.7324 31.7931 22.7738 31.7529 22.8185 31.7169C22.8618 31.6791 22.9078 31.6444 22.9491 31.6044L23.0727 31.484C23.158 31.4065 23.2303 31.3165 23.3084 31.2318C23.6104 30.8837 23.8674 30.4972 24.0927 30.0944C24.3227 29.6932 24.5036 29.2668 24.6797 28.8398C24.8439 28.408 24.9953 27.9708 25.1219 27.5263C25.1845 27.3038 25.2515 27.0825 25.3036 26.8572C25.3584 26.6327 25.4166 26.409 25.4663 26.183C25.5183 25.9576 25.5868 25.7349 25.653 25.5107C25.7202 25.2868 25.7981 25.064 25.9011 24.8432L25.9017 24.8418C25.9133 24.817 25.9452 24.8052 25.9729 24.8156C25.9922 24.8229 26.0044 24.8391 26.0061 24.8566C26.0507 25.3317 26.0127 25.8001 25.9316 26.2622C25.895 26.4938 25.8347 26.722 25.7844 26.9516C25.7356 27.1816 25.6713 27.4091 25.6114 27.6373C25.4903 28.0937 25.343 28.5455 25.1813 28.9942C25.0071 29.4395 24.8272 29.885 24.5919 30.3134C24.3604 30.7422 24.0966 31.1627 23.766 31.5494C23.6804 31.6443 23.6013 31.7431 23.506 31.8321L23.3678 31.9685C23.3215 32.0138 23.2692 32.0549 23.22 32.0982C23.169 32.1401 23.1222 32.1854 23.0677 32.2245L22.9063 32.3433C22.7986 32.4229 22.6739 32.4951 22.5499 32.5608C22.2967 32.688 22.0196 32.7804 21.7327 32.8293C21.4456 32.8749 21.1498 32.8837 20.8617 32.8433C20.2841 32.7699 19.74 32.5198 19.3282 32.1491C19.1245 31.9618 18.9536 31.7454 18.8253 31.5106C18.7639 31.3923 18.7071 31.2715 18.6671 31.1464C18.623 31.0222 18.5944 30.8931 18.5748 30.7729C18.4842 30.2831 18.4871 29.7939 18.5346 29.3158C18.6335 28.3581 18.9046 27.4382 19.2412 26.5479C19.5776 25.6566 19.9825 24.7915 20.4272 23.9456C20.5382 23.734 20.6522 23.5237 20.7685 23.3146C20.8849 23.1054 21.002 22.8966 21.1304 22.6931C21.3891 22.287 21.6743 21.894 22.0351 21.5415C22.0687 21.5087 22.1255 21.5065 22.162 21.5366C22.1888 21.5587 22.1973 21.5919 22.1867 21.621L22.1861 21.6225Z" fill="#000072"/>
<path d="M25.0592 28.7925C24.9991 28.7925 24.9388 28.773 24.8912 28.7335C24.8699 28.7159 22.7231 26.9697 19.5378 26.7562C19.4014 26.747 19.2991 26.6404 19.3093 26.5181C19.3195 26.3958 19.4385 26.3034 19.5747 26.3131C22.9385 26.5387 25.1355 28.3311 25.2274 28.4073C25.3278 28.4906 25.334 28.6311 25.2411 28.7212C25.1923 28.7685 25.1258 28.7925 25.0592 28.7925Z" fill="#000072"/>
<path d="M17.5041 19.6026C23.982 19.6026 26.5541 17.0648 26.5541 17.0648C26.5541 17.0648 26.662 17.2833 26.7145 17.5939C26.8015 18.1081 26.558 18.624 26.0943 18.9364C25.075 19.6231 22.4796 20.9316 17.5007 20.9316C12.5219 20.9316 9.92644 19.6231 8.90717 18.9364C8.44348 18.624 8.19998 18.1081 8.28696 17.5939C8.33951 17.2833 8.44742 17.0648 8.44742 17.0648C8.44742 17.0648 11.0195 19.6026 17.4974 19.6026" fill="#751313"/>
<g opacity="0.300003">
<g opacity="0.300003">
<path opacity="0.300003" d="M26.6928 17.4749C26.6094 17.7974 26.4008 18.0905 26.0962 18.2956C25.077 18.9824 22.4816 20.2909 17.5027 20.2909C12.5238 20.2909 9.92838 18.9824 8.90911 18.2956C8.60463 18.0905 8.39594 17.7974 8.31258 17.4749C8.30398 17.5128 8.29594 17.5524 8.28892 17.5939C8.20192 18.1082 8.44542 18.624 8.90911 18.9364C9.92838 19.6231 12.5238 20.9316 17.5027 20.9316C22.4816 20.9316 25.077 19.6231 26.0962 18.9364C26.5599 18.624 26.8034 18.1082 26.7165 17.5939C26.7094 17.5524 26.7014 17.5128 26.6928 17.4749Z" fill="#000072"/>
</g>
</g>
<path d="M17.5005 21.1538C12.5283 21.1538 9.88896 19.8758 8.75822 19.114C8.21607 18.7487 7.94158 18.1535 8.04188 17.5607C8.09871 17.2245 8.21576 16.9849 8.22072 16.9749C8.25466 16.9062 8.32496 16.8575 8.40764 16.8456C8.49018 16.8334 8.57412 16.8598 8.63049 16.9154C8.65534 16.9397 11.2231 19.3805 17.4972 19.3805V19.8248C12.1385 19.8248 9.42028 18.1296 8.56505 17.4694C8.5527 17.5181 8.54115 17.5711 8.53162 17.6273C8.45874 18.0583 8.65956 18.4919 9.05577 18.7588C10.1371 19.4873 12.6722 20.7095 17.5005 20.7095C22.3289 20.7095 24.864 19.4873 25.9454 18.7588C26.3415 18.4919 26.5423 18.0583 26.4694 17.6273C26.4599 17.5711 26.4484 17.5181 26.436 17.4694C25.5808 18.1296 22.8625 19.8248 17.5039 19.8248V19.3805C23.7993 19.3805 26.3456 16.9401 26.3706 16.9154C26.4269 16.8598 26.5108 16.8336 26.5934 16.8456C26.6761 16.8575 26.7464 16.9062 26.7803 16.9749C26.7853 16.9849 26.9024 17.2245 26.9592 17.5607C27.0595 18.1535 26.785 18.7488 26.2429 19.114C25.1122 19.8758 22.4728 21.1538 17.5005 21.1538Z" fill="#000072"/>
<path d="M8.45703 18.9438L12.4511 27.0977" stroke="#000072" stroke-width="0.2" stroke-miterlimit="10"/>
<path d="M22.3848 27.0977L26.4636 18.9438" stroke="#000072" stroke-width="0.2" stroke-miterlimit="10"/>
<path fill-rule="evenodd" clip-rule="evenodd" d="M17.2077 22.2732C17.2061 22.2928 17.1928 22.3104 17.1839 22.3297C17.1754 22.3484 17.1675 22.3685 17.1601 22.3881C17.1408 22.4393 17.1228 22.4897 17.1244 22.556C17.1903 22.5638 17.2733 22.558 17.3327 22.5505C17.3652 22.5634 17.3861 22.5835 17.4161 22.5979C17.4104 22.5732 17.4375 22.5685 17.4607 22.5614C17.4504 22.5722 17.4344 22.5794 17.4399 22.5998C17.4534 22.6053 17.4556 22.5906 17.4667 22.5888C17.482 22.5995 17.5014 22.5989 17.5173 22.5888C17.5286 22.5904 17.5256 22.6008 17.5381 22.6016C17.5557 22.5874 17.5305 22.572 17.5232 22.5614C17.5453 22.5686 17.5704 22.5739 17.5679 22.5961C17.5919 22.5871 17.6212 22.5656 17.6452 22.5505C17.7072 22.5585 17.7865 22.5622 17.8595 22.5578C17.857 22.4468 17.8131 22.3612 17.7702 22.275C17.7821 22.2741 17.782 22.2837 17.7851 22.2878C17.8294 22.3465 17.8688 22.4135 17.9012 22.4848C17.9059 22.4952 17.9138 22.5093 17.919 22.5231C17.9236 22.5353 17.9332 22.5564 17.9309 22.5633C17.9258 22.5782 17.8855 22.5833 17.8773 22.5961C17.8526 22.5782 17.7812 22.5833 17.7137 22.5815C17.6945 22.581 17.6689 22.5776 17.6571 22.5797C17.6312 22.5842 17.6198 22.6075 17.6065 22.6198C17.6432 22.6214 17.6722 22.5996 17.7047 22.5979C17.7254 22.5969 17.7556 22.6064 17.7821 22.6107C17.8588 22.6232 17.9444 22.6337 18.0143 22.6472C18.0185 22.5005 17.957 22.3782 17.8744 22.2786C17.9565 22.3481 18.0118 22.4294 18.0529 22.525C18.06 22.5415 18.0662 22.5572 18.0708 22.5742C18.0773 22.5981 18.0776 22.6276 18.0976 22.6454C18.0729 22.6619 18.0432 22.6753 18.0172 22.691C17.9441 22.6643 17.8028 22.6257 17.6839 22.6326C17.6554 22.6343 17.6303 22.643 17.6095 22.6545C17.6458 22.6634 17.671 22.6642 17.7196 22.6636C17.7317 22.6635 17.7492 22.6604 17.7583 22.6618C17.7686 22.6634 17.7852 22.6765 17.8 22.6855C17.8859 22.7382 17.9628 22.7768 18.0648 22.8187C18.0967 22.8318 18.1147 22.8451 18.1511 22.8278C18.1572 23.001 18.0822 23.1288 17.9904 23.2457C17.9797 23.2593 17.973 23.2751 17.9547 23.2858C18.0237 23.186 18.0767 23.0673 18.0767 22.9282C18.0767 22.9136 18.0813 22.8954 18.0767 22.8826C18.0703 22.8643 18.0235 22.845 17.9964 22.8297C17.9195 22.7862 17.8583 22.7556 17.7732 22.7147C17.7565 22.7067 17.7423 22.6959 17.7286 22.6928C17.714 22.6896 17.6912 22.6889 17.675 22.6874C17.6547 22.6854 17.6352 22.6849 17.6184 22.6837C17.6513 22.7054 17.7035 22.7323 17.7494 22.753C17.7577 22.7576 17.7665 22.7514 17.7762 22.7512C17.787 22.9546 17.7624 23.1538 17.669 23.3022C17.6467 23.3377 17.622 23.3724 17.5827 23.3989C17.7096 23.2585 17.7192 23.0173 17.6928 22.8059C17.7198 22.7916 17.7081 22.7797 17.6839 22.7622C17.6575 22.743 17.6105 22.715 17.5798 22.7056C17.5776 22.7151 17.5829 22.7244 17.5887 22.733C17.5945 22.7415 17.6074 22.749 17.6095 22.7567C17.614 22.773 17.6032 22.8088 17.5976 22.8278C17.5792 22.8908 17.5404 22.9599 17.5053 23.0066C17.493 23.0057 17.5017 22.9919 17.4934 22.9884C17.4802 22.9888 17.4882 23.0022 17.4815 23.0066C17.4406 22.9638 17.4056 22.8928 17.3863 22.8278C17.3794 22.8046 17.3687 22.7767 17.3744 22.7567C17.3789 22.7408 17.4068 22.7264 17.4042 22.7074C17.3769 22.7113 17.3515 22.7279 17.3298 22.7421C17.3081 22.7563 17.2856 22.7715 17.2703 22.7877C17.2721 22.7957 17.2848 22.797 17.2881 22.8041C17.2686 23.018 17.2692 23.2587 17.4012 23.3971C17.3873 23.3959 17.3808 23.3851 17.3744 23.3789C17.2515 23.2584 17.2185 23.0727 17.2048 22.8807C17.2017 22.8384 17.1986 22.7969 17.2077 22.7549C17.2103 22.746 17.2256 22.7591 17.2345 22.753C17.2815 22.7313 17.3238 22.7068 17.3685 22.6837C17.3296 22.6874 17.2873 22.6862 17.2524 22.6946C17.2221 22.702 17.1889 22.7223 17.1601 22.7366C17.0728 22.7802 16.9807 22.8276 16.9072 22.8771C16.8922 23.0399 16.953 23.1711 17.0262 23.2858C16.9206 23.1595 16.8225 23.0191 16.8328 22.8278C16.873 22.8512 16.9343 22.8132 16.9667 22.7987C17.0568 22.7582 17.153 22.7061 17.2226 22.6618C17.273 22.6664 17.3322 22.6627 17.3744 22.6563C17.3218 22.6152 17.187 22.6359 17.1066 22.6509C17.0526 22.6609 17.0022 22.6754 16.9697 22.691C16.9388 22.6783 16.9151 22.6612 16.8863 22.6472C16.9074 22.6148 16.9119 22.5602 16.928 22.5231C16.9673 22.4326 17.0287 22.3524 17.1036 22.2786C17.1016 22.2926 17.0858 22.3047 17.0768 22.317C17.0116 22.4059 16.9686 22.5161 16.9667 22.6454C17.0355 22.6358 17.1176 22.624 17.1988 22.6107C17.2253 22.6064 17.2527 22.5975 17.2732 22.5979C17.3063 22.5987 17.3374 22.6196 17.3744 22.6198C17.3656 22.6027 17.3488 22.5905 17.3298 22.5797C17.2685 22.584 17.2 22.5773 17.1453 22.5833C17.1397 22.584 17.1324 22.586 17.1244 22.5888C17.1251 22.5886 17.1067 22.5961 17.1095 22.5961C17.0972 22.596 17.0669 22.5697 17.053 22.5669C17.0816 22.4549 17.1461 22.365 17.2077 22.2732Z" fill="#000072"/>
<path fill-rule="evenodd" clip-rule="evenodd" d="M17.502 21.1547V24.3052V21.1547Z" fill="#000072"/>
<path d="M17.502 21.1547V24.3052" stroke="#000072" stroke-width="0.2" stroke-miterlimit="10"/>
<path d="M16.4042 21.1327C16.4042 21.1327 16.5973 23.7135 16.3145 24.1704" stroke="#000072" stroke-width="0.2" stroke-miterlimit="10"/>
<path d="M15.5376 21.0831C15.5376 21.0831 15.973 22.2772 15.3438 23.8901" stroke="#000072" stroke-width="0.2" stroke-miterlimit="10"/>
<path d="M18.5016 21.1539C18.5016 21.1539 18.2997 23.4406 18.5917 24.2192" stroke="#000072" stroke-width="0.2" stroke-miterlimit="10"/>
<path d="M19.531 21.0831C19.531 21.0831 19.0693 23.3507 19.7548 23.8901" stroke="#000072" stroke-width="0.2" stroke-miterlimit="10"/>
<path d="M14.6367 21.5366C14.6367 21.5366 15.0715 21.1644 15.6426 21.5366C15.6426 21.5366 15.9403 21.1672 16.4353 21.5874C16.4353 21.5874 16.7052 21.1273 17.4998 21.5366C17.4998 21.5366 17.8352 21.1521 18.4368 21.5366C18.4368 21.5366 18.9095 21.1096 19.4632 21.5154C19.4632 21.5154 19.9568 21.0335 20.3842 21.4639" stroke="#000072" stroke-width="0.2" stroke-miterlimit="10"/>
<path d="M17.4377 22.1276C17.4221 22.1177 17.4067 22.1084 17.3914 22.0996C16.8502 21.7885 16.4575 22.1362 16.4575 22.1362C16.056 21.7625 15.6837 22.1362 15.6837 22.1362C15.0596 21.4833 14.7227 22.1362 14.7227 22.1362" stroke="#000072" stroke-width="0.2" stroke-miterlimit="10"/>
<path d="M17.4219 22.1347C17.4219 22.1347 17.9152 21.7799 18.4342 22.1347C18.4342 22.1347 18.9384 21.6956 19.3799 22.1543C19.3799 22.1543 20.0352 21.702 20.2796 22.1452" stroke="#000072" stroke-width="0.2" stroke-miterlimit="10"/>
<path d="M14.7227 23.2268C14.7227 23.2268 15.1231 22.6352 15.5445 23.277C15.5445 23.277 16.3002 22.8088 16.461 23.4627C16.461 23.4627 17.0868 23.1774 17.5242 23.647C17.5242 23.647 17.9876 23.1609 18.5244 23.5316C18.5244 23.5316 18.8828 22.7882 19.4894 23.3618C19.4894 23.3618 19.8631 22.7419 20.2798 23.0956" stroke="#000072" stroke-width="0.2" stroke-miterlimit="10"/>
<path d="M14.6836 23.5812C14.6836 23.5812 15.205 23.1069 15.4331 23.6477C15.4331 23.6477 16.1841 23.3431 16.3938 23.8908C16.3938 23.8908 17.1699 23.5258 17.493 24.1099C17.493 24.1099 17.9522 23.7218 18.5043 23.9854C18.5043 23.9854 19.0116 23.301 19.5989 23.705C19.5989 23.705 20.0168 23.0649 20.2668 23.4634" stroke="#000072" stroke-width="0.2" stroke-miterlimit="10"/>
<path d="M10.1094 28.7332C10.1094 28.7332 12.4205 26.5544 15.3417 26.7648L16.0057 28.5939C16.0057 28.5939 15.288 31.3097 10.763 30.3946L10.1094 28.7332Z" fill="#000072"/>
<path d="M10.1094 28.7332C10.1094 28.7332 12.4205 26.5544 15.3417 26.7648L16.0057 28.5939C16.0057 28.5939 15.288 31.3097 10.763 30.3946L10.1094 28.7332Z" stroke="#000072" stroke-width="0.2" stroke-miterlimit="10"/>
<path d="M18.8906 29.0436L19.5711 26.4487L22.778 27.323L24.6887 28.2959V29.0436L24.24 30.3948C24.24 30.3948 21.0295 31.3426 18.8906 29.0436Z" fill="#000072"/>
<path d="M18.8906 29.0436L19.5711 26.4487L22.778 27.323L24.6887 28.2959V29.0436L24.24 30.3948C24.24 30.3948 21.0295 31.3426 18.8906 29.0436Z" stroke="#000072" stroke-width="0.2" stroke-miterlimit="10"/>
<path d="M2.66016 25.588L5.12893 31.3286" stroke="#000072" stroke-width="0.2" stroke-miterlimit="10"/>
<path d="M2.01953 26.312C2.01953 26.312 2.44611 28.9693 4.30825 31.2847" stroke="#000072" stroke-width="0.2" stroke-miterlimit="10"/>
<path d="M3.66211 25.3666C3.66211 25.3666 5.59035 28.3024 5.88827 31.3745" stroke="#000072" stroke-width="0.2" stroke-miterlimit="10"/>
<path d="M4.89844 25.588C4.89844 25.588 6.06791 27.6787 6.72724 31.3286" stroke="#000072" stroke-width="0.2" stroke-miterlimit="10"/>
<path d="M1.75781 27.5522C1.75781 27.5522 1.76269 26.9643 2.22875 27.1922C2.22875 27.1922 2.40217 26.164 3.16398 26.8168C3.16398 26.8168 3.19283 25.773 4.25747 26.3989C4.25747 26.3989 4.56113 25.6328 5.19884 26.3123C5.19884 26.3123 5.51512 26.1555 5.71862 26.509" stroke="#000072" stroke-width="0.2" stroke-miterlimit="10"/>
<path d="M2.08984 26.6714C2.08984 26.6714 2.25329 25.911 2.90395 26.1629C2.90395 26.1629 3.03278 25.5379 3.89081 25.7457C3.89081 25.7457 4.01706 25.3369 5.03519 25.8594" stroke="#000072" stroke-width="0.2" stroke-miterlimit="10"/>
<path d="M1.84766 27.8652C1.84766 27.8652 1.88358 27.276 2.38062 27.686C2.38062 27.686 2.53723 26.6658 3.40561 27.3232C3.40561 27.3232 3.42886 26.3243 4.43935 26.8888C4.43935 26.8888 4.81113 26.3311 5.4591 26.817C5.4591 26.817 5.57482 26.5267 5.89816 26.817" stroke="#000072" stroke-width="0.2" stroke-miterlimit="10"/>
<path d="M1.84766 28.3706C1.84766 28.3706 2.04939 27.804 2.60133 28.2959C2.60133 28.2959 2.93909 27.3707 3.66167 27.9969C3.66167 27.9969 3.95277 26.7619 4.83911 27.6101C4.83911 27.6101 4.97696 26.8038 5.68191 27.4003C5.68191 27.4003 5.73541 26.9052 6.10706 27.3027" stroke="#000072" stroke-width="0.2" stroke-miterlimit="10"/>
<path d="M2.01953 28.7988C2.01953 28.7988 2.20723 28.3321 2.75413 28.6672C2.75413 28.6672 3.34875 27.9305 3.89443 28.4581C3.89443 28.4581 4.48002 27.6652 5.03881 28.2678C5.03881 28.2678 5.32945 27.5238 5.90413 28.0417C5.90413 28.0417 6.11708 27.7644 6.2891 28.0043" stroke="#000072" stroke-width="0.2" stroke-miterlimit="10"/>
<path d="M2.21484 29.3481C2.21484 29.3481 2.54541 28.8398 2.96805 29.1434C2.96805 29.1434 3.33838 28.564 4.14537 29.0467C4.14537 29.0467 4.52943 28.2623 5.31964 28.8546C5.31964 28.8546 5.6054 28.1872 6.10566 28.7924C6.10566 28.7924 6.10756 28.1447 6.45779 28.4581" stroke="#000072" stroke-width="0.2" stroke-miterlimit="10"/>
<path d="M2.46094 29.9893V29.8262C2.46094 29.8262 2.68239 29.2315 3.21263 29.6194C3.21263 29.6194 3.76012 29.0567 4.33943 29.4908C4.33943 29.4908 4.93807 28.7881 5.47959 29.3483C5.47959 29.3483 5.80565 28.7341 6.29002 29.3461" stroke="#000072" stroke-width="0.2" stroke-miterlimit="10"/>
<path d="M2.87305 30.189C2.87305 30.189 2.89357 29.8725 3.41886 29.9895C3.41886 29.9895 3.98193 29.607 4.54178 29.9636C4.54178 29.9636 4.93678 29.3353 5.60713 29.8115C5.60713 29.8115 6.07131 29.3219 6.38893 29.7366" stroke="#000072" stroke-width="0.2" stroke-miterlimit="10"/>
<path d="M3.16406 30.583C3.16406 30.583 3.36699 30.3062 3.7383 30.5025C3.7383 30.5025 4.2204 30.0831 4.74374 30.4322C4.74374 30.4322 5.1078 29.9373 5.72025 30.2934C5.72025 30.2934 6.10858 29.8422 6.49623 30.1881" stroke="#000072" stroke-width="0.2" stroke-miterlimit="10"/>
<path d="M3.56445 30.8638C3.56445 30.8638 3.62814 30.5707 3.97644 30.8509C3.97644 30.8509 4.38332 30.6166 4.89775 30.8638C4.89775 30.8638 5.45884 30.5484 5.81216 30.7967C5.81216 30.7967 6.27152 30.4872 6.57677 30.7826" stroke="#000072" stroke-width="0.2" stroke-miterlimit="10"/>
<path d="M4.1543 31.0683C4.1543 31.0683 4.42488 30.8136 5.03878 31.1187C5.03878 31.1187 5.37574 30.9342 5.68437 30.9992C5.72845 31.0085 5.77197 31.0229 5.81384 31.0437" stroke="#000072" stroke-width="0.2" stroke-miterlimit="10"/>
<path d="M5.85547 31.1206C5.85547 31.1206 6.16762 30.8757 6.69787 31.0444" stroke="#000072" stroke-width="0.2" stroke-miterlimit="10"/>
<path d="M6.45913 28.3723C6.36599 28.5621 6.72741 31.5493 6.72741 31.5493H11.2354L11.1394 31.3282L10.1112 29.5692L9.46759 27.9169C8.00916 27.7315 6.57761 24.6686 6.57761 24.6686L5.5625 25.6367L5.813 26.1632L6.28825 27.1482L6.45913 28.3723Z" fill="#000072"/>
<path d="M32.1598 25.4491L29.9531 31.3286" stroke="#000072" stroke-width="0.2" stroke-miterlimit="10"/>
<path d="M32.7476 26.1665C32.7476 26.1665 32.3553 29.9184 30.5137 31.4185" stroke="#000072" stroke-width="0.2" stroke-miterlimit="10"/>
<path d="M31.3077 25.4127C31.3077 25.4127 29.8132 28.6317 29.1035 31.3638" stroke="#000072" stroke-width="0.2" stroke-miterlimit="10"/>
<path d="M30.0641 25.6946C30.0641 25.6946 28.9764 27.5237 28.4121 31.7036" stroke="#000072" stroke-width="0.2" stroke-miterlimit="10"/>
<path d="M33.111 27.1572C33.111 27.1572 32.992 26.6371 32.6149 26.9873C32.6149 26.9873 32.4574 26.0575 31.7137 26.6316C31.7137 26.6316 31.5037 25.8392 30.851 26.4483C30.851 26.4483 30.343 25.6909 29.7103 26.4483C29.7103 26.4483 29.5795 26.2565 29.2734 26.5086" stroke="#000072" stroke-width="0.2" stroke-miterlimit="10"/>
<path d="M33.1494 27.6841C33.1494 27.6841 33.0097 27.1738 32.4953 27.5524C32.4953 27.5524 32.1962 26.913 31.4547 27.3232C31.4547 27.3232 31.2808 26.6755 30.5101 27.0973C30.5101 27.0973 30.2824 26.6043 29.5148 26.9546C29.5148 26.9546 29.3352 26.6428 29.0137 26.9822" stroke="#000072" stroke-width="0.2" stroke-miterlimit="10"/>
<path d="M33.1464 28.2959C33.1464 28.2959 32.8526 27.7464 32.3508 28.1023C32.3508 28.1023 31.8817 27.5064 31.2039 27.9823C31.2039 27.9823 30.9476 27.4014 30.2959 27.798C30.2959 27.798 29.9624 27.1575 29.2705 27.6101C29.2705 27.6101 29.1436 27.2725 28.6406 27.5523" stroke="#000072" stroke-width="0.2" stroke-miterlimit="10"/>
<path d="M33.0269 28.7925C33.0269 28.7925 32.8538 28.2491 32.1687 28.6998C32.1687 28.6998 31.7019 28.0023 31.0048 28.5187C31.0048 28.5187 30.7035 27.808 30.0647 28.3886C30.0647 28.3886 29.8632 27.8104 29.1026 28.2497C29.1026 28.2497 28.9912 27.7973 28.6666 28.1855C28.3419 28.5737 28.5808 28.1783 28.5808 28.1783" stroke="#000072" stroke-width="0.2" stroke-miterlimit="10"/>
<path d="M32.8431 29.3311C32.8431 29.3311 32.5952 28.7244 31.9843 29.2007C31.9843 29.2007 31.602 28.7054 30.817 29.0182C30.817 29.0182 30.3425 28.5072 29.7923 29.018C29.7923 29.018 29.4176 28.4985 28.9256 28.9313C28.9256 28.9313 28.734 28.0788 28.2715 28.9027" stroke="#000072" stroke-width="0.2" stroke-miterlimit="10"/>
<path d="M32.471 29.752C32.471 29.752 32.4559 29.1978 31.7967 29.6435C31.7967 29.6435 31.3624 29.0999 30.5977 29.611C30.5977 29.611 30.1843 29.0516 29.6252 29.6428C29.6252 29.6428 29.2443 29.1006 28.7718 29.6255C28.7718 29.6255 28.7569 28.7217 28.1191 29.4302" stroke="#000072" stroke-width="0.2" stroke-miterlimit="10"/>
<path d="M32.156 30.2212C32.156 30.2212 32.0579 29.9188 31.5314 30.1524C31.5314 30.1524 30.9595 29.7673 30.3943 30.1425C30.3943 30.1425 30.068 29.7311 29.4709 30.0997C29.4709 30.0997 28.9795 29.7156 28.6418 30.0837C28.6418 30.0837 28.6716 29.3965 27.9551 29.9242" stroke="#000072" stroke-width="0.2" stroke-miterlimit="10"/>
<path d="M31.7769 30.5887C31.7769 30.5887 31.6961 30.2473 31.2588 30.5887C31.2588 30.5887 30.7622 30.2893 30.2039 30.6509C30.2039 30.6509 29.6545 30.3388 29.301 30.6509C29.301 30.6509 28.9222 30.1905 28.5215 30.6509C28.5215 30.6509 28.3988 30.0424 28.0117 30.5439" stroke="#000072" stroke-width="0.2" stroke-miterlimit="10"/>
<path d="M31.4446 30.764C31.4446 30.764 31.2633 30.6152 31.0814 30.8306C31.0814 30.8306 30.3554 30.6393 30.0657 31.0234C30.0657 31.0234 29.7539 30.7187 29.1954 31.0234C29.1954 31.0234 28.9225 30.5734 28.5133 31.0234C28.5133 31.0234 28.2878 30.4251 27.8652 31.0234" stroke="#000072" stroke-width="0.2" stroke-miterlimit="10"/>
<path d="M25.683 27.8691L27.1318 26.6169L28.2714 24.8834L28.4125 24.4986L29.369 25.4491L29.4441 25.9213L28.9256 26.4491L28.6426 27.0977L28.522 27.8691V28.2834L28.5122 28.5599C28.5122 28.5599 28.0174 30.6515 28.2714 31.4746L23.8588 31.5728L23.7148 31.3286L24.4356 30.0732L25.2267 28.4075L25.683 27.8691Z" fill="#000072"/>
<path d="M24.8752 19.7492C24.8752 19.7492 21.3438 25.8946 20.9473 27.6104" stroke="#000072" stroke-width="0.2" stroke-miterlimit="10"/>
<path d="M23.7459 20.2207C23.7459 20.2207 20.2939 26.4171 20.5992 26.9414" stroke="#000072" stroke-width="0.2" stroke-miterlimit="10"/>
<path d="M27.0444 19.8825C27.0444 19.8825 24.4199 26.2931 23.1992 27.791" stroke="#000072" stroke-width="0.2" stroke-miterlimit="10"/>
<path d="M22.3105 21.1538C22.3105 21.1538 23.1092 20.3959 23.3066 21.0286C23.3066 21.0286 23.8428 20.3205 24.2797 20.8055C24.2797 20.8055 25.3203 20.0541 25.4869 20.8948C25.4869 20.8948 26.433 20.2263 26.5118 21.1538C26.5118 21.1538 26.8553 21.0667 26.847 21.8459C26.847 21.8459 27.1556 22.4513 27.066 22.6865" stroke="#000072" stroke-width="0.2" stroke-miterlimit="10"/>
<path d="M23.623 20.4447C23.623 20.4447 24.2484 19.9382 24.6053 20.2208C24.6053 20.2208 25.4468 19.456 25.8855 20.0923C25.8855 20.0923 26.7176 19.9604 26.7323 20.6274C26.7323 20.6274 27.0692 21.0065 27.043 21.1541C27.043 21.1541 26.6573 23.4779 25.9197 24.8589C25.9197 24.8589 24.9417 27.868 23.9458 28.1089" stroke="#000072" stroke-width="0.2" stroke-miterlimit="10"/>
<path d="M22.1875 21.6208C22.1875 21.6208 22.6875 21.0612 22.984 21.6208C22.984 21.6208 23.7171 20.987 23.7468 21.6208C23.7468 21.6208 24.9041 21.1191 25.0569 21.7486C25.0569 21.7486 25.9114 21.2025 26.0841 22.1364C26.0841 22.1364 26.9055 21.8608 26.645 22.8111C26.645 22.8111 27.1007 22.7042 27.0148 23.3018" stroke="#000072" stroke-width="0.2" stroke-miterlimit="10"/>
<path d="M21.7363 22.3205C21.7363 22.3205 22.4629 21.7118 22.5543 22.4282C22.5543 22.4282 23.2578 21.8139 23.2963 22.5904C23.2963 22.5904 24.5533 22.0117 24.5246 22.8111C24.5246 22.8111 25.4026 22.5602 25.5602 23.3126C25.5602 23.3126 26.3187 23.0858 26.3976 23.7207C26.3976 23.7207 26.957 23.6894 26.9046 24.0947" stroke="#000072" stroke-width="0.2" stroke-miterlimit="10"/>
<path d="M21.3535 23.096C21.3535 23.096 21.9133 22.2577 22.2536 23.091C22.2536 23.091 22.7064 22.7247 22.9119 23.2437C22.9119 23.2437 24.0131 22.9142 24.1096 23.6474C24.1096 23.6474 24.8548 23.2275 25.2262 23.8905C25.2262 23.8905 26.0905 23.7626 26.2162 24.2199C26.2162 24.2199 26.6103 24.1098 26.7517 24.4985" stroke="#000072" stroke-width="0.2" stroke-miterlimit="10"/>
<path d="M21.1348 23.5818C21.1348 23.5818 21.6528 23.339 21.8072 23.8908C21.8072 23.8908 22.3437 23.4699 22.5592 23.9748C22.5592 23.9748 23.4376 23.6735 23.7193 24.3052C23.7193 24.3052 24.6709 23.9816 24.9803 24.5774C24.9803 24.5774 25.6256 24.4236 25.9777 24.8162C25.9777 24.8162 26.4058 24.672 26.4642 25.064" stroke="#000072" stroke-width="0.2" stroke-miterlimit="10"/>
<path d="M20.7578 24.2298C20.7578 24.2298 21.476 23.7512 21.4748 24.554C21.4748 24.554 22.0987 24.1581 22.1857 24.6524C22.1857 24.6524 23.157 24.3998 23.397 25.0637C23.397 25.0637 24.2056 24.5352 24.6048 25.3418C24.6048 25.3418 25.4368 24.9423 25.6254 25.6006" stroke="#000072" stroke-width="0.2" stroke-miterlimit="10"/>
<path d="M20.4941 24.9983C20.4941 24.9983 21.0491 24.4616 21.2344 25.0636C21.2344 25.0636 21.7454 24.6758 21.934 25.2264C21.934 25.2264 22.8278 25.0041 23.1297 25.6006C23.1297 25.6006 23.932 25.2918 24.3225 25.9051C24.3225 25.9051 25.0162 25.5086 25.3745 26.1123" stroke="#000072" stroke-width="0.2" stroke-miterlimit="10"/>
<path d="M20.2461 25.5046C20.2461 25.5046 20.8149 25.189 20.9939 25.6001C20.9939 25.6001 21.4921 25.2914 21.6839 25.7502C21.6839 25.7502 22.6611 25.5699 22.8127 26.1119C22.8127 26.1119 23.7047 25.8831 24.051 26.4229C24.051 26.4229 24.7287 26.2077 25.1211 26.6346C25.1211 26.6346 25.2799 26.5493 25.2796 26.9414" stroke="#000072" stroke-width="0.2" stroke-miterlimit="10"/>
<path d="M20.0254 25.9822C20.0254 25.9822 20.6333 25.7027 20.7565 26.0611C20.7565 26.0611 21.4087 25.8267 21.4613 26.2277C21.4613 26.2277 22.5673 26.0032 22.633 26.5882C22.633 26.5882 23.6123 26.3252 23.757 26.9418C23.757 26.9418 24.606 26.6286 24.7936 27.3232C24.7936 27.3232 25.1248 27.1824 25.2207 27.6104" stroke="#000072" stroke-width="0.2" stroke-miterlimit="10"/>
<path d="M9.56836 19.3014C9.56836 19.3014 12.7163 23.9419 13.4519 26.9414" stroke="#000072" stroke-width="0.2" stroke-miterlimit="10"/>
<path d="M11.377 20.1971C11.377 20.1971 13.7287 24.0607 14.5095 26.6177" stroke="#000072" stroke-width="0.2" stroke-miterlimit="10"/>
<path d="M8.05664 20.0381C8.05664 20.0381 10.7981 27.0087 11.6959 27.5522" stroke="#000072" stroke-width="0.2" stroke-miterlimit="10"/>
<path d="M7.94531 21.3392C7.94531 21.3392 10.1626 27.5509 10.824 27.8687" stroke="#000072" stroke-width="0.2" stroke-miterlimit="10"/>
<path d="M8.25586 20.3184C8.25586 20.3184 8.31702 19.5892 8.97943 20.0115C8.97943 20.0115 9.24336 19.4891 9.99377 19.9449C9.99377 19.9449 10.193 19.6652 10.8269 19.8929" stroke="#000072" stroke-width="0.2" stroke-miterlimit="10"/>
<path d="M8.0957 21.7485C8.0957 21.7485 8.15508 21.2354 8.62251 21.4361C8.62251 21.4361 8.76721 20.7251 9.57162 21.2221C9.57162 21.2221 9.72089 20.4742 10.6088 20.9319C10.6088 20.9319 11.1668 20.2765 11.8095 20.9319C11.8095 20.9319 12.2797 20.5401 12.6231 20.9319" stroke="#000072" stroke-width="0.2" stroke-miterlimit="10"/>
<path d="M7.94531 21.1323C7.94531 21.1323 8.1515 20.82 8.39919 20.9317C8.39919 20.9317 8.66622 20.2526 9.24289 20.5551C9.24289 20.5551 9.60832 20.0628 10.2678 20.3822C10.2678 20.3822 10.9544 20.0987 11.3752 20.2744" stroke="#000072" stroke-width="0.2" stroke-miterlimit="10"/>
<path d="M7.87109 22.7212C7.87109 22.7212 7.95036 22.3759 8.40015 22.5746C8.40015 22.5746 8.46214 22.0526 8.97756 22.3224C8.97756 22.3224 9.10977 21.6057 10.0271 22.0495C10.0271 22.0495 10.1197 21.2133 11.0932 21.7483C11.0932 21.7483 11.5214 21.1071 12.1699 21.5695C12.1699 21.5695 12.2422 21.2043 12.7391 21.5149" stroke="#000072" stroke-width="0.2" stroke-miterlimit="10"/>
<path d="M7.94531 23.5283C7.94531 23.5283 8.15051 22.957 8.67428 23.3021C8.67428 23.3021 8.7826 22.6928 9.32102 23.0959C9.32102 23.0959 9.71992 22.5358 10.3041 22.8115C10.3041 22.8115 10.8297 22.0516 11.5113 22.487C11.5113 22.487 12.0061 21.9018 12.5404 22.2473C12.5404 22.2473 12.5594 22.0241 13.0651 22.1367" stroke="#000072" stroke-width="0.2" stroke-miterlimit="10"/>
<path d="M8.0957 24.0947C8.0957 24.0947 8.23669 23.5073 8.90047 23.8902C8.90047 23.8902 9.2087 23.4883 9.61027 23.759C9.61027 23.759 9.95572 23.0794 10.6694 23.4703C10.6694 23.4703 11.1485 22.8515 11.9181 23.241C11.9181 23.241 12.2697 22.7243 12.9472 23.0203C12.9472 23.0203 12.8897 22.7167 13.4041 22.91" stroke="#000072" stroke-width="0.2" stroke-miterlimit="10"/>
<path d="M8.35938 24.6689C8.35938 24.6689 8.51391 24.1534 9.04968 24.4121C9.04968 24.4121 9.36891 23.8727 9.85382 24.2794C9.85382 24.2794 10.0676 23.5935 10.9748 24.0624C10.9748 24.0624 11.4077 23.4637 12.2052 23.7565C12.2052 23.7565 12.5219 23.1904 13.2358 23.5367C13.2358 23.5367 13.3842 23.2557 13.7447 23.4804" stroke="#000072" stroke-width="0.2" stroke-miterlimit="10"/>
<path d="M8.39648 25.1807C8.39648 25.1807 8.6139 24.5206 9.20778 24.6689C9.20778 24.6689 9.74139 24.4113 10.0104 24.6472C10.0104 24.6472 10.7775 24.1304 11.1715 24.4985C11.1715 24.4985 11.9642 23.9366 12.4446 24.2945C12.4446 24.2945 12.9859 23.8868 13.5158 24.1707C13.5158 24.1707 13.8062 23.8836 14.1648 24.095" stroke="#000072" stroke-width="0.2" stroke-miterlimit="10"/>
<path d="M14.5069 24.8829C14.5069 24.8829 13.9548 24.2288 13.8266 24.8441C13.8266 24.8441 12.8841 24.3377 12.7953 25.0633C12.7953 25.0633 11.8694 24.4399 11.5438 25.2544C11.5438 25.2544 10.5971 24.7877 10.3565 25.4449C10.3565 25.4449 9.75268 24.8786 9.65941 25.6003C9.65941 25.6003 9.34418 25.4924 9.28906 25.7725" stroke="#000072" stroke-width="0.2" stroke-miterlimit="10"/>
<path d="M14.7559 25.4447C14.7559 25.4447 14.2454 24.9393 14.1096 25.5123C14.1096 25.5123 13.3592 25.0697 13.0419 25.6682C13.0419 25.6682 12.2326 25.3015 11.9182 25.9818C11.9182 25.9818 11.0525 25.5491 10.8229 26.295C10.8229 26.295 10.2284 26.0793 10.025 26.6178C10.025 26.6178 9.71935 26.5452 9.56836 26.9414" stroke="#000072" stroke-width="0.2" stroke-miterlimit="10"/>
<path d="M14.8762 25.8783C14.8762 25.8783 14.4909 25.2541 14.311 26.0313C14.311 26.0313 13.8329 25.7647 13.2731 26.3124C13.2731 26.3124 12.5571 26.0925 12.164 26.5175C12.164 26.5175 11.5969 26.3776 11.1854 26.7507C11.1628 26.7712 11.1407 26.7932 11.1191 26.8169" stroke="#000072" stroke-width="0.2" stroke-miterlimit="10"/>
<path d="M11.1389 26.793C11.1389 26.793 10.61 26.75 10.3352 27.1921C10.3352 27.1921 9.9536 27.2067 9.7774 27.61C9.6012 28.0133 9.69472 27.5522 9.69472 27.5522" stroke="#000072" stroke-width="0.2" stroke-miterlimit="10"/>
<path fill-rule="evenodd" clip-rule="evenodd" d="M17.4532 2.90615C23.5281 2.90615 28.2013 8.57638 28.2013 13.311C28.2013 18.0458 19.6357 19.959 17.4532 20.0524C15.2706 20.1457 6.25977 17.9069 6.25977 13.1722C6.25977 8.43745 11.3783 2.90615 17.4532 2.90615Z" fill="#FF850B"/>
<path d="M17.4561 3.13586C11.3978 3.13586 6.51939 8.62603 6.51939 13.1717C6.51939 14.3537 7.11841 15.4653 8.29991 16.4755C10.9316 18.7258 15.7331 19.8242 17.3207 19.8243C17.3643 19.8243 17.4052 19.8235 17.4439 19.8219C18.5941 19.7727 21.2439 19.2418 23.5338 18.2157C25.5473 17.3135 27.9474 15.73 27.9474 13.3105C27.9474 8.60531 23.3646 3.13586 17.4561 3.13586ZM17.3272 20.2847C15.6242 20.2847 10.7161 19.1777 7.94559 16.8088C6.65853 15.7082 6.00586 14.4845 6.00586 13.1717C6.00586 10.8017 7.27205 8.16059 9.39293 6.10666C11.6446 3.92604 14.5835 2.67537 17.4561 2.67537C20.3466 2.67537 23.1332 3.92085 25.3028 6.1824C27.2803 8.24372 28.461 10.9084 28.461 13.3105C28.461 15.4119 26.8365 17.2505 23.7633 18.6276C21.4067 19.6837 18.6635 20.2307 17.4683 20.2818C17.4242 20.2837 17.377 20.2847 17.3272 20.2847Z" fill="#000072"/>
<g opacity="0.5">
<g opacity="0.5">
<path opacity="0.5" fill-rule="evenodd" clip-rule="evenodd" d="M17.4528 2.90514C21.1864 2.90514 24.3901 5.0473 26.3052 7.79737C26.3251 7.88625 26.3443 7.97548 26.3612 8.06543C24.6127 5.76693 21.8864 4.25128 18.8672 3.84242C19.0608 3.90801 19.173 3.9859 19.173 4.06951C19.173 4.30321 18.2953 4.49264 17.2127 4.49264C16.1302 4.49264 15.2525 4.30321 15.2525 4.06951C15.2525 3.9859 15.3645 3.90801 15.5583 3.84242C12.5389 4.25137 9.81293 5.76711 8.06445 8.06543L8.07411 8.01698C10.0902 5.15704 13.5767 2.90514 17.4528 2.90514Z" fill="white"/>
</g>
</g>
<path fill-rule="evenodd" clip-rule="evenodd" d="M27.9128 14.7653C26.4022 18.4423 19.3967 19.9688 17.4532 20.0519C15.5296 20.1342 8.30351 18.4045 6.61523 14.7519C6.74467 12.7623 7.87178 12.2185 9.95617 13.1908C10.8134 13.5905 11.6853 14.0075 12.3763 13.69C16.3202 11.8772 18.7283 12.219 21.4278 13.69C22.6902 14.378 23.9221 13.3518 24.695 13.0389C27.1567 12.0421 28.2861 12.7393 27.9128 14.7653Z" fill="white"/>
<g opacity="0.300003">
<g opacity="0.300003">
<path opacity="0.300003" fill-rule="evenodd" clip-rule="evenodd" d="M28.1545 12.4839C28.1851 12.7617 28.2013 13.0378 28.2013 13.3107C28.2013 13.4851 28.1883 13.6551 28.1659 13.822L28.1682 13.7721C27.8682 16.9318 20.773 19.3444 16.956 19.5392C13.7698 19.7019 7.40608 16.626 6.33607 13.7721C6.33806 13.8313 6.34145 13.8903 6.34443 13.9493C6.28992 13.6979 6.25977 13.4391 6.25977 13.1719C6.25977 12.9591 6.27051 12.7448 6.2907 12.5293L6.30732 12.4832C8.79467 15.6902 12.8751 17.6024 17.2313 17.6024C21.587 17.6024 25.6672 15.6903 28.1545 12.4839Z" fill="#000072"/>
</g>
</g>
<path fill-rule="evenodd" clip-rule="evenodd" d="M13.5246 10.9706C13.1849 10.8348 12.8372 10.6072 12.4819 10.2882C11.8659 10.3133 11.373 10.9033 11.373 11.6275C11.373 12.3677 11.8877 12.9678 12.5224 12.9678C13.1573 12.9678 13.672 12.3677 13.672 11.6275C13.672 11.3888 13.6184 11.1648 13.5246 10.9706Z" fill="#000072"/>
<path d="M23.173 9.70925C22.7584 10.2031 22.3508 10.5851 21.9502 10.855C21.3609 11.252 20.723 11.3216 20.6523 10.8842C20.9694 10.8517 21.2997 10.7195 21.6433 10.4881C22.4901 9.91734 22.7548 9.54989 23.173 9.70925Z" fill="#000072"/>
<path fill-rule="evenodd" clip-rule="evenodd" d="M21.2392 10.9706C21.5788 10.8348 21.9266 10.6072 22.282 10.2882C22.898 10.3133 23.3907 10.9033 23.3907 11.6275C23.3907 12.3677 22.8762 12.9678 22.2413 12.9678C21.6064 12.9678 21.0918 12.3677 21.0918 11.6275C21.0918 11.3888 21.1453 11.1648 21.2392 10.9706Z" fill="#000072"/>
<path fill-rule="evenodd" clip-rule="evenodd" d="M21.7633 11.2859C21.5768 11.2859 21.4258 11.4303 21.4258 11.6083C21.4258 11.7863 21.5768 11.9307 21.7633 11.9307C21.9496 11.9307 22.1007 11.7863 22.1007 11.6083C22.1007 11.4303 21.9496 11.2859 21.7633 11.2859Z" fill="white"/>
<path fill-rule="evenodd" clip-rule="evenodd" d="M17.2345 11.8629C18.0565 11.8629 18.7229 12.2613 18.7229 12.7527C18.7229 13.2442 18.0565 13.6426 17.2345 13.6426C16.4124 13.6426 15.7461 13.2442 15.7461 12.7527C15.7461 12.2613 16.4124 11.8629 17.2345 11.8629Z" fill="#000072"/>
<path d="M18.6551 14.7334C18.1312 14.7334 17.6245 14.5587 17.2356 14.2465C16.8013 14.6011 16.2027 14.7661 15.6143 14.6822C14.9307 14.5848 14.3511 14.1647 14.1013 13.5858C14.0502 13.4672 14.1159 13.3339 14.2482 13.288C14.3804 13.2422 14.5291 13.3011 14.5803 13.4197C14.7642 13.8462 15.1913 14.1557 15.6949 14.2275C16.1987 14.2993 16.7116 14.1238 17.034 13.7696C17.0821 13.7167 17.154 13.6857 17.2301 13.6849C17.3068 13.685 17.3787 13.7138 17.4282 13.7657C17.7644 14.119 18.2723 14.3067 18.7891 14.2679C19.3052 14.2291 19.7719 13.9679 20.0377 13.5692C20.1104 13.46 20.2683 13.4244 20.3898 13.4898C20.5115 13.555 20.5512 13.6964 20.4784 13.8055C20.128 14.3311 19.5126 14.6756 18.8321 14.7267C18.773 14.7312 18.7139 14.7334 18.6551 14.7334Z" fill="#000072"/>
<path fill-rule="evenodd" clip-rule="evenodd" d="M17.2336 13.9145C17.7688 14.3707 18.2946 14.5648 18.8112 14.4966C18.939 17.5038 15.5395 17.3813 15.6552 14.4542C16.2885 14.5262 16.8145 14.3464 17.2336 13.9145Z" fill="#000072"/>
<path d="M15.9118 14.7004C15.9372 15.4666 16.2403 16.069 16.745 16.337C17.0785 16.514 17.4553 16.5165 17.7789 16.3437C18.2621 16.0856 18.54 15.5079 18.5579 14.7398C18.121 14.7273 17.6821 14.5577 17.2475 14.2335C16.8733 14.544 16.4297 14.7005 15.9234 14.7005C15.9196 14.7005 15.9157 14.7005 15.9118 14.7004ZM17.2727 16.9312C17.003 16.9312 16.7318 16.8652 16.4834 16.7333C15.7525 16.3452 15.3574 15.5117 15.3995 14.4464L15.4095 14.1944L15.6884 14.2262C16.2367 14.2885 16.6784 14.1372 17.0407 13.7638L17.2168 13.5823L17.4113 13.748C17.8907 14.1566 18.3371 14.3272 18.7747 14.2692L19.0578 14.2319L19.0686 14.4883C19.1136 15.5462 18.7392 16.3667 18.0417 16.7393C17.8022 16.8672 17.5381 16.9312 17.2727 16.9312Z" fill="#000072"/>
<path fill-rule="evenodd" clip-rule="evenodd" d="M17.2623 15.5775C16.8052 15.5775 16.3759 15.7738 16.1074 16.1052C16.7254 16.8945 17.8212 16.9074 18.4116 16.0985C18.1428 15.7711 17.7161 15.5775 17.2623 15.5775Z" fill="#FF0066"/>
<path d="M16.437 16.1112C16.675 16.3465 16.9744 16.4741 17.285 16.4715C17.5853 16.4671 17.8623 16.34 18.0802 16.11C17.863 15.9189 17.5675 15.8085 17.2594 15.8085C16.95 15.8085 16.6542 15.9193 16.437 16.1112ZM17.2691 16.9321C16.7403 16.9321 16.2404 16.6802 15.8944 16.2382L15.7891 16.1037L15.8968 15.9706C16.2125 15.5808 16.7219 15.348 17.2594 15.348C17.7925 15.348 18.2994 15.5778 18.6154 15.9627L18.7211 16.0915L18.6235 16.2254C18.3013 16.6668 17.8165 16.9243 17.2934 16.9319C17.2853 16.9321 17.2771 16.9321 17.2691 16.9321Z" fill="#000072"/>
<path fill-rule="evenodd" clip-rule="evenodd" d="M26.9504 8.49268C25.3015 6.04919 23.3246 4.39486 21.0195 3.52995C25.5411 -2.15188 27.5181 -0.497641 26.9504 8.49268Z" fill="#FF850B"/>
<path d="M21.4151 3.43356C23.4387 4.26182 25.225 5.71366 26.7363 7.75765C27.0121 2.21805 26.1742 0.7438 25.4035 0.500708C24.8152 0.315323 23.649 0.683978 21.4151 3.43356ZM27.1612 9.24805L26.7321 8.61214C25.1196 6.22258 23.1647 4.58423 20.9218 3.74261L20.625 3.63126L20.8119 3.39644C22.8802 0.797431 24.4374 -0.292272 25.5738 0.0663109C27.0234 0.52357 27.5427 3.20532 27.2081 8.50596L27.1612 9.24805Z" fill="#000072"/>
<path fill-rule="evenodd" clip-rule="evenodd" d="M20.6291 8.78956C21.0094 8.64973 21.3928 8.70041 21.4853 8.90279C21.5778 9.10517 21.3445 9.38267 20.9643 9.52259C20.584 9.66241 20.2007 9.61165 20.1081 9.40927C20.0156 9.20689 20.2489 8.92939 20.6291 8.78956Z" fill="white"/>
<path fill-rule="evenodd" clip-rule="evenodd" d="M14.0014 8.77644C13.6212 8.63652 13.2378 8.6873 13.1453 8.88966C13.0527 9.09206 13.286 9.36956 13.6662 9.50937C14.0464 9.6492 14.4298 9.59852 14.5223 9.39615C14.6149 9.19377 14.3816 8.91626 14.0014 8.77644Z" fill="white"/>
<path fill-rule="evenodd" clip-rule="evenodd" d="M12.693 11.2859C12.5065 11.2859 12.3555 11.4303 12.3555 11.6083C12.3555 11.7863 12.5065 11.9307 12.693 11.9307C12.8793 11.9307 13.0304 11.7863 13.0304 11.6083C13.0304 11.4303 12.8793 11.2859 12.693 11.2859Z" fill="white"/>
<path fill-rule="evenodd" clip-rule="evenodd" d="M7.68484 8.60938C9.33362 6.1658 11.3105 4.51156 13.6156 3.64656C9.09404 -2.03527 7.11711 -0.380939 7.68484 8.60938Z" fill="#FF850B"/>
<path d="M9.50705 0.576972C9.40385 0.576972 9.31279 0.591952 9.23248 0.617301C8.46176 0.860405 7.6239 2.33462 7.89965 7.87422C9.41083 5.8303 11.1971 4.37845 13.2208 3.5501C11.2919 1.17603 10.159 0.576972 9.50705 0.576972ZM7.47479 9.36475L7.4279 8.62258C7.09319 3.32191 7.61246 0.640176 9.06209 0.182878C10.1978 -0.175268 11.7555 0.913807 13.824 3.51299L14.0109 3.7478L13.7141 3.85915C11.4711 4.70087 9.51619 6.33925 7.9039 8.72878L7.47479 9.36475Z" fill="#000072"/>
<g opacity="0.649994">
<g opacity="0.649994">
<path opacity="0.649994" fill-rule="evenodd" clip-rule="evenodd" d="M13.0444 3.87744C13.2309 3.79472 13.4199 3.71753 13.611 3.6457C10.8086 0.124227 8.98424 -0.577931 8.13672 1.5364C9.03927 0.0496294 10.675 0.82987 13.0441 3.87726L13.0444 3.87744Z" fill="white"/>
</g>
</g>
<path fill-rule="evenodd" clip-rule="evenodd" d="M8.91873 6.95264C9.72248 6.06115 10.6334 5.28947 11.6516 4.63783C9.36916 0.651991 8.45815 1.42357 8.91873 6.95264Z" fill="#000072"/>
<path d="M9.50734 2.36371C9.49611 2.36371 9.48843 2.36506 9.48396 2.36618C9.45647 2.37313 9.21254 2.46327 9.10815 3.47841C9.03782 4.16238 9.04613 5.13359 9.13257 6.3706C9.79621 5.69727 10.5304 5.09302 11.3232 4.56796C10.1223 2.50945 9.62407 2.36371 9.50734 2.36371ZM8.71218 7.54932L8.66396 6.96984C8.31349 2.76256 8.81141 2.05763 9.34476 1.92293C9.98258 1.76146 10.7414 2.54227 11.8812 4.53269L11.9826 4.70972L11.8019 4.8253C10.8078 5.46155 9.90532 6.22602 9.1196 7.09746L8.71218 7.54932Z" fill="#000072"/>
<g opacity="0.300003">
<g opacity="0.300003">
<path opacity="0.300003" fill-rule="evenodd" clip-rule="evenodd" d="M9.21348 2.26662C8.38058 2.82521 7.84259 4.33649 7.59961 6.80033C7.61424 7.36613 7.64181 7.96906 7.6822 8.60938C7.80538 8.4096 7.93562 8.21213 8.07323 8.01779L8.06359 8.06624C8.72892 7.15617 9.44462 6.3672 10.2104 5.69922C9.76261 6.078 9.34063 6.48579 8.94444 6.92248C8.93667 6.93104 8.92891 6.93953 8.92115 6.94827C8.92045 6.94897 8.91976 6.94978 8.91896 6.95077C8.91826 6.95148 8.91768 6.9522 8.91696 6.95291C8.6938 4.27395 8.7927 2.71188 9.21348 2.26662ZM25.4183 2.15018C26.2513 2.70884 26.7893 4.22005 27.0322 6.68388C27.0176 7.24968 26.99 7.8527 26.9497 8.49294C26.8264 8.29315 26.6962 8.09577 26.5586 7.90133L26.5682 7.94979C25.903 7.03973 25.1873 6.25075 24.4214 5.58287C24.8693 5.96165 25.2912 6.36943 25.6874 6.80612C25.6951 6.8146 25.7029 6.82317 25.7107 6.83183C25.7114 6.83262 25.7121 6.83343 25.7128 6.83431C25.7136 6.83512 25.7141 6.83575 25.7148 6.83656C25.9381 4.15759 25.8391 2.59543 25.4183 2.15018Z" fill="#000072"/>
</g>
</g>
<g opacity="0.649994">
<g opacity="0.649994">
<path opacity="0.649994" fill-rule="evenodd" clip-rule="evenodd" d="M21.5842 3.76172C21.3977 3.679 21.2087 3.60181 21.0176 3.53007C23.8199 0.00858831 25.6444 -0.69366 26.492 1.42067C25.5894 -0.0660987 23.9536 0.71422 21.5845 3.76163L21.5842 3.76172Z" fill="white"/>
</g>
</g>
<path fill-rule="evenodd" clip-rule="evenodd" d="M25.7192 6.83594C24.9154 5.94435 24.0045 5.17268 22.9863 4.52102C25.2687 0.535201 26.1798 1.30686 25.7192 6.83594Z" fill="#000072"/>
<path d="M23.3117 4.4516C24.1046 4.97675 24.8389 5.58106 25.5023 6.2543C25.5888 5.01727 25.5971 4.04608 25.5267 3.36208C25.4223 2.34694 25.1785 2.25677 25.151 2.24985C25.1003 2.23724 24.6284 2.19473 23.3117 4.4516ZM25.9226 7.43311L25.5153 6.98119C24.7298 6.10985 23.8274 5.34534 22.833 4.70894L22.6523 4.59336L22.7537 4.41634C23.8934 2.42606 24.6516 1.64529 25.2902 1.80661C25.8235 1.9413 26.3215 2.64624 25.9709 6.85358L25.9226 7.43311Z" fill="#000072"/>
<path d="M9.50715 0.576995C9.40395 0.576995 9.31289 0.591975 9.23258 0.617324C8.46186 0.860429 7.62393 2.33468 7.89968 7.87429C9.41094 5.83032 11.1972 4.37845 13.2209 3.55012C11.2921 1.17605 10.1591 0.576995 9.50715 0.576995ZM7.47475 9.36475L7.42786 8.6226C7.09322 3.32194 7.61256 0.640161 9.06219 0.182901C10.1979 -0.175245 11.7556 0.91383 13.8241 3.51301L14.011 3.74782L13.7142 3.85918C11.4712 4.70089 9.5163 6.33928 7.90387 8.7288L7.47475 9.36475Z" fill="#000072"/>
<path d="M17.4561 3.13586C11.3978 3.13586 6.51939 8.62603 6.51939 13.1717C6.51939 14.3537 7.11841 15.4653 8.29991 16.4755C10.9316 18.7258 15.7331 19.8242 17.3207 19.8243C17.3643 19.8243 17.4052 19.8235 17.4439 19.8219C18.5941 19.7727 21.2439 19.2418 23.5338 18.2157C25.5473 17.3135 27.9474 15.73 27.9474 13.3105C27.9474 8.60531 23.3646 3.13586 17.4561 3.13586ZM17.3272 20.2847C15.6242 20.2847 10.7161 19.1777 7.94559 16.8088C6.65853 15.7082 6.00586 14.4845 6.00586 13.1717C6.00586 10.8017 7.27205 8.16059 9.39293 6.10666C11.6446 3.92604 14.5835 2.67537 17.4561 2.67537C20.3466 2.67537 23.1332 3.92085 25.3028 6.1824C27.2803 8.24372 28.461 10.9084 28.461 13.3105C28.461 15.4119 26.8365 17.2505 23.7633 18.6276C21.4067 19.6837 18.6635 20.2307 17.4683 20.2818C17.4242 20.2837 17.377 20.2847 17.3272 20.2847Z" fill="#000072"/>
<g opacity="0.559998">
<g opacity="0.559998">
<path opacity="0.559998" fill-rule="evenodd" clip-rule="evenodd" d="M17.7226 12.2192C17.9471 12.2723 18.1131 12.3691 18.0936 12.4354C18.0742 12.5017 17.8765 12.5125 17.652 12.4594C17.4275 12.4064 17.2613 12.3096 17.2809 12.2432C17.3004 12.177 17.4982 12.1661 17.7226 12.2192Z" fill="white"/>
</g>
</g>
<path d="M11.7754 9.70925C12.1901 10.2031 12.5977 10.5851 12.9983 10.855C13.5877 11.252 14.2255 11.3216 14.2962 10.8842C13.9792 10.8517 13.6488 10.7195 13.3052 10.4881C12.4584 9.91734 12.1936 9.54989 11.7754 9.70925Z" fill="#000072"/>
<path d="M21.4151 3.43356C23.4387 4.26182 25.225 5.71366 26.7363 7.75765C27.0121 2.21805 26.1742 0.7438 25.4035 0.500708C24.8152 0.315323 23.649 0.683978 21.4151 3.43356ZM27.1612 9.24805L26.7321 8.61214C25.1196 6.22258 23.1647 4.58423 20.9218 3.74261L20.625 3.63126L20.8119 3.39644C22.8802 0.797431 24.4374 -0.292272 25.5738 0.0663109C27.0234 0.52357 27.5427 3.20532 27.2081 8.50596L27.1612 9.24805Z" fill="#000072"/>
</svg>
