<svg width="924" height="868" viewBox="0 0 924 868" fill="none" xmlns="http://www.w3.org/2000/svg">
<path opacity="0.03" fill-rule="evenodd" clip-rule="evenodd" d="M788.028 98.7453C764.807 121.703 741.481 144.607 717.902 167.877C749.033 190.726 767.26 221.798 788.95 250.59C805.378 272.341 823.382 293.128 840.464 314.484C844.061 318.935 847.748 319.193 853.294 317.564C874.404 311.296 895.634 305.448 916.879 299.613C918.975 299.03 921.517 299.776 923.822 299.925L924 302.503C921.651 303.29 919.272 304.186 916.909 304.864C895.218 311.052 873.587 317.429 851.718 323.222C845.295 324.932 842.485 327.619 841.088 333.629C829.447 385.122 835.453 435.746 848.09 486.424C851.718 501.051 857.441 509.749 875.653 510.644C888.201 511.214 900.54 514.918 912.939 517.238C913.177 518.012 913.4 518.785 913.578 519.586C911.542 520.223 909.312 521.58 907.453 521.268C892.089 518.746 876.774 515.983 861.515 512.978C855.94 511.879 851.554 512.598 846.827 515.664C814.447 536.723 791.745 564.701 774.44 596.302C762.889 617.333 753.3 639.178 742.819 660.63C741.362 663.642 739.652 666.56 737.734 670.223C760.941 689.273 784.624 708.703 808.351 728.133C805.616 733.832 802.984 731.295 800.041 728.907C782.037 714.185 763.974 699.558 746.03 684.836C730.955 672.516 731.014 672.489 712.817 681.254C688.109 693.181 663.192 704.714 638.796 717.089C618.057 727.55 599.979 740.915 585.082 757.713C581.975 761.241 581.217 764.104 583.045 768.554C592.679 791.62 601.926 814.809 611.262 837.943C611.441 838.391 611.783 838.812 611.842 839.3C612.08 842.19 612.244 845.148 612.422 848.065C610.356 845.827 607.516 843.9 606.475 841.363C596.702 818.352 587.276 795.22 578.199 771.973C576.073 766.519 573.204 764.863 566.9 764.931C524.976 765.27 484.404 773.384 443.788 781.607C421.354 786.152 398.891 790.969 376.471 795.46C371.907 796.342 369.96 798.215 368.919 802.245C363.894 821.634 358.527 840.901 353.279 860.209C352.58 862.692 351.837 865.162 351.198 867.509C344.389 867.998 345.95 864.687 346.812 861.58C352.521 840.426 358.468 819.327 363.597 798.011C364.816 793.127 364.474 787.116 362.437 782.462C343.913 739.694 306.999 718.256 257.775 711.675C239.95 709.3 222.006 707.781 204.18 705.569C199.393 704.931 196.45 706.153 193.283 709.3C172.181 730.241 150.951 751.073 129.594 771.797C127.914 773.344 125.089 773.954 122.844 774.999C122.264 774.199 121.625 773.425 121.045 772.625C145.338 748.663 169.675 724.714 194.666 700.047C189.656 694.769 184.913 689.49 179.799 684.524C162.494 668.188 144.728 652.286 127.765 635.623C101.287 609.613 92.4565 595.61 73.546 552.801C70.0225 553.724 66.3356 554.606 62.7081 555.651C44.5409 560.807 26.3588 566.058 8.19159 571.051C5.88724 571.716 3.06256 570.997 0.520338 570.888C2.60169 569.341 4.44517 567.13 6.80898 566.397C26.4183 560.549 46.0424 554.81 65.8301 549.436C71.3159 547.971 73.8581 545.325 75.2854 540.441C85.4394 506.37 83.477 472.327 75.0624 438.446C69.4725 416.017 62.5445 393.901 55.6761 371.784C54.9327 369.477 51.0079 366.913 48.0346 366.316C32.3798 362.992 16.5021 360.319 0.698738 357.415L0 355.095C2.02188 354.498 4.2073 353.141 6.06565 353.412C17.5428 355.203 29.0199 356.94 40.3336 359.518C47.3804 361.146 51.8107 359.939 57.1182 355.041C85.6178 328.582 107.829 298.65 122.428 264.294C133.742 237.727 139.911 210.197 141.755 181.92C141.918 178.704 139.956 174.552 137.429 172.178C121.045 156.723 104.201 141.635 87.2829 126.208C89.1858 122.232 91.5496 123.915 94.4338 126.466C110.416 140.658 126.397 154.878 142.602 168.827C144.565 170.509 148.147 172.151 150.556 171.744C206.514 162.192 258.622 144.702 302.39 110.876C309.601 105.326 315.949 98.8674 322.817 93.0058C326.564 89.8443 327.025 86.6015 325.582 82.1917C317.971 58.3112 310.716 34.3085 303.312 10.3465C302.97 9.23392 302.331 8.05346 302.39 6.92728C302.465 4.66134 302.866 2.42254 303.148 0.170166C304.695 1.85266 307.133 3.33163 307.772 5.25835C313.079 21.6355 318.09 38.0805 323.233 54.4577C325.776 62.6667 328.66 70.8349 330.801 79.0981C332.005 83.8606 334.889 86.1266 339.736 87.8905C386.982 105.014 435.27 105.217 484.181 95.5567C497.1 93.0058 509.797 89.4237 522.597 86.6015C527.384 85.5703 529.48 83.4536 530.551 79.1252C536.438 55.5703 542.623 32.0833 548.837 8.5962C549.417 6.64234 551.275 4.95984 552.524 3.1688C553.446 3.53515 554.323 3.92864 555.259 4.32213C554.962 6.30313 554.798 8.32483 554.338 10.2651C548.614 32.6396 542.756 54.9597 537.375 77.4563C536.735 80.2921 537.717 84.634 539.842 86.7236C585.483 131.065 642.022 156.493 708.774 163.752C711.42 164.037 715.285 162.232 717.248 160.333C738.121 140.17 758.771 119.79 779.48 99.5458C781.695 97.4291 783.925 93.2907 788.088 98.7453H788.028ZM198.903 695.895C210.216 684.809 220.995 674.429 231.387 663.751C232.769 662.326 233.007 658.853 232.085 656.953C227.984 647.711 223.5 638.614 218.646 629.68C199.497 594.552 173.748 564.023 138.975 539.938C136.551 538.283 132.983 536.017 130.783 536.601C113.88 540.902 97.0801 545.868 80.013 550.698C87.8032 576.248 100.321 598.636 118.89 617.7C144.624 644.09 171.682 669.382 198.903 695.895V695.895ZM837.297 321.825C819.754 299.559 802.747 278.202 786.14 256.533C771.645 237.632 758.265 217.999 743.22 199.383C735.147 189.356 724.696 180.848 714.646 171.038C701.727 183.725 690.086 194.973 678.817 206.574C677.628 207.836 678.267 211.472 679.367 213.413C686.979 226.683 694.472 240.02 702.767 252.965C722.942 284.322 748.468 311.594 781.74 332.598C783.91 333.969 787.226 335.651 789.352 335.095C805.556 330.929 821.627 326.248 837.297 321.825V321.825ZM372.264 790.793C439.581 778.635 503.924 759.789 573.085 759.517C567.599 746.003 562.752 733.344 557.147 720.861C555.514 717.821 552.668 715.466 549.194 714.28C530.67 708.907 511.596 709.124 492.596 711.865C456.187 717.129 422.618 730.237 388.707 742.285C387.674 742.692 386.745 743.29 385.979 744.042C385.214 744.794 384.629 745.684 384.262 746.654C380.173 760.861 376.486 775.108 372.264 790.793V790.793ZM58.2778 361.241C60.2402 362.273 61.043 362.951 61.9796 363.141C77.0396 365.963 92.0105 368.799 107.145 371.282C109.107 371.594 112.081 370.251 113.657 368.853C159.357 328.419 183.01 279.057 187.782 222.11C187.901 220.061 188.184 217.185 186.92 216.031C174.685 204.729 162.122 193.725 148.326 181.459C142.097 252.001 113.894 312.001 58.2332 361.241H58.2778ZM153.485 176.927C165.779 188.324 177.42 199.247 189.373 209.939C190.696 211.147 193.818 211.567 195.84 211.228C245.168 202.653 290.973 187.09 328.749 156.208C344.612 143.25 344.552 143.182 338.903 125.163C335.712 114.986 332.501 104.814 329.269 94.6476C281.324 141.92 220.37 164.213 153.485 176.873V176.927ZM135.362 529.246C153.068 524.226 169.452 519.694 185.731 514.687C187.812 514.063 189.938 511.051 190.354 508.894C192.257 498.867 194.339 488.826 194.859 478.731C196.078 454.715 187.931 432.028 182.46 408.853C178.892 393.901 172.083 385.841 154.258 384.946C142.379 384.376 130.664 381.079 118.087 378.84C119.737 429.708 138.365 477.781 135.362 529.179V529.246ZM836.331 327.605C821.285 331.811 807.786 335.923 794.05 339.315C787.835 340.834 785.278 343.657 784 349.288C773.801 394.362 779.331 438.582 790.883 482.802C793.47 492.652 798.019 497.021 809.169 498.215C821.568 499.504 833.788 502.408 845.147 504.403C839.973 474.932 833.967 446.167 830.101 417.157C826.251 387.673 829.12 358.188 836.331 327.605V327.605ZM733.482 666.492C760.138 607.496 785.174 549.341 845.043 509.993C828.198 506.886 813.213 503.914 798.093 501.458C795.744 501.065 792.221 502.259 790.318 503.778C779.257 512.571 767.587 520.943 757.879 530.807C737.749 551.295 724.428 575.596 712.728 600.549C707.183 612.245 701.875 624.036 696.271 636.22L733.482 666.492V666.492ZM117.403 373.1C136.611 376.628 154.154 379.939 171.801 382.842C173.703 383.154 176.588 381.323 178.268 379.79C213.517 347.809 232.323 309.152 236.129 264.539C236.307 262.381 236.07 259.41 234.628 258.012C221.991 245.95 209.072 234.213 196.212 222.395C195.454 222.639 194.651 222.897 193.967 223.155C188.273 280.848 164.427 331.133 117.403 373.087V373.1ZM527.518 90.4956C462.862 108.27 399.678 115.299 334.948 91.6083C339.037 104.96 343.021 116.439 345.965 128.148C347.57 134.675 351.451 137.89 358.245 140.278C409.699 158.257 460.707 152.734 511.655 138.569C512.673 138.179 513.589 137.599 514.345 136.865C515.1 136.13 515.678 135.26 516.041 134.308C519.921 120.346 523.43 106.289 527.518 90.4956V90.4956ZM534.148 89.288C530.283 104.308 526.715 117.605 523.548 130.984C523.39 132.067 523.479 133.169 523.809 134.22C524.139 135.27 524.703 136.247 525.466 137.09C563.421 174.471 610.311 196.791 666.27 203.779C668.708 204.064 672.216 204.064 673.614 202.775C685.076 192.083 696.122 181.052 708.462 169.003C639.346 160.74 581.826 135.041 534.148 89.288V89.288ZM672.216 212.626C659.817 224.742 648.147 235.977 636.908 247.483C635.808 248.636 636.298 251.906 637.25 253.67C641.457 261.567 645.902 269.328 650.57 277.076C667.533 305.298 688.585 330.577 717.783 349.708C720.191 351.296 723.759 353.426 726.034 352.842C743.458 348.365 760.644 343.317 779.896 337.863C729.097 305.556 698.114 261.432 672.216 212.626V212.626ZM197.49 216.466C206.544 224.729 214.736 232.368 223.106 239.844C239.667 254.579 239.727 254.634 262.443 249.342C298.034 240.997 330.518 227.415 356.996 203.833C360.564 200.618 361.724 197.836 360.163 193.25C356.238 182.219 353.116 170.984 349.607 159.817C348.566 156.398 347.303 152.979 345.742 148.474C304.784 187.402 253.612 205.774 197.49 216.452V216.466ZM779.079 343.684C762.621 348.297 747.918 352.72 732.962 356.506C727.119 358.012 724.488 360.509 723.209 365.963C714.438 404.416 719.522 442.177 730.732 479.559C731.341 481.743 734.999 484.145 737.764 484.769C747.457 486.981 757.358 488.46 767.23 490.251C773.816 491.404 780.327 492.612 788.103 493.982C773.533 444.063 766.591 395.149 779.079 343.643V343.684ZM785.813 499.572C783.004 498.826 781.309 498.256 779.629 497.944C766.13 495.434 752.764 492.666 739.147 490.753C735.281 490.21 730.197 491.092 726.956 493.073C711.851 502.218 699.051 513.873 690.339 528.012C676.141 551.146 663.504 575.027 650.243 598.527C664.619 610.291 677.42 620.725 691.558 632.245C714.037 582.272 735.415 533.059 785.813 499.572V499.572ZM139.703 533.426C187.069 565.963 216.951 608.039 238.181 655.338C239.444 654.999 240.084 655.026 240.366 654.728C247.755 647.632 255.084 640.454 262.399 633.303C275.095 620.739 275.095 620.712 267.305 605.027C251.263 572.747 229.454 544.362 198.1 522.422C195.647 520.698 191.663 518.88 189.18 519.518C173.228 523.588 157.469 528.351 139.703 533.426V533.426ZM513.751 143.535C459.012 158.27 405.655 163.494 350.841 143.114C356.03 159.939 360.653 175.122 365.5 190.238C365.842 191.269 367.343 192.232 368.562 192.721C410.561 209.016 453.125 206.9 495.822 195.244C497.859 194.675 500.669 193.25 501.085 191.744C505.396 176.235 509.321 160.604 513.751 143.535ZM667.102 209.41C638.32 205.149 611.783 198.297 586.896 186.723C562.217 175.19 540.868 159.709 520.754 140.97L508.176 189.803C511.343 192.517 514.331 194.837 516.977 197.307C545.373 223.48 579.611 239.817 619.796 246.004C623.364 246.533 628.686 246.588 630.678 244.742C642.884 233.63 654.406 221.879 667.102 209.41V209.41ZM578.303 756.356C593.714 738.734 612.754 724.034 634.351 713.086C657.751 701.078 681.746 690.02 705.458 678.486C712.104 675.284 718.675 671.919 726.019 668.296C714.111 658.581 703.288 649.531 692.138 640.82C690.77 639.694 687.143 639.382 685.463 640.155C660.263 652.163 634.975 664.117 610.058 676.668C592.696 685.309 577.465 697.113 565.309 711.349C563.719 713.276 562.499 716.695 563.302 718.771C567.733 730.901 572.817 742.828 578.318 756.356H578.303ZM203.229 699.423C206.455 699.938 208.194 700.277 209.919 700.494C227.744 702.652 245.629 704.334 263.365 707.048C310.522 714.253 346.292 735.46 366.139 775.569C366.6 776.478 367.581 777.279 368.86 778.798C372.264 766.207 375.609 754.524 378.493 742.787C379.073 740.657 378.493 738.039 377.69 735.935C364.756 703.452 340.241 681.824 302.167 674.389C282.32 670.522 261.953 668.785 241.823 666.248C239.92 666.003 237.155 666.356 236.055 667.442C225.217 677.686 214.661 688.174 203.229 699.382V699.423ZM61.1917 368.243C79.1953 426.709 99.3249 483.494 79.9387 544.905C96.4408 540.196 111.263 536.139 125.922 531.621C127.527 531.092 129.088 527.985 129.088 526.071C129.148 514.959 129.668 503.765 128.167 492.761C123.097 455.488 117.329 418.27 111.605 381.038C111.308 379.477 109.241 377.252 107.621 376.927C92.7538 373.969 77.7384 371.35 61.1917 368.311V368.243ZM552.39 708.608C546.473 694.049 541.032 680.332 535.145 666.777C534.416 665.067 531.279 663.303 529.109 663.1C517.26 662.096 505.381 660.359 493.681 661.051C468.289 662.516 445.215 672.014 421.28 678.744C404.956 683.357 396.244 691.064 394.505 706.41C393.405 716.261 389.658 725.895 386.834 736.641C403.618 730.956 418.797 725.46 434.259 720.603C465.821 710.712 497.77 702.231 531.919 705.65C538.4 706.275 544.778 707.482 552.39 708.608V708.608ZM559.273 709.382C592.084 671.39 641.531 657.835 684.214 634.145C671.696 623.927 659.877 614.158 647.835 604.592C646.556 603.575 643.271 603.181 641.769 603.914C618.562 615.23 594.998 626.085 572.668 638.609C562.157 644.511 553.788 653.615 544.972 661.675C543.232 663.249 542.385 667.021 543.143 669.151C547.945 682.15 553.371 694.959 559.273 709.382V709.382ZM382.448 728.758C386.194 714.701 389.777 701.485 393.182 688.215C393.524 686.926 393.018 685.379 392.498 684.049C382.983 658.785 365.723 639.83 335.959 632.951C318.878 629.029 301.171 627.292 283.628 625.026C281.205 624.742 277.741 626.6 275.779 628.391C268.732 634.796 262.072 641.566 255.352 648.242C251.427 652.136 247.621 656.139 243.057 660.779C257.924 662.543 271.259 664.049 284.535 665.732C327.976 671.281 361.842 688.948 380.069 726.329C380.367 726.858 381.065 727.279 382.448 728.758V728.758ZM244.677 265.394L242.314 266.506C237.304 311.703 218.2 351.228 181.449 384.701C197.252 387.564 211.48 390.292 225.707 392.598C227.432 392.883 230.153 391.445 231.639 390.129C259.158 364.959 273.935 334.579 277.161 299.627C277.325 297.727 276.7 295.204 275.303 293.887C265.283 284.24 254.95 274.837 244.677 265.394V265.394ZM716.653 355.692C675.799 328.975 651.343 293.033 630.292 253.792C620.064 263.765 610.668 272.721 601.748 281.988C600.618 283.195 600.9 286.411 601.807 288.148C605.762 295.624 610.029 302.992 614.474 310.265C627.452 331.404 643.33 350.441 665.14 365.081C667.37 366.601 671.012 368.27 673.331 367.686C687.291 364.199 701.058 360.115 716.653 355.692V355.692ZM284.922 292.978C297.618 304.715 309.853 316.099 322.312 327.307C323.471 328.365 326.207 328.623 328.021 328.338C346.084 325.312 363.329 320.224 378.954 311.228C393.821 302.598 393.821 302.625 389.108 287.117L386.923 280.305C383.92 270.617 380.872 260.93 377.809 251.133C345.727 264.444 311.979 272.558 284.922 292.978V292.978ZM715.523 361.635C703.526 365.013 690.383 368.528 677.449 372.558C675.353 373.222 673.42 376.085 672.826 378.216C664.634 409.437 668.559 440.183 677.791 470.658C678.172 471.6 678.788 472.449 679.591 473.137C680.393 473.824 681.36 474.332 682.415 474.62C695.973 477.347 709.621 479.694 723.358 482.205C719.909 461.825 715.003 442.164 713.724 422.327C712.416 402.503 714.765 382.435 715.523 361.635V361.635ZM724.176 487.903C715.226 486.275 708.149 485.909 701.965 483.616C682.593 476.438 669.213 483.901 657.602 496.858C654.436 500.4 650.511 503.548 648.251 507.442C637.202 527.035 626.379 546.733 615.782 566.533C615.143 567.645 615.44 569.993 616.362 570.766C626.114 578.975 636.075 587.035 647.002 595.936C665.288 555.556 682.653 515.854 724.176 487.903V487.903ZM182.638 390.387C195.275 430.604 208.313 469.491 196.018 511.662C203.452 509.64 209.458 508.053 215.405 506.316C242.923 498.419 243.666 497.252 244.202 470.766C244.603 446.94 236.59 424.593 229.543 402.069C229.142 400.699 227.7 398.772 226.376 398.514C212.298 395.732 198.159 393.236 182.638 390.387V390.387ZM279.391 616.628C289.203 607.048 298.019 598.595 306.479 589.884C307.11 589.093 307.54 588.182 307.735 587.22C307.931 586.257 307.887 585.266 307.609 584.321C294.57 554.063 275.883 527.225 246.907 506.926C245.242 505.746 242.403 504.375 240.678 504.85C227.402 508.337 214.201 512.232 199.482 516.438C237.735 543.127 261.73 577.198 279.391 616.628V616.628ZM381.095 240.78C382.656 240.441 383.875 239.912 385.02 240.007C386.521 240.115 388.082 240.59 389.524 241.133C420.67 252.775 452.114 250.93 483.676 242.748C485.713 242.219 488.522 240.767 488.939 239.274C492.566 226.778 495.673 214.159 499.331 199.993C455.132 211.527 412.315 214.797 367.953 197.945C372.725 213.67 376.828 227.008 381.095 240.78ZM506.808 195.679L496.179 236.981C499.985 239.776 503.122 241.676 505.768 244.064C527.919 264.2 554.352 277.239 585.498 282.341C587.907 282.734 591.594 283.128 592.872 281.947C603.071 272.585 612.853 262.829 623.855 252.069C577.247 245.231 539.322 226.9 506.808 195.679V195.679ZM663.43 370.753C631.11 348.636 611.738 319.885 595.132 288.243C582.272 300.875 570.542 312.354 559.645 323.073L569.665 340.075C579.016 355.841 589.929 370.604 605.792 381.852C608.111 383.48 612.214 384.905 614.741 384.254C630.441 380.278 645.947 375.651 663.43 370.753V370.753ZM285.739 301.486C284.922 301.879 284.119 302.327 283.316 302.748C278.693 337.578 263.766 368.229 235.549 394.498C253.493 397.768 269.758 400.875 286.141 403.453C288.222 403.765 291.404 401.825 293.128 400.142C310.195 383.657 319.844 363.996 323.01 341.798C323.352 339.437 323.01 336.167 321.449 334.593C309.794 323.358 297.737 312.463 285.799 301.486H285.739ZM531.725 657.794C526.938 645.841 522.835 635.094 518.167 624.565C517.29 622.611 514.138 620.372 511.893 620.264C501.382 619.626 490.321 617.713 480.39 619.898C458.863 624.579 437.975 631.485 416.879 637.591C415.318 638.066 413.296 639.409 412.895 640.698C409.268 653.398 405.922 666.18 402.161 680.006C444.546 665.908 484.761 649.165 531.725 657.794ZM667.057 375.42C651.849 379.681 638.231 383.901 624.315 387.211C617.834 388.731 615.425 391.893 614.325 397.293C610.237 418.148 612.154 438.704 617.893 459.07C618.354 460.807 620.272 463.263 621.952 463.575C638.097 466.804 654.302 469.627 671.726 472.815C662.91 440.346 658.464 408.731 667.057 375.42V375.42ZM671.785 478.365C658.048 475.827 645.709 474.335 633.89 471.119C623.141 468.175 615.544 471.146 608.572 477.89C607.115 479.26 605.494 480.522 604.126 481.947C589.408 496.506 581.559 514.389 573.724 532.259C573.204 533.439 573.605 535.759 574.571 536.56C585.84 546.044 597.243 555.339 609.538 565.339C624.375 532.53 638.454 500.726 671.785 478.365V478.365ZM246.447 497.415C261.849 493.046 275.348 488.934 289.025 485.461C294.392 484.091 296.637 481.458 297.737 476.818C301.364 461.078 297.276 445.977 294.674 430.509C291.894 414.118 283.777 405.42 264.644 405.108C257.656 404.946 250.684 402.68 243.666 401.472C241.273 401.051 238.85 400.739 235.505 400.237C245.659 432.449 255.872 463.344 246.417 497.415H246.447ZM640.149 598.229C629.846 589.776 620.019 581.553 609.924 573.683C608.795 572.761 605.42 573.127 603.77 573.928C589.691 580.44 575.077 586.356 561.934 594.172C549.773 601.404 539.084 610.671 527.964 619.26C526.403 620.467 524.797 623.263 525.318 624.728C529.406 635.976 534.089 647.062 539.025 659.382C565.785 628.459 605.36 617.279 640.149 598.229ZM313.734 582.978C324.869 572.028 335.082 562.191 345.058 552.055C346.218 550.807 346.559 548.025 345.905 546.451C336.881 525.067 323.947 506.017 303.936 491.323C302.033 489.952 298.986 488.27 297.187 488.745C281.844 492.801 266.665 497.306 250 502.096C280.343 523.901 299.491 551.065 313.734 582.978V582.978ZM395.308 675.433C395.893 675.187 396.473 674.929 397.047 674.66C398.95 667.822 400.912 660.956 402.637 654.145C403.737 649.843 406.19 644.959 404.971 641.119C398.593 621.105 386.655 604.335 363.285 597.917C348.983 593.968 333.804 592.638 318.982 590.332C317.376 590.06 314.834 590.332 313.853 591.241C304.338 600.25 295.046 609.463 284.372 619.911C332.139 623.358 375.594 630.725 395.308 675.433V675.433ZM487.155 247.537C451.772 256.574 417.875 257.565 382.344 244.797L397.404 293.548C401.894 293.738 405.476 293.128 408.361 294.118C428.728 301.201 449.259 300.672 469.969 295.909C472.228 295.38 475.112 293.141 475.692 291.228C479.662 277.28 483.051 263.223 487.095 247.537H487.155ZM587.059 288.121C552.45 282.191 524.084 268.799 500.698 247.144C496.952 243.643 494.246 244.457 493.027 249.138C489.4 263.141 485.772 277.171 482.397 290.115C486.723 292.72 490.678 294.43 493.607 296.954C508.206 309.627 525.11 318.514 544.942 322.571C547.439 323.073 551.305 322.883 552.717 321.513C564.06 310.97 574.958 300.02 587.059 288.121V288.121ZM279.822 289.45C304.174 271.649 333.358 262.178 362.036 251.757C365.722 250.466 369.258 248.844 372.591 246.913C373.974 246.126 375.386 243.806 375.074 242.598C371.61 230.536 367.745 218.582 363.641 205.367C330.533 235.516 289.739 249.966 246.417 258.229C257.493 268.596 268.405 278.758 279.822 289.45V289.45ZM602.892 567.822C590.954 558.08 579.983 548.867 568.625 540.074C567.287 539.016 563.719 539.124 561.86 539.938C553.089 543.751 544.035 547.388 536.022 552.34C526.329 558.283 517.438 565.366 508.488 572.218C506.942 573.398 505.5 576.193 506.021 577.605C510.867 590.495 516.13 603.249 521.764 617.197C543.128 592.394 574.378 583.141 602.892 567.822V567.822ZM414.917 632.164C447.683 621.309 478.666 609.206 514.197 614.782C509.113 602.259 504.028 590.82 499.881 579.138C497.933 573.615 494.484 571.987 488.418 571.716C467.62 570.766 449.081 577.822 430.378 584.307C429.055 584.769 427.494 586.044 427.212 587.143C423.123 601.702 419.199 616.302 414.917 632.164V632.164ZM319.74 585.081C358.676 587.713 392.423 595.461 408.346 632.842C412.508 617.36 416.017 604.375 419.481 591.377C419.659 590.712 419.942 589.83 419.6 589.301C414.649 581.675 410.606 573.208 404.257 566.573C391.859 553.656 373.795 552.598 356.372 551.092C355.108 550.956 353.368 552.123 352.387 553.086C342.01 563.127 331.737 573.29 319.74 585.081V585.081ZM530.58 351.676L537.285 360.21C546.057 371.377 554.59 382.693 563.614 393.67C565.042 395.38 568.848 397.116 570.84 396.587C581.469 394.118 591.832 390.902 602.119 387.958C593.467 378.948 584.696 371.051 577.619 362.055C570.453 353.046 564.982 342.992 558.857 333.304C556.478 329.464 554.011 328.568 550.442 332.151C543.738 338.799 536.943 345.434 530.58 351.676V351.676ZM612.928 467.618C602.075 465.624 593.363 463.724 584.532 462.625C581.044 462.26 577.523 462.982 574.542 464.674C557.697 475.407 550.725 491.947 543.619 508.324C543.188 509.423 543.961 511.635 545.076 512.517C552.108 518.541 559.333 524.335 567.287 530.807C578.169 507.32 588.278 484.308 612.928 467.618V467.618ZM609.389 391.662C598.849 394.633 589.676 396.818 580.905 399.898C579.387 400.516 578.025 401.411 576.902 402.529C575.779 403.647 574.92 404.964 574.378 406.397C570.23 421.377 571.509 436.411 575.597 451.282C576.058 452.883 577.455 455.285 578.823 455.57C589.453 457.835 600.172 459.654 612.006 461.865C605.821 438.215 603.294 415.814 609.389 391.662ZM331.737 341.621L329.017 343.209C325.27 366.642 314.596 387.279 296.25 405.488C307.846 407.646 317.881 409.776 328.035 411.133C330.459 411.445 334.086 409.789 335.826 407.998C346.562 397.233 353.409 383.713 355.435 369.274C355.732 367.374 355.316 364.823 354.052 363.534C346.857 356.045 339.245 348.88 331.737 341.621V341.621ZM294.704 410.753C301.736 434.24 309.407 456.75 302.896 481.228C312.767 478.446 320.944 475.841 329.314 473.887C334.859 472.598 336.866 469.721 337.625 464.986C340.167 449.247 335.201 434.552 330.414 419.817C330.013 418.446 327.694 416.872 326.028 416.519C316.216 414.538 306.419 412.856 294.704 410.753V410.753ZM352.045 545.257C359.598 537.835 366.124 531.553 372.294 525.19C373.394 524.063 374.093 521.607 373.513 520.278C366.763 504.403 357.531 489.925 342.59 478.989C341.029 477.835 338.145 477.035 336.301 477.523C326.727 479.952 317.272 482.842 306.419 485.949C328.05 502.055 341.891 521.852 352.105 545.257H352.045ZM473.061 301.811C461.257 302.87 450.463 304.864 439.848 304.444C428.892 303.996 418.098 301.024 407.142 299.437C402.295 298.745 400.095 301.431 401.225 305.434C403.915 314.756 406.963 324.023 409.223 331.201C414.991 331.486 419.317 331.011 423.064 332.069C435.286 335.488 448.281 335.905 460.736 333.277C462.773 332.856 465.464 330.848 465.999 329.111C468.631 320.278 470.712 311.241 473.061 301.839V301.811ZM330.816 333.575C339.29 341.554 347.139 349.03 355.212 356.397C355.911 356.967 357.695 356.967 358.854 356.764C373.721 354.294 388.157 350.346 400.511 342.123C402.414 340.889 404.376 337.781 403.975 336.018C401.552 326.682 398.43 317.483 395.204 307.144C376.04 321.649 354.186 328.853 330.816 333.575ZM472.942 327.714C477.788 330.319 481.386 332.327 484.999 334.267C495.331 339.79 505.56 345.434 516.07 350.739C517.78 351.608 521.527 351.893 522.582 350.956C530.417 343.901 537.85 336.479 545.834 328.704C515.803 319.912 511.402 317.754 489.013 300.305C484.687 296.927 481.059 296.981 479.543 302.069C476.778 311.133 474.8 320.373 472.942 327.714V327.714ZM561.221 533.805C553.327 527.347 546.651 521.716 539.649 516.329C538.341 515.298 535.501 514.253 534.371 514.796C520.352 521.648 504.757 526.574 494.737 538.731C493.577 540.156 491.719 542.245 492.18 543.453C495.198 551.852 498.706 560.101 502.571 569.708C518.479 551.702 540.571 544.62 561.221 533.805V533.805ZM359.538 546.099C388.276 547.944 410.65 555.868 421.726 580.278C424.952 571.268 427.316 562.679 429.576 554.05C429.813 553.181 429.917 552.055 429.457 551.363C426.691 547.306 423.629 543.412 420.923 539.355C412.731 527.143 399.292 524.43 384.871 523.507C383.607 523.426 381.809 524.348 380.842 525.298C374.197 531.621 367.685 538.093 359.538 546.099V546.099ZM494.677 566.736C491.421 558.731 488.195 551.784 485.846 544.62C484.166 539.681 481.119 537.089 475.514 538.256C463.977 540.671 452.56 543.439 441.142 546.207C439.819 546.533 438.079 547.781 437.797 548.853C434.972 558.31 432.43 567.835 429.427 578.731C451.281 571.268 471.366 564.525 494.677 566.736V566.736ZM558.768 400.278C549.417 387.171 540.363 374.552 531.413 361.92C529.005 358.501 525.719 357.103 522.359 360.02C515.223 366.479 508.622 373.372 502.928 378.975C506.273 382.449 508.845 384.769 510.882 387.429C515.506 393.399 519.653 399.749 524.559 405.515C525.868 407.049 529.703 408.148 531.814 407.618C541.225 405.434 550.457 402.585 558.768 400.278V400.278ZM570.929 460.034C559.809 457.958 550.576 456.139 541.285 454.647C539.768 454.376 537.776 455.244 536.319 456.112C524.738 463.114 519.713 474.063 514.97 485.176C514.569 486.126 515.268 488.025 516.13 488.812C522.924 494.593 529.867 500.196 537.523 506.519C545.432 488.962 553.163 472.652 570.929 460.034ZM567.301 453.724V403.684C557.073 406.519 547.35 409.22 537.717 412.055C536.735 412.327 535.516 413.602 535.516 414.471C535.338 424.525 535.115 434.633 535.516 444.701C535.576 446.112 538.772 448.229 540.824 448.704C549.759 450.671 558.887 452.164 567.301 453.724V453.724ZM345.89 468.148C376.858 460.644 380.56 465.271 372.532 432.367C372.13 430.766 371.788 429.057 370.926 427.632C370.168 426.289 368.964 424.498 367.581 424.213C357.769 422.164 347.853 420.441 338.784 418.785C341.282 435.895 343.586 452.11 345.89 468.148ZM381.199 516.655C387.428 510.536 394.297 503.819 402.429 495.814C395.798 487.021 389.272 478.012 382.344 469.328C381.021 467.7 377.676 465.963 375.936 466.357C366.421 468.622 357.13 471.54 349.235 473.806C359.969 488.188 370.406 502.137 381.199 516.655ZM463.695 338.501C447.832 341.336 433.515 340.807 419.332 336.805C417.89 336.438 412.702 340.699 413.044 342.096C415.289 351.594 418.53 360.916 421.875 371.635C426.082 366.167 429.784 365.556 435.151 367.293C439.938 368.813 445.542 368.921 450.731 368.758C452.872 368.65 456.083 366.547 456.663 364.783C459.309 356.669 461.153 348.324 463.695 338.501ZM463.635 363.928C468.898 366.357 472.823 367.958 476.451 369.898C480.955 372.354 485.103 375.325 489.771 377.51C491.362 378.283 494.826 378.202 495.926 377.198C502.988 370.875 509.544 364.199 516.546 357.401C509.143 354.267 502.467 352.028 496.506 348.704C490.47 345.393 485.267 340.861 479.483 337.144C475.038 334.321 471.173 335.298 469.79 340.061C467.337 348.514 465.419 357.062 463.635 363.928V363.928ZM341.966 413.684C346.173 414.471 351.555 415.529 356.832 416.506C375.416 419.952 378.404 418.433 384.812 402.11C385.555 400.115 386.373 398.053 386.596 395.977C386.774 394.471 386.536 392.422 385.555 391.431C378.285 384.349 370.852 377.483 364.102 371.187C356.49 385.841 349.384 399.369 341.891 413.684H341.966ZM487.898 533.629C502.453 525.176 516.234 517.198 530.58 508.826C523.786 503.304 517.081 497.727 510.109 492.462C508.949 491.567 505.842 491.404 504.623 492.15C496.55 496.953 488.775 502.028 481.044 507.198C479.885 507.971 478.666 510.047 479.008 511.092C481.832 518.826 485.029 526.506 487.898 533.629V533.629ZM363.181 362.951C370.421 369.559 377.884 376.438 385.496 383.195C386.254 383.819 387.919 384.254 388.9 383.982C396.69 381.825 404.48 379.695 412.033 376.954C413.594 376.384 415.318 373.168 414.917 371.581C412.672 362.924 409.758 354.389 407.305 346.628C392.438 352.137 377.943 357.51 363.181 362.951ZM430.393 543.575C431.092 543.493 431.716 543.412 432.356 543.303L439.685 516.275C436.741 513.928 434.719 512.815 433.5 511.268C431.538 508.812 430.393 505.719 428.252 503.426C423.406 498.188 412.152 495.027 408.643 498.134C401.775 504.131 395.486 510.685 387.874 518.147C408.301 519.993 422.945 527.157 430.393 543.575ZM480.063 531.255C477.803 525.569 475.618 519.301 472.689 513.331C471.351 510.753 468.125 506.614 466.46 506.872C459.978 507.876 450.538 508.744 448.174 512.611C443.446 520.305 442.629 529.938 440.101 539.206C453.987 536.451 466.683 533.955 480.063 531.255V531.255ZM519.817 410.983C514.554 403.426 510.064 396.533 505.099 389.844C502.081 385.678 498.007 384.077 493.458 388.27C489.132 392.327 485.044 396.642 480.94 400.739C484.107 402.639 487.556 403.792 489.295 406.004C497.948 417.116 497.769 417.252 512.384 413.195C514.851 412.476 517.319 411.716 519.817 410.983V410.983ZM507.641 481.743C514.732 471.553 521.318 462.055 528.291 451.974C521.586 451.133 512.815 447.551 507.641 450.02C501.278 452.992 496.952 460.658 493.785 467.076C492.863 469.002 498.632 473.711 501.62 476.926C503.493 478.867 505.902 480.4 507.641 481.743V481.743ZM386.373 463.127L406.904 491.187C412.033 486.139 416.879 481.309 421.666 476.641C418.039 471.133 414.976 465.922 411.111 461.173C409.788 459.491 406.264 457.971 404.124 458.338C398.088 459.382 392.2 461.472 386.373 463.127V463.127ZM383.251 458.025C385.733 457.388 388.513 456.682 391.219 455.895C405.937 451.703 406.74 450.603 402.756 437.388C401.879 434.552 399.931 430.671 397.389 429.803C391.383 427.754 384.752 427.198 378.226 426.072C379.965 436.913 381.526 447.062 383.251 458.025V458.025ZM527.652 446.207V414.959L505.084 421.173C504.965 423.697 504.965 425.542 504.742 427.388C503.092 441.77 503.032 441.77 518.88 444.769C521.705 445.271 524.545 445.705 527.652 446.207ZM453.987 375.407C446.197 374.376 439.388 372.775 432.698 372.978C429.694 373.032 424.164 376.981 424.387 378.69C425.249 385.217 428.015 391.513 429.397 395.99C435.522 395.42 439.953 395.23 444.234 394.43C446.256 394.036 449.215 392.829 449.78 391.377C451.623 386.289 452.604 380.943 453.987 375.407V375.407ZM501.813 486.058C485.267 472.055 487.675 467.659 468.244 484.972C470.548 490.427 472.957 496.004 475.335 501.648L501.813 486.058V486.058ZM488.775 384.484C482.472 380.414 477.134 376.14 470.95 373.304C468.512 372.191 462.015 373.439 461.316 374.986C458.774 380.916 457.808 387.388 456.811 391.513C463.561 394.145 468.69 396.099 474.577 398.311L488.775 384.484ZM417.058 489.64C425.487 495.515 433.158 500.82 441.811 506.858C443.595 500.617 445.557 493.996 446.88 489.247C443.417 486.248 440.711 484.62 439.09 482.354C434.645 476.085 431.538 475.61 425.874 481.024C422.663 484.145 419.422 487.293 417.058 489.64V489.64ZM394.163 397.374C389.316 406.384 385.57 413.277 381.467 420.848C388.276 422.083 394.906 423.792 401.552 424.118C403.856 424.281 407.201 421.282 408.465 418.989C409.624 417.008 409.565 413.331 408.182 411.594C404.198 406.682 399.292 402.422 394.163 397.374V397.374ZM418.039 381.282C409.55 384.118 401.938 386.669 394.267 389.287C393.643 390.21 393.003 391.16 392.305 392.11C396.006 394.43 399.976 396.37 403.202 399.057C411.795 406.302 411.616 406.424 423.971 400.848L418.039 381.282V381.282ZM467.307 500.061C465.063 494.511 463.16 489.654 461.019 484.864C460.617 483.982 459.027 482.652 458.372 482.842C457.094 483.181 455.414 484.199 455.072 485.244C453.169 491.038 451.638 496.872 449.765 503.575L467.307 500.061ZM431.478 429.586C438.406 426.75 444.398 422.747 450.924 422.001C457.57 421.296 464.646 423.819 471.53 424.891C456.752 412.761 434.719 415.746 431.478 429.586ZM489.236 419.355L490.946 416.954C486.248 413.575 481.773 409.6 476.421 407.347C474.904 406.709 470.697 411.214 467.129 413.819C471.098 415.42 474.666 415.8 475.544 417.347C479.364 424.226 484.33 421.011 489.236 419.355V419.355ZM497.71 447.537C489.176 444.593 485.608 445.99 481.104 452.856C477.015 459.097 482.174 460.997 486.307 463.873C490.277 458.229 493.964 452.883 497.71 447.537V447.537ZM433.738 464.05C431.597 460.861 430.274 456.655 427.227 454.85C424.342 453.222 419.615 454.118 413.787 453.779C417.236 458.446 419.213 460.875 420.938 463.439C426.691 472.137 426.87 472.164 433.738 464.05V464.05ZM411.527 449.749C416.656 448.202 422.767 448.975 421.964 441.608C421.22 434.267 417.058 431.526 408.866 432.272C409.728 437.903 410.591 443.385 411.527 449.749V449.749ZM486.01 426.424C488.24 439.966 488.24 439.966 498.409 439.532C497.651 434.579 496.952 429.681 496.253 424.796C492.804 425.353 489.355 425.909 486.01 426.424V426.424ZM448.397 402.53C447.356 401.35 446.316 400.169 445.23 399.03C441.365 400.576 435.998 401.268 434.095 403.928C432.43 406.329 434.496 410.875 434.957 414.484C435.998 414.701 437.098 414.905 438.124 415.095C441.588 410.902 444.992 406.682 448.397 402.53V402.53ZM461.569 468.921C463.264 471.716 464.706 474.253 466.386 476.981L479.706 468.568C473.522 458.283 467.947 464.728 461.569 468.921V468.921ZM451.222 409.532L454.002 412.015C459.012 409.694 464.096 407.388 469.106 405.04C468.868 403.887 468.586 402.747 468.363 401.594C464.602 401.119 459.993 399.233 457.406 400.536C454.388 402.055 453.169 406.397 451.222 409.532V409.532ZM452.247 471.024C448.01 469.396 444.814 468.134 440.889 466.614L435.864 471.716C440.131 474.511 443.833 476.872 447.46 479.247C449.2 476.302 450.88 473.371 452.247 471.024V471.024ZM428.49 419.165L426.305 406.845C422.841 408.216 420.418 409.138 416.909 410.509C420.819 413.426 423.525 415.475 428.49 419.165ZM423.926 428.27L424.967 426.058C422.321 423.602 419.659 421.133 416.433 418.08C414.768 421.391 413.668 423.629 412.226 426.424L423.926 428.27" fill="white"/>
</svg>
