<svg width="253" height="50" viewBox="0 0 253 50" fill="none" xmlns="http://www.w3.org/2000/svg">
<path d="M73.1 32.225C71.7833 32.225 70.5583 32.075 69.425 31.775C68.2917 31.4583 67.3667 31.0167 66.65 30.45C66.4 30.2667 66.2167 30.075 66.1 29.875C66 29.6583 65.95 29.3917 65.95 29.075C65.95 28.6583 66.075 28.2917 66.325 27.975C66.5917 27.6583 66.8917 27.5 67.225 27.5C67.4083 27.5 67.5833 27.5333 67.75 27.6C67.9333 27.65 68.15 27.75 68.4 27.9C69.1167 28.35 69.8417 28.6833 70.575 28.9C71.3083 29.1 72.1167 29.2 73 29.2C74.1 29.2 74.9417 29.0167 75.525 28.65C76.1083 28.2833 76.4 27.7583 76.4 27.075C76.4 26.5583 76.125 26.1417 75.575 25.825C75.0417 25.5083 74.0833 25.2083 72.7 24.925C71.15 24.6083 69.9083 24.225 68.975 23.775C68.0583 23.325 67.3833 22.7667 66.95 22.1C66.5333 21.4333 66.325 20.625 66.325 19.675C66.325 18.625 66.625 17.6833 67.225 16.85C67.8417 16 68.6833 15.3417 69.75 14.875C70.8333 14.3917 72.05 14.15 73.4 14.15C75.7667 14.15 77.7167 14.7417 79.25 15.925C79.5 16.125 79.675 16.3333 79.775 16.55C79.8917 16.75 79.95 17 79.95 17.3C79.95 17.7167 79.8167 18.0833 79.55 18.4C79.3 18.7167 79.0083 18.875 78.675 18.875C78.4917 18.875 78.3167 18.85 78.15 18.8C78 18.75 77.7833 18.6417 77.5 18.475C76.8167 18.0417 76.1833 17.7167 75.6 17.5C75.0333 17.2833 74.3083 17.175 73.425 17.175C72.4083 17.175 71.6083 17.375 71.025 17.775C70.4417 18.1583 70.15 18.6917 70.15 19.375C70.15 19.775 70.2583 20.1083 70.475 20.375C70.7083 20.625 71.0833 20.85 71.6 21.05C72.1333 21.25 72.8833 21.4583 73.85 21.675C76.1167 22.175 77.7417 22.8167 78.725 23.6C79.725 24.3833 80.225 25.4583 80.225 26.825C80.225 27.8917 79.925 28.8333 79.325 29.65C78.7417 30.4667 77.9083 31.1 76.825 31.55C75.7583 32 74.5167 32.225 73.1 32.225ZM90.3342 19.425C91.3842 19.425 92.3175 19.7 93.1342 20.25C93.9675 20.7833 94.6092 21.5417 95.0592 22.525C95.5258 23.4917 95.7592 24.6083 95.7592 25.875C95.7592 27.1417 95.5258 28.2583 95.0592 29.225C94.6092 30.175 93.9758 30.9083 93.1592 31.425C92.3425 31.9417 91.4008 32.2 90.3342 32.2C89.5008 32.2 88.7425 32.0333 88.0592 31.7C87.3925 31.35 86.8758 30.8667 86.5092 30.25V34.975C86.5092 35.475 86.3425 35.875 86.0092 36.175C85.6758 36.475 85.2342 36.625 84.6842 36.625C84.1008 36.625 83.6258 36.4667 83.2592 36.15C82.9092 35.8333 82.7342 35.4167 82.7342 34.9V21.25C82.7342 20.7167 82.9008 20.2917 83.2342 19.975C83.5842 19.6417 84.0425 19.475 84.6092 19.475C85.1758 19.475 85.6258 19.6417 85.9592 19.975C86.2925 20.2917 86.4592 20.7167 86.4592 21.25V21.45C86.8258 20.8167 87.3508 20.325 88.0342 19.975C88.7175 19.6083 89.4842 19.425 90.3342 19.425ZM89.2342 29.325C90.1175 29.325 90.8008 29.0333 91.2842 28.45C91.7675 27.85 92.0092 26.9917 92.0092 25.875C92.0092 24.7417 91.7675 23.8667 91.2842 23.25C90.8008 22.6167 90.1175 22.3 89.2342 22.3C88.3508 22.3 87.6675 22.6083 87.1842 23.225C86.7008 23.825 86.4592 24.6917 86.4592 25.825C86.4592 26.9417 86.7008 27.8083 87.1842 28.425C87.6675 29.025 88.3508 29.325 89.2342 29.325ZM99.9662 32.15C99.4162 32.15 98.9579 32 98.5912 31.7C98.2412 31.4 98.0662 30.9583 98.0662 30.375V21.25C98.0662 20.6667 98.2495 20.225 98.6162 19.925C98.9829 19.625 99.4329 19.475 99.9662 19.475C100.5 19.475 100.941 19.625 101.291 19.925C101.658 20.225 101.841 20.6667 101.841 21.25V30.375C101.841 30.9583 101.658 31.4 101.291 31.7C100.941 32 100.5 32.15 99.9662 32.15ZM99.9662 17.475C99.2995 17.475 98.7745 17.3083 98.3912 16.975C98.0079 16.625 97.8162 16.1583 97.8162 15.575C97.8162 14.9917 98.0079 14.5333 98.3912 14.2C98.7745 13.8667 99.2995 13.7 99.9662 13.7C100.616 13.7 101.133 13.875 101.516 14.225C101.916 14.5583 102.116 15.0083 102.116 15.575C102.116 16.1583 101.925 16.625 101.541 16.975C101.158 17.3083 100.633 17.475 99.9662 17.475ZM115.206 14.25C115.79 14.25 116.256 14.4083 116.606 14.725C116.973 15.0417 117.156 15.4583 117.156 15.975V30.375C117.156 30.9083 116.981 31.3417 116.631 31.675C116.298 31.9917 115.848 32.15 115.281 32.15C114.715 32.15 114.256 31.9917 113.906 31.675C113.573 31.3417 113.406 30.9083 113.406 30.375V30.175C113.04 30.8083 112.515 31.3083 111.831 31.675C111.165 32.025 110.406 32.2 109.556 32.2C108.506 32.2 107.565 31.9333 106.731 31.4C105.915 30.85 105.273 30.0917 104.806 29.125C104.356 28.1417 104.131 27.0167 104.131 25.75C104.131 24.4833 104.356 23.375 104.806 22.425C105.273 21.4583 105.915 20.7167 106.731 20.2C107.548 19.6833 108.49 19.425 109.556 19.425C110.39 19.425 111.14 19.6 111.806 19.95C112.49 20.3 113.015 20.7917 113.381 21.425V15.9C113.381 15.4 113.548 15 113.881 14.7C114.215 14.4 114.656 14.25 115.206 14.25ZM110.656 29.325C111.54 29.325 112.215 29.025 112.681 28.425C113.165 27.8083 113.406 26.9333 113.406 25.8C113.406 24.6667 113.165 23.8 112.681 23.2C112.215 22.6 111.54 22.3 110.656 22.3C109.773 22.3 109.09 22.6 108.606 23.2C108.123 23.7833 107.881 24.6333 107.881 25.75C107.881 26.8833 108.123 27.7667 108.606 28.4C109.09 29.0167 109.773 29.325 110.656 29.325ZM129.913 28.35C130.247 28.35 130.513 28.4833 130.713 28.75C130.93 29.0167 131.038 29.3583 131.038 29.775C131.038 30.0583 130.955 30.325 130.788 30.575C130.622 30.8083 130.388 31.0083 130.088 31.175C129.522 31.475 128.863 31.725 128.113 31.925C127.363 32.1083 126.672 32.2 126.038 32.2C124.705 32.2 123.538 31.9417 122.538 31.425C121.555 30.9083 120.797 30.175 120.263 29.225C119.73 28.2583 119.463 27.125 119.463 25.825C119.463 24.575 119.722 23.4667 120.238 22.5C120.755 21.5333 121.472 20.7833 122.388 20.25C123.305 19.7 124.347 19.425 125.513 19.425C126.63 19.425 127.605 19.675 128.438 20.175C129.288 20.6583 129.947 21.3583 130.413 22.275C130.88 23.175 131.113 24.2333 131.113 25.45C131.113 25.8167 131.022 26.1 130.838 26.3C130.672 26.4833 130.43 26.575 130.113 26.575H123.113C123.23 27.5583 123.53 28.275 124.013 28.725C124.497 29.1583 125.188 29.375 126.088 29.375C126.572 29.375 127.005 29.3167 127.388 29.2C127.772 29.0833 128.197 28.925 128.663 28.725C128.897 28.625 129.122 28.5417 129.338 28.475C129.555 28.3917 129.747 28.35 129.913 28.35ZM125.613 22.025C124.897 22.025 124.322 22.2583 123.888 22.725C123.455 23.175 123.197 23.8333 123.113 24.7H127.938C127.888 23.8167 127.663 23.15 127.263 22.7C126.88 22.25 126.33 22.025 125.613 22.025ZM140.718 19.475C141.218 19.4417 141.61 19.5583 141.893 19.825C142.193 20.075 142.343 20.4583 142.343 20.975C142.343 21.525 142.21 21.9333 141.943 22.2C141.677 22.4667 141.202 22.6333 140.518 22.7L139.768 22.775C138.852 22.875 138.185 23.175 137.768 23.675C137.368 24.175 137.168 24.8167 137.168 25.6V30.375C137.168 30.9583 136.985 31.4 136.618 31.7C136.268 32 135.827 32.15 135.293 32.15C134.743 32.15 134.285 32 133.918 31.7C133.568 31.4 133.393 30.9583 133.393 30.375V21.2C133.393 20.65 133.577 20.225 133.943 19.925C134.31 19.625 134.752 19.475 135.268 19.475C135.768 19.475 136.185 19.625 136.518 19.925C136.852 20.2083 137.018 20.6083 137.018 21.125V21.8C137.318 21.0833 137.768 20.5333 138.368 20.15C138.985 19.7667 139.652 19.55 140.368 19.5L140.718 19.475ZM150.078 32.225C148.761 32.225 147.536 32.075 146.403 31.775C145.269 31.4583 144.344 31.0167 143.628 30.45C143.378 30.2667 143.194 30.075 143.078 29.875C142.978 29.6583 142.928 29.3917 142.928 29.075C142.928 28.6583 143.053 28.2917 143.303 27.975C143.569 27.6583 143.869 27.5 144.203 27.5C144.386 27.5 144.561 27.5333 144.728 27.6C144.911 27.65 145.128 27.75 145.378 27.9C146.094 28.35 146.819 28.6833 147.553 28.9C148.286 29.1 149.094 29.2 149.978 29.2C151.078 29.2 151.919 29.0167 152.503 28.65C153.086 28.2833 153.378 27.7583 153.378 27.075C153.378 26.5583 153.103 26.1417 152.553 25.825C152.019 25.5083 151.061 25.2083 149.678 24.925C148.128 24.6083 146.886 24.225 145.953 23.775C145.036 23.325 144.361 22.7667 143.928 22.1C143.511 21.4333 143.303 20.625 143.303 19.675C143.303 18.625 143.603 17.6833 144.203 16.85C144.819 16 145.661 15.3417 146.728 14.875C147.811 14.3917 149.028 14.15 150.378 14.15C152.744 14.15 154.694 14.7417 156.228 15.925C156.478 16.125 156.653 16.3333 156.753 16.55C156.869 16.75 156.928 17 156.928 17.3C156.928 17.7167 156.794 18.0833 156.528 18.4C156.278 18.7167 155.986 18.875 155.653 18.875C155.469 18.875 155.294 18.85 155.128 18.8C154.978 18.75 154.761 18.6417 154.478 18.475C153.794 18.0417 153.161 17.7167 152.578 17.5C152.011 17.2833 151.286 17.175 150.403 17.175C149.386 17.175 148.586 17.375 148.003 17.775C147.419 18.1583 147.128 18.6917 147.128 19.375C147.128 19.775 147.236 20.1083 147.453 20.375C147.686 20.625 148.061 20.85 148.578 21.05C149.111 21.25 149.861 21.4583 150.828 21.675C153.094 22.175 154.719 22.8167 155.703 23.6C156.703 24.3833 157.203 25.4583 157.203 26.825C157.203 27.8917 156.903 28.8333 156.303 29.65C155.719 30.4667 154.886 31.1 153.803 31.55C152.736 32 151.494 32.225 150.078 32.225ZM167.487 19.425C170.337 19.425 171.762 21.15 171.762 24.6V30.375C171.762 30.925 171.587 31.3583 171.237 31.675C170.903 31.9917 170.445 32.15 169.862 32.15C169.278 32.15 168.82 31.9917 168.487 31.675C168.153 31.3583 167.987 30.925 167.987 30.375V24.55C167.987 23.8167 167.828 23.275 167.512 22.925C167.212 22.5583 166.737 22.375 166.087 22.375C165.303 22.375 164.67 22.625 164.187 23.125C163.72 23.625 163.487 24.2917 163.487 25.125V30.375C163.487 30.925 163.32 31.3583 162.987 31.675C162.653 31.9917 162.195 32.15 161.612 32.15C161.028 32.15 160.562 31.9917 160.212 31.675C159.878 31.3583 159.712 30.925 159.712 30.375V15.975C159.712 15.4583 159.887 15.0417 160.237 14.725C160.603 14.4083 161.078 14.25 161.662 14.25C162.212 14.25 162.653 14.4 162.987 14.7C163.32 15 163.487 15.4 163.487 15.9V21.35C163.92 20.7167 164.478 20.2417 165.162 19.925C165.845 19.5917 166.62 19.425 167.487 19.425ZM176.48 32.15C175.93 32.15 175.472 32 175.105 31.7C174.755 31.4 174.58 30.9583 174.58 30.375V21.25C174.58 20.6667 174.763 20.225 175.13 19.925C175.497 19.625 175.947 19.475 176.48 19.475C177.013 19.475 177.455 19.625 177.805 19.925C178.172 20.225 178.355 20.6667 178.355 21.25V30.375C178.355 30.9583 178.172 31.4 177.805 31.7C177.455 32 177.013 32.15 176.48 32.15ZM176.48 17.475C175.813 17.475 175.288 17.3083 174.905 16.975C174.522 16.625 174.33 16.1583 174.33 15.575C174.33 14.9917 174.522 14.5333 174.905 14.2C175.288 13.8667 175.813 13.7 176.48 13.7C177.13 13.7 177.647 13.875 178.03 14.225C178.43 14.5583 178.63 15.0083 178.63 15.575C178.63 16.1583 178.438 16.625 178.055 16.975C177.672 17.3083 177.147 17.475 176.48 17.475ZM188.845 19.425C189.912 19.425 190.853 19.6833 191.67 20.2C192.487 20.7167 193.12 21.4583 193.57 22.425C194.037 23.375 194.27 24.4833 194.27 25.75C194.27 27.0167 194.037 28.1417 193.57 29.125C193.12 30.0917 192.478 30.85 191.645 31.4C190.828 31.9333 189.895 32.2 188.845 32.2C187.995 32.2 187.228 32.025 186.545 31.675C185.862 31.3083 185.337 30.8083 184.97 30.175V30.375C184.97 30.9083 184.803 31.3417 184.47 31.675C184.137 31.9917 183.687 32.15 183.12 32.15C182.553 32.15 182.095 31.9917 181.745 31.675C181.412 31.3417 181.245 30.9083 181.245 30.375V15.975C181.245 15.4583 181.42 15.0417 181.77 14.725C182.137 14.4083 182.612 14.25 183.195 14.25C183.745 14.25 184.187 14.4 184.52 14.7C184.853 15 185.02 15.4 185.02 15.9V21.375C185.387 20.7583 185.903 20.2833 186.57 19.95C187.253 19.6 188.012 19.425 188.845 19.425ZM187.745 29.325C188.628 29.325 189.312 29.0167 189.795 28.4C190.278 27.7667 190.52 26.8833 190.52 25.75C190.52 24.6333 190.278 23.7833 189.795 23.2C189.312 22.6 188.628 22.3 187.745 22.3C186.862 22.3 186.178 22.6083 185.695 23.225C185.212 23.825 184.97 24.6833 184.97 25.8C184.97 26.9333 185.212 27.8083 185.695 28.425C186.178 29.025 186.862 29.325 187.745 29.325ZM202.102 19.425C203.902 19.425 205.235 19.8667 206.102 20.75C206.969 21.6167 207.402 22.95 207.402 24.75V30.4C207.402 30.95 207.244 31.3833 206.927 31.7C206.61 32 206.169 32.15 205.602 32.15C205.069 32.15 204.635 31.9917 204.302 31.675C203.985 31.3417 203.827 30.9167 203.827 30.4V30.225C203.577 30.8417 203.16 31.325 202.577 31.675C201.994 32.025 201.31 32.2 200.527 32.2C199.694 32.2 198.935 32.0333 198.252 31.7C197.585 31.3667 197.052 30.9 196.652 30.3C196.269 29.7 196.077 29.0333 196.077 28.3C196.077 27.4 196.302 26.6917 196.752 26.175C197.219 25.6583 197.96 25.2833 198.977 25.05C199.994 24.8167 201.385 24.7 203.152 24.7H203.802V24.25C203.802 23.55 203.644 23.0417 203.327 22.725C203.027 22.4083 202.519 22.25 201.802 22.25C201.085 22.25 200.052 22.5 198.702 23C198.319 23.1833 197.994 23.275 197.727 23.275C197.36 23.275 197.069 23.15 196.852 22.9C196.635 22.6333 196.527 22.2917 196.527 21.875C196.527 21.5417 196.602 21.2667 196.752 21.05C196.902 20.8333 197.144 20.6333 197.477 20.45C198.06 20.1333 198.769 19.8833 199.602 19.7C200.452 19.5167 201.285 19.425 202.102 19.425ZM201.352 29.6C202.085 29.6 202.677 29.3583 203.127 28.875C203.577 28.375 203.802 27.7333 203.802 26.95V26.525H203.377C202.027 26.525 201.077 26.6333 200.527 26.85C199.994 27.0667 199.727 27.4583 199.727 28.025C199.727 28.4917 199.877 28.875 200.177 29.175C200.494 29.4583 200.885 29.6 201.352 29.6Z" fill="white"/>
<path d="M219.457 32.15C218.857 32.15 218.382 31.975 218.032 31.625C217.682 31.275 217.507 30.8 217.507 30.2V16.175C217.507 15.5917 217.682 15.125 218.032 14.775C218.382 14.425 218.857 14.25 219.457 14.25C220.057 14.25 220.532 14.425 220.882 14.775C221.232 15.125 221.407 15.5917 221.407 16.175V30.2C221.407 30.8 221.232 31.275 220.882 31.625C220.532 31.975 220.057 32.15 219.457 32.15ZM232.304 19.425C233.771 19.425 234.863 19.8583 235.579 20.725C236.296 21.575 236.654 22.8667 236.654 24.6V30.375C236.654 30.925 236.479 31.3583 236.129 31.675C235.796 31.9917 235.338 32.15 234.754 32.15C234.171 32.15 233.713 31.9917 233.379 31.675C233.046 31.3583 232.879 30.925 232.879 30.375V24.775C232.879 23.9417 232.721 23.3333 232.404 22.95C232.104 22.5667 231.629 22.375 230.979 22.375C230.196 22.375 229.563 22.625 229.079 23.125C228.613 23.625 228.379 24.2917 228.379 25.125V30.375C228.379 30.925 228.213 31.3583 227.879 31.675C227.546 31.9917 227.088 32.15 226.504 32.15C225.921 32.15 225.454 31.9917 225.104 31.675C224.771 31.3583 224.604 30.925 224.604 30.375V21.2C224.604 20.6833 224.779 20.2667 225.129 19.95C225.496 19.6333 225.963 19.475 226.529 19.475C227.046 19.475 227.463 19.6333 227.779 19.95C228.113 20.25 228.279 20.6417 228.279 21.125V21.475C228.713 20.8083 229.271 20.3 229.954 19.95C230.654 19.6 231.438 19.425 232.304 19.425ZM249.397 19.475C249.981 19.475 250.439 19.6333 250.772 19.95C251.122 20.2667 251.297 20.7 251.297 21.25V30.425C251.297 30.9417 251.114 31.3583 250.747 31.675C250.397 31.9917 249.939 32.15 249.372 32.15C248.839 32.15 248.414 32 248.097 31.7C247.781 31.4 247.622 31 247.622 30.5V30.25C247.239 30.8833 246.731 31.3667 246.097 31.7C245.481 32.0333 244.781 32.2 243.997 32.2C242.447 32.2 241.289 31.775 240.522 30.925C239.772 30.0583 239.397 28.7583 239.397 27.025V21.25C239.397 20.7 239.564 20.2667 239.897 19.95C240.247 19.6333 240.714 19.475 241.297 19.475C241.881 19.475 242.339 19.6333 242.672 19.95C243.006 20.2667 243.172 20.7 243.172 21.25V27.1C243.172 27.8333 243.322 28.375 243.622 28.725C243.939 29.075 244.414 29.25 245.047 29.25C245.781 29.25 246.372 29 246.822 28.5C247.289 28 247.522 27.3417 247.522 26.525V21.25C247.522 20.7 247.689 20.2667 248.022 19.95C248.356 19.6333 248.814 19.475 249.397 19.475Z" fill="#E11D2E"/>
<rect width="50" height="50" rx="15" fill="#E22F2F"/>
<g opacity="0.300003">
<g opacity="0.300003">
<path opacity="0.300003" d="M43 39.6064C43 40.1625 35.165 40.6133 25.5 40.6133C15.835 40.6133 8 40.1625 8 39.6064C8 39.0503 15.835 38.5995 25.5 38.5995C35.165 38.5995 43 39.0503 43 39.6064Z" fill="#000072"/>
</g>
</g>
<path d="M40.2299 38.3462C39.5354 39.0684 38.5166 39.4746 37.4527 39.4746H13.5458C12.4819 39.4746 11.463 39.0684 10.7685 38.3462C10.3848 37.947 10.1012 37.5024 9.91043 37.0474C9.90971 37.0474 9.90971 37.0474 9.90971 37.0468C9.30954 35.6192 9.61534 34.0871 10.5728 33.536C12.1804 32.6095 13.42 33.7417 13.42 33.7417C13.5572 33.4527 13.743 33.2022 13.9509 32.9876C14.734 32.1764 15.8314 31.8675 15.8314 31.8675C15.2348 28.7989 16.5666 26.0187 16.5666 26.0187C16.5666 26.0187 19.8483 28.2427 25.4992 28.2427C31.1501 28.2427 34.4318 26.0187 34.4318 26.0187C34.4318 26.0187 35.7636 28.7989 35.167 31.8675C35.167 31.8675 36.924 32.3622 37.5784 33.7417C37.5784 33.7417 38.8181 32.6095 40.4257 33.536C41.6882 34.2633 41.8175 36.6963 40.2299 38.3462Z" fill="#B11313"/>
<g opacity="0.300003">
<g opacity="0.300003">
<path opacity="0.300003" d="M14.377 36.5703C14.5985 34.6474 13.4238 33.8176 13.4238 33.8176C13.561 33.5286 13.7468 33.2781 13.9547 33.0634C15.7767 35.0177 14.377 36.5703 14.377 36.5703Z" fill="#000072"/>
</g>
</g>
<g opacity="0.300003">
<g opacity="0.300003">
<path opacity="0.300003" d="M36.6347 36.5703C36.4132 34.6474 37.5878 33.8176 37.5878 33.8176C37.4506 33.5286 37.2649 33.2781 37.057 33.0634C35.235 35.0177 36.6347 36.5703 36.6347 36.5703Z" fill="#000072"/>
</g>
</g>
<g opacity="0.300003">
<g opacity="0.300003">
<path opacity="0.300003" d="M36.8213 38.1848C36.651 38.1468 36.4755 38.1337 36.3012 38.1509C36.0527 38.1753 35.6252 38.2133 34.9982 38.2554C34.0545 38.3189 33.2303 37.6829 33.1659 36.8362C33.1382 36.4724 33.1989 36.19 33.2209 36.1026C32.9745 37.0474 32.5194 37.9178 32.242 38.3951C30.8335 38.4478 29.0495 38.4906 26.8434 38.5032C26.7244 34.6804 29.2007 31.096 29.2007 31.096C25.4065 33.8179 21.8108 31.096 21.8108 31.096C24.3144 35.0811 24.1841 38.3372 24.1841 38.3372L24.6057 38.5053C22.1966 38.4962 20.2699 38.4512 18.7695 38.3952C18.492 37.9178 18.037 37.0474 17.7905 36.1026C17.8134 36.1935 17.8781 36.4954 17.8417 36.8804C17.7634 37.709 16.9385 38.3177 16.0139 38.2555C15.3865 38.2133 14.9588 38.1754 14.7103 38.1509C14.5359 38.1337 14.3604 38.1468 14.1902 38.1848C11.47 38.7921 9.96259 37.177 9.91406 37.1236C10.1048 37.5785 10.3885 38.0232 10.7722 38.4224C11.4667 39.1445 12.4855 39.5508 13.5494 39.5508H25.5057H37.462C38.5259 39.5508 39.5448 39.1445 40.2393 38.4224C40.6229 38.0232 40.9066 37.5785 41.0974 37.1236C41.0488 37.177 39.5415 38.7921 36.8213 38.1848Z" fill="#000072"/>
</g>
</g>
<g opacity="0.300003">
<g opacity="0.300003">
<path opacity="0.300003" d="M17.785 36.1016C17.7803 36.0829 17.7773 36.0727 17.7773 36.0727C17.7798 36.0824 17.7825 36.0919 17.785 36.1016Z" fill="#000072"/>
</g>
</g>
<g opacity="0.300003">
<g opacity="0.300003">
<path opacity="0.300003" d="M33.2207 36.1016C33.2232 36.0919 33.2259 36.0824 33.2283 36.0727C33.2283 36.0727 33.2254 36.0829 33.2207 36.1016Z" fill="#000072"/>
</g>
</g>
<path d="M25.4962 39.3272H37.4526C38.4556 39.3272 39.3995 38.9441 40.0424 38.276C40.873 37.4128 41.2825 36.2176 41.1113 35.1566C41.011 34.5355 40.7124 34.0401 40.2919 33.7977C38.8701 32.978 37.7997 33.9316 37.7548 33.9725C37.6969 34.0254 37.6134 34.0491 37.532 34.0351C37.4508 34.0213 37.3825 33.972 37.3502 33.9038C36.7473 32.6329 35.109 32.1592 35.0925 32.1546C34.974 32.1212 34.9013 32.0142 34.9227 31.9045C35.3971 29.4659 34.6134 27.1843 34.3133 26.4367C33.4148 26.9635 30.3231 28.5399 25.4991 28.5399C20.6751 28.5399 17.5833 26.9635 16.6849 26.4367C16.3848 27.1843 15.601 29.4659 16.0755 31.9045C16.0968 32.0142 16.0242 32.1212 15.9056 32.1546C15.8894 32.1592 14.2484 32.6379 13.648 33.9038C13.6156 33.972 13.5474 34.0213 13.4661 34.0351C13.3849 34.049 13.3013 34.0254 13.2433 33.9725C13.1986 33.9322 12.119 32.9832 10.7063 33.7977C10.2858 34.0401 9.98712 34.5355 9.88689 35.1566C9.71567 36.2176 10.1252 37.4129 10.9557 38.276C11.5986 38.9441 12.5426 39.3272 13.5456 39.3272H25.4962ZM37.4526 39.7715H13.5456C12.3984 39.7715 11.3178 39.3322 10.5807 38.5662C9.65915 37.6085 9.20543 36.2776 9.39662 35.093C9.51918 34.3334 9.88916 33.7406 10.4384 33.424C11.7455 32.6705 12.8484 33.1626 13.3331 33.4691C13.9478 32.4597 15.0884 31.9646 15.5539 31.7974C15.0355 28.7744 16.2844 26.1194 16.3388 26.0057C16.3689 25.9429 16.4294 25.8961 16.503 25.8787C16.5767 25.8612 16.6551 25.875 16.7158 25.9162C16.7479 25.9378 20.0067 28.0956 25.4991 28.0956C30.9915 28.0956 34.2503 25.9378 34.2826 25.916C34.3434 25.875 34.4219 25.8612 34.4953 25.8787C34.5688 25.8963 34.6293 25.943 34.6593 26.0057C34.7138 26.1194 35.9626 28.7744 35.4442 31.7974C35.9098 31.9646 37.0504 32.4597 37.6651 33.4691C38.1497 33.1626 39.2525 32.6703 40.5598 33.424C41.109 33.7406 41.479 34.3333 41.6016 35.093C41.7928 36.2776 41.339 37.6085 40.4175 38.5662C39.6804 39.3322 38.5997 39.7715 37.4526 39.7715Z" fill="#000072"/>
<path d="M13.5599 33.6363C13.5871 33.6529 13.5998 33.6621 13.6185 33.6745C13.6362 33.6863 13.6506 33.6975 13.6668 33.7092C13.6989 33.7325 13.7261 33.7571 13.7553 33.7813C13.7851 33.8051 13.8097 33.8314 13.8365 33.8568C13.8635 33.8821 13.8888 33.9082 13.9125 33.9351C14.0112 34.0412 14.0942 34.1555 14.1682 34.2736C14.3165 34.5097 14.415 34.7643 14.4835 35.0206C14.5503 35.2781 14.575 35.5394 14.575 35.7975C14.5755 35.9264 14.5595 36.055 14.5497 36.1821C14.5283 36.3091 14.505 36.435 14.4754 36.5591C14.4697 36.5828 14.4437 36.5978 14.4173 36.5928C14.3973 36.5889 14.3827 36.5745 14.3794 36.5575L14.3788 36.5544C14.3545 36.4297 14.3394 36.3068 14.3212 36.185L14.2857 36.0037C14.2727 35.9438 14.2678 35.8832 14.2501 35.8244C14.2168 35.7067 14.199 35.5877 14.157 35.474C14.1387 35.4167 14.1243 35.3587 14.1044 35.3024L14.0405 35.1352C13.9524 34.9146 13.8448 34.7036 13.7151 34.5086C13.6813 34.4608 13.6497 34.4114 13.613 34.3661L13.56 34.2966L13.5031 34.2306C13.467 34.1851 13.4252 34.1451 13.386 34.104C13.3658 34.0845 13.3458 34.0633 13.3254 34.046C13.3156 34.0371 13.3052 34.0265 13.2959 34.0188C13.2877 34.0116 13.2742 34.0003 13.2733 33.9986L13.2198 33.9023C13.1624 33.7989 13.2093 33.6734 13.3246 33.6219C13.4027 33.587 13.4925 33.5953 13.5599 33.6363Z" fill="#000072"/>
<path d="M37.7139 33.9986C37.7129 34.0003 37.6994 34.0116 37.6912 34.0188C37.682 34.0265 37.6715 34.0371 37.6617 34.046C37.6413 34.0634 37.6213 34.0845 37.6011 34.104C37.5619 34.1451 37.5201 34.1851 37.484 34.2306L37.4272 34.2966L37.3741 34.3661C37.3374 34.4114 37.3058 34.4608 37.272 34.5086C37.1423 34.7037 37.0347 34.9146 36.9466 35.1352L36.8827 35.3024C36.8628 35.3587 36.8485 35.4167 36.8302 35.474C36.7882 35.5877 36.7703 35.7067 36.7371 35.8244C36.7193 35.8833 36.7144 35.9438 36.7015 36.0037L36.666 36.185C36.6477 36.3068 36.6326 36.4297 36.6083 36.5544L36.6077 36.5574C36.6031 36.5813 36.5778 36.5973 36.5512 36.5931C36.5309 36.5899 36.5158 36.576 36.5117 36.5591C36.4821 36.435 36.4588 36.3091 36.4374 36.1821C36.4277 36.055 36.4116 35.9265 36.4121 35.7975C36.4122 35.5394 36.4368 35.2781 36.5036 35.0207C36.5721 34.7643 36.6706 34.5097 36.8189 34.2736C36.8929 34.1555 36.9759 34.0412 37.0746 33.9351C37.0983 33.9082 37.1237 33.8821 37.1506 33.8568C37.1774 33.8314 37.202 33.8051 37.2318 33.7813C37.261 33.7571 37.2882 33.7325 37.3204 33.7092C37.3366 33.6975 37.3509 33.6863 37.3686 33.6745C37.3874 33.6621 37.4 33.6529 37.4272 33.6363C37.5337 33.5712 37.6787 33.5959 37.7513 33.6914C37.8004 33.756 37.8036 33.8366 37.7675 33.9021L37.7139 33.9986Z" fill="#000072"/>
<path d="M16.079 31.9171L16.0991 32.0946L16.1244 32.2932C16.1332 32.3608 16.1451 32.4287 16.1516 32.4999C16.1588 32.5709 16.1631 32.6446 16.1591 32.7241L16.1591 32.7245C16.1585 32.737 16.1467 32.7466 16.1327 32.7461C16.1277 32.7459 16.1231 32.7444 16.1193 32.7419C16.0466 32.696 15.9839 32.6433 15.9297 32.5858C15.8742 32.5288 15.8288 32.4665 15.7845 32.4027C15.7412 32.3385 15.7018 32.2717 15.6675 32.2018C15.6514 32.1665 15.6346 32.131 15.6216 32.0936C15.6146 32.0751 15.6083 32.056 15.6026 32.0364C15.5965 32.0153 15.5924 31.9998 15.5871 31.9699C15.5656 31.8487 15.6578 31.7347 15.793 31.7155C15.9281 31.6962 16.0552 31.7789 16.0766 31.9001C16.0773 31.904 16.0779 31.9079 16.0783 31.9117L16.079 31.9171Z" fill="#000072"/>
<path d="M35.4173 31.9699C35.412 31.9998 35.4079 32.0153 35.4018 32.0364C35.3961 32.056 35.3898 32.0751 35.3828 32.0936C35.3698 32.131 35.3531 32.1665 35.3369 32.2018C35.3026 32.2717 35.2632 32.3385 35.2199 32.4027C35.1756 32.4665 35.1302 32.5288 35.0747 32.5858C35.0205 32.6433 34.9579 32.696 34.8851 32.7419C34.8737 32.7492 34.8579 32.7467 34.8499 32.7365C34.847 32.7328 34.8455 32.7286 34.8453 32.7244L34.8453 32.7241C34.8413 32.6446 34.8456 32.571 34.8529 32.4999C34.8594 32.4287 34.8712 32.3608 34.8801 32.2932L34.9053 32.0946L34.9255 31.9171L34.926 31.9125C34.9399 31.7903 35.0615 31.7014 35.1977 31.7139C35.3339 31.7263 35.433 31.8354 35.4191 31.9575C35.4187 31.9615 35.418 31.9661 35.4173 31.9699Z" fill="#000072"/>
<path d="M17.2775 34.1194C17.2775 34.1194 16.1436 33.3308 15.8297 31.944C15.8297 31.944 15.1774 31.6484 14.7266 32.4484C14.7266 32.4484 15.2466 34.8907 17.7774 36.0742C17.7774 36.0742 17.4117 34.8169 17.2775 34.1194Z" fill="#0096F2"/>
<path d="M14.9883 32.4807C15.0904 32.8537 15.6404 34.5566 17.3909 35.6111C17.2801 35.208 17.1333 34.651 17.0492 34.2387C16.7866 34.0347 15.9319 33.2964 15.6179 32.1159C15.4754 32.0939 15.2187 32.1196 14.9883 32.4807ZM17.777 36.2969C17.7379 36.2969 17.6986 36.2886 17.6625 36.2717C15.0555 35.0525 14.5051 32.5946 14.4829 32.4906C14.4727 32.4424 14.4805 32.3925 14.5052 32.3487C14.7868 31.849 15.155 31.7074 15.4143 31.6766C15.7013 31.6422 15.9174 31.7356 15.9411 31.7463C16.0088 31.777 16.0571 31.8338 16.0721 31.9004C16.3628 33.1846 17.4187 33.9372 17.4293 33.9446C17.4777 33.9786 17.5108 34.0278 17.5212 34.0822C17.6521 34.7624 18.0131 36.0062 18.0167 36.0187C18.0414 36.1036 18.0079 36.1938 17.9313 36.2485C17.8866 36.2805 17.832 36.2969 17.777 36.2969Z" fill="#000072"/>
<path d="M33.7264 34.1194C33.7264 34.1194 34.8603 33.3308 35.1742 31.944C35.1742 31.944 35.8265 31.6484 36.2774 32.4484C36.2774 32.4484 35.7573 34.8907 33.2266 36.0742C33.2266 36.0742 33.5923 34.8169 33.7264 34.1194Z" fill="#0096F2"/>
<path d="M33.9521 34.2387C33.8679 34.6511 33.7211 35.208 33.6103 35.6111C35.3608 34.5567 35.9108 32.8539 36.013 32.4807C35.8735 32.2614 35.7085 32.1391 35.5218 32.117C35.4695 32.1107 35.4215 32.1133 35.3825 32.1189C35.0679 33.2977 34.2145 34.0348 33.9521 34.2387ZM33.2243 36.2969C33.1693 36.2969 33.1147 36.2805 33.07 36.2485C32.9933 36.1938 32.9599 36.1036 32.9846 36.0187C32.9882 36.0062 33.3492 34.7624 33.48 34.0822C33.4905 34.0276 33.5233 33.9786 33.572 33.9446C33.5826 33.9372 34.6385 33.1846 34.9291 31.9004C34.9442 31.8338 34.9925 31.777 35.0602 31.7464C35.0838 31.7356 35.2999 31.6422 35.5869 31.6766C35.8462 31.7074 36.2145 31.849 36.4961 32.3487C36.5208 32.3926 36.5286 32.4424 36.5184 32.4906C36.4962 32.5946 35.9458 35.0525 33.3388 36.2717C33.3027 36.2885 33.2634 36.2969 33.2243 36.2969Z" fill="#000072"/>
<path d="M20.6953 28.4453C20.6953 28.4453 21.121 29.5276 20.9985 31.1066L22.4013 32.2012C22.4013 32.2012 22.7678 30.2935 22.1435 28.7091L20.6953 28.4453Z" fill="#0096F2"/>
<path d="M21.2491 31.0096L22.2083 31.7581C22.2732 31.1493 22.3286 29.9558 21.95 28.8999L21.039 28.7339C21.1568 29.1733 21.3139 29.9815 21.2491 31.0096ZM22.3969 32.4219C22.3381 32.4219 22.2801 32.403 22.2343 32.3673L20.8316 31.2728C20.773 31.227 20.7417 31.1593 20.7471 31.0898C20.8642 29.5809 20.4614 28.528 20.4573 28.5176C20.4278 28.4422 20.4458 28.3582 20.5044 28.298C20.563 28.2379 20.6532 28.2107 20.7403 28.2262L22.1884 28.49C22.2737 28.5055 22.3437 28.5601 22.3726 28.6336C23.0112 30.2541 22.6564 32.1573 22.641 32.2375C22.6258 32.3165 22.5643 32.3821 22.48 32.409C22.4529 32.4176 22.4248 32.4219 22.3969 32.4219Z" fill="#000072"/>
<path d="M30.307 28.4453C30.307 28.4453 29.8813 29.5276 30.0038 31.1066L28.6011 32.2012C28.6011 32.2012 28.2345 30.2935 28.8588 28.7091L30.307 28.4453Z" fill="#0096F2"/>
<path d="M29.0492 28.8999C28.6699 29.9577 28.7254 31.1502 28.7906 31.7583L29.7501 31.0096C29.6853 29.9815 29.8424 29.1733 29.9601 28.7339L29.0492 28.8999ZM28.6023 32.4219C28.5744 32.4219 28.5463 32.4176 28.5192 32.409C28.4349 32.3821 28.3734 32.3165 28.3582 32.2375C28.3428 32.1573 27.988 30.2541 28.6265 28.6336C28.6555 28.5601 28.7255 28.5055 28.8108 28.49L30.2589 28.2262C30.3463 28.2101 30.4366 28.2378 30.4951 28.2981C30.5536 28.3584 30.5714 28.4423 30.5419 28.5177C30.5354 28.5343 30.1354 29.5855 30.2521 31.0898C30.2575 31.1593 30.2262 31.227 30.1676 31.2728L28.7649 32.3673C28.7191 32.403 28.6611 32.4219 28.6023 32.4219Z" fill="#000072"/>
<path d="M24.1011 38.8559C23.7481 40.4104 21.7361 41.1216 20.3221 40.1688C19.2154 39.4236 18 37.7192 17.2491 33.9816C17.1776 33.6234 17.1098 33.246 17.0469 32.8494L17.5249 32.4431L20.6936 29.7481C20.6936 29.7481 23.8153 34.0822 24.1611 37.4045V37.4052C24.2154 37.9197 24.2025 38.4099 24.1011 38.8559Z" fill="#B11313"/>
<g opacity="0.300003">
<g opacity="0.300003">
<path opacity="0.300003" d="M24.1002 38.8559C23.7472 40.4104 21.7352 41.1216 20.3212 40.1688C19.2145 39.4236 17.9991 37.7192 17.2482 33.9816C16.1915 33.4107 15.8285 31.9427 15.8285 31.9427C15.3726 29.9935 15.8985 28.1968 15.8985 28.1968C15.7984 30.5694 16.8485 31.7011 17.2816 32.0644C17.4023 32.1657 17.4866 32.2962 17.5234 32.4407C17.5236 32.4415 17.5238 32.4423 17.524 32.4431C18.2978 35.5137 19.5939 39.2544 21.4744 39.5223C23.2899 39.7805 24.0723 37.6596 24.1602 37.4052C24.2145 37.9197 24.2016 38.4099 24.1002 38.8559Z" fill="#000072"/>
</g>
</g>
<path d="M20.9664 29.5415C21.3272 29.8939 21.6125 30.287 21.8712 30.6931C21.9996 30.8966 22.1167 31.1055 22.233 31.3146C22.3494 31.5237 22.4633 31.734 22.5744 31.9456C23.0191 32.7915 23.424 33.6566 23.7603 34.5479C24.097 35.4382 24.3681 36.3581 24.4669 37.3158C24.5145 37.7939 24.5174 38.2831 24.4268 38.7729C24.4072 38.8931 24.3785 39.0222 24.3344 39.1464C24.2944 39.2715 24.2377 39.3923 24.1762 39.5106C24.048 39.7454 23.8771 39.9618 23.6733 40.1491C23.2616 40.5198 22.7175 40.7699 22.1399 40.8433C21.8518 40.8837 21.5559 40.8749 21.2688 40.8293C20.9819 40.7804 20.7049 40.688 20.4516 40.5608C20.3277 40.4951 20.203 40.4229 20.0953 40.3433L19.9339 40.2245C19.8793 40.1854 19.8325 40.1401 19.7816 40.0982C19.7324 40.0549 19.6801 40.0138 19.6337 39.9685L19.4956 39.8321C19.4002 39.7431 19.3212 39.6443 19.2356 39.5494C18.9049 39.1627 18.6412 38.7422 18.4097 38.3134C18.1744 37.885 17.9945 37.4395 17.8203 36.9942C17.6586 36.5455 17.5113 36.0937 17.3902 35.6373C17.3303 35.4091 17.266 35.1816 17.2171 34.9516C17.1668 34.722 17.1065 34.4938 17.0699 34.2622C16.9889 33.8001 16.9509 33.3317 16.9955 32.8566C16.998 32.8297 17.0243 32.8098 17.0543 32.812C17.0751 32.8136 17.0923 32.8256 17.0999 32.8418L17.1005 32.8432C17.2035 33.064 17.2814 33.2868 17.3486 33.5107C17.4147 33.7349 17.4833 33.9576 17.5352 34.183C17.5849 34.409 17.6432 34.6327 17.698 34.8572C17.75 35.0825 17.8171 35.3038 17.8797 35.5263C18.0063 35.9709 18.1577 36.408 18.3219 36.8399C18.498 37.2668 18.6789 37.6932 18.9089 38.0944C19.1342 38.4972 19.3912 38.8837 19.6932 39.2318C19.7712 39.3165 19.8436 39.4065 19.9289 39.484L20.0525 39.6044C20.0938 39.6444 20.1398 39.6791 20.1831 39.7169C20.2278 39.7529 20.2692 39.7931 20.3164 39.8259L20.4558 39.9268C20.5483 39.9943 20.6427 40.0466 20.7413 40.0988C20.9404 40.1965 21.1549 40.2661 21.3766 40.3025C21.5986 40.3355 21.827 40.3417 22.0501 40.3082C22.4978 40.2489 22.919 40.0492 23.2354 39.7618C23.393 39.6173 23.5253 39.4509 23.6253 39.2694C23.6727 39.1775 23.7179 39.0842 23.749 38.9861C23.7839 38.8893 23.8063 38.7903 23.8243 38.6811C23.9046 38.2551 23.9054 37.8089 23.8621 37.364C23.8182 36.9184 23.73 36.4724 23.6158 36.0303C23.5023 35.5878 23.3604 35.149 23.2025 34.7143C22.886 33.8445 22.4992 32.9916 22.0716 32.1553C21.9648 31.946 21.8551 31.738 21.7431 31.5309C21.6315 31.3235 21.5141 31.1188 21.4053 30.91C21.1856 30.4935 20.9787 30.0701 20.8154 29.6225L20.8149 29.621C20.7995 29.5787 20.8252 29.5332 20.8723 29.5194C20.9069 29.5093 20.9433 29.519 20.9664 29.5415Z" fill="#000072"/>
<path d="M17.9431 36.793C17.8764 36.793 17.8098 36.769 17.761 36.7216C17.6683 36.6315 17.6744 36.4911 17.7748 36.4079C17.8667 36.3317 20.0637 34.5393 23.4275 34.3138C23.5635 34.3039 23.6827 34.3964 23.6929 34.5187C23.7031 34.641 23.6008 34.7477 23.4644 34.7568C20.2791 34.9704 18.1323 36.7166 18.111 36.7341C18.0634 36.7735 18.0031 36.793 17.9431 36.793Z" fill="#000072"/>
<path d="M26.9002 38.8578C27.2532 40.4123 29.2652 41.1236 30.6792 40.1707C31.786 39.4255 33.0013 37.7211 33.7522 33.9836C33.8237 33.6254 33.8916 33.248 33.9544 32.8513L33.4764 32.4451L30.3077 29.75C30.3077 29.75 27.186 34.0842 26.8402 37.4065V37.4071C26.7859 37.9217 26.7988 38.4119 26.9002 38.8578Z" fill="#B11313"/>
<g opacity="0.300003">
<g opacity="0.300003">
<path opacity="0.300003" d="M26.8924 38.8559C27.2454 40.4104 29.2574 41.1216 30.6714 40.1688C31.7781 39.4236 32.9935 37.7192 33.7444 33.9816C34.8012 33.4107 35.1641 31.9427 35.1641 31.9427C35.62 29.9935 35.0941 28.1968 35.0941 28.1968C35.1942 30.5694 34.1441 31.7011 33.711 32.0644C33.5904 32.1657 33.506 32.2962 33.4693 32.4407C33.469 32.4415 33.4688 32.4423 33.4686 32.4431C32.6948 35.5137 31.3987 39.2544 29.5182 39.5223C27.7027 39.7805 26.9203 37.6596 26.8324 37.4052C26.7781 37.9197 26.791 38.4099 26.8924 38.8559Z" fill="#000072"/>
</g>
</g>
<path d="M30.1861 29.6225C30.0229 30.0701 29.8159 30.4935 29.5962 30.91C29.4875 31.1188 29.37 31.3235 29.2585 31.5309C29.1464 31.7379 29.0367 31.946 28.93 32.1553C28.5024 32.9916 28.1156 33.8445 27.7991 34.7143C27.6411 35.149 27.4993 35.5878 27.3858 36.0303C27.2716 36.4724 27.1834 36.9184 27.1395 37.364C27.0962 37.8089 27.097 38.2551 27.1773 38.6811C27.1953 38.7903 27.2176 38.8893 27.2526 38.9862C27.2837 39.0842 27.3289 39.1775 27.3762 39.2694C27.4763 39.4509 27.6086 39.6173 27.7662 39.7618C28.0826 40.0492 28.5038 40.2489 28.9515 40.3082C29.1746 40.3417 29.403 40.3355 29.625 40.3025C29.8467 40.2661 30.0612 40.1965 30.2603 40.0988C30.3589 40.0466 30.4533 39.9943 30.5457 39.9268L30.6852 39.8259C30.7324 39.7931 30.7738 39.7529 30.8185 39.7169C30.8618 39.6791 30.9078 39.6444 30.9491 39.6044L31.0727 39.484C31.158 39.4065 31.2303 39.3165 31.3084 39.2318C31.6104 38.8837 31.8674 38.4972 32.0927 38.0944C32.3227 37.6932 32.5036 37.2668 32.6797 36.8398C32.8439 36.408 32.9953 35.9708 33.1219 35.5263C33.1845 35.3038 33.2515 35.0825 33.3036 34.8572C33.3584 34.6327 33.4166 34.409 33.4663 34.183C33.5183 33.9576 33.5868 33.7349 33.653 33.5107C33.7202 33.2868 33.7981 33.064 33.9011 32.8432L33.9017 32.8418C33.9133 32.817 33.9452 32.8052 33.9729 32.8156C33.9922 32.8229 34.0044 32.8391 34.0061 32.8566C34.0507 33.3317 34.0127 33.8001 33.9316 34.2622C33.895 34.4938 33.8347 34.722 33.7844 34.9516C33.7356 35.1816 33.6713 35.4091 33.6114 35.6373C33.4903 36.0937 33.343 36.5455 33.1813 36.9942C33.0071 37.4395 32.8272 37.885 32.5919 38.3134C32.3604 38.7422 32.0966 39.1627 31.766 39.5494C31.6804 39.6443 31.6013 39.7431 31.506 39.8321L31.3678 39.9685C31.3215 40.0138 31.2692 40.0549 31.22 40.0982C31.169 40.1401 31.1222 40.1854 31.0677 40.2245L30.9063 40.3433C30.7986 40.4229 30.6739 40.4951 30.5499 40.5608C30.2967 40.688 30.0196 40.7804 29.7327 40.8293C29.4456 40.8749 29.1498 40.8837 28.8617 40.8433C28.2841 40.7699 27.74 40.5198 27.3282 40.1491C27.1245 39.9618 26.9536 39.7454 26.8253 39.5106C26.7639 39.3923 26.7071 39.2715 26.6671 39.1464C26.623 39.0222 26.5944 38.8931 26.5748 38.7729C26.4842 38.2831 26.4871 37.7939 26.5346 37.3158C26.6335 36.3581 26.9046 35.4382 27.2412 34.5479C27.5776 33.6566 27.9825 32.7915 28.4272 31.9456C28.5382 31.734 28.6522 31.5237 28.7685 31.3146C28.8849 31.1054 29.002 30.8966 29.1304 30.6931C29.3891 30.287 29.6743 29.894 30.0351 29.5415C30.0687 29.5087 30.1255 29.5065 30.162 29.5366C30.1888 29.5587 30.1973 29.5919 30.1867 29.621L30.1861 29.6225Z" fill="#000072"/>
<path d="M33.0592 36.793C32.9991 36.793 32.9388 36.7735 32.8912 36.734C32.8699 36.7164 30.7231 34.9702 27.5378 34.7567C27.4014 34.7475 27.2991 34.6409 27.3093 34.5186C27.3195 34.3962 27.4385 34.3039 27.5747 34.3136C30.9385 34.5392 33.1355 36.3315 33.2274 36.4078C33.3278 36.491 33.334 36.6316 33.2411 36.7216C33.1923 36.769 33.1258 36.793 33.0592 36.793Z" fill="#000072"/>
<path d="M25.5041 27.6026C31.982 27.6026 34.5541 25.0648 34.5541 25.0648C34.5541 25.0648 34.662 25.2833 34.7145 25.5939C34.8015 26.1081 34.558 26.624 34.0943 26.9364C33.075 27.6231 30.4796 28.9316 25.5007 28.9316C20.5219 28.9316 17.9264 27.6231 16.9072 26.9364C16.4435 26.624 16.2 26.1081 16.287 25.5939C16.3395 25.2833 16.4474 25.0648 16.4474 25.0648C16.4474 25.0648 19.0195 27.6026 25.4974 27.6026" fill="#751313"/>
<g opacity="0.300003">
<g opacity="0.300003">
<path opacity="0.300003" d="M34.6928 25.4749C34.6094 25.7974 34.4008 26.0905 34.0962 26.2956C33.077 26.9824 30.4816 28.2909 25.5027 28.2909C20.5238 28.2909 17.9284 26.9824 16.9091 26.2956C16.6046 26.0905 16.3959 25.7974 16.3126 25.4749C16.304 25.5128 16.2959 25.5524 16.2889 25.5939C16.2019 26.1082 16.4454 26.624 16.9091 26.9364C17.9284 27.6231 20.5238 28.9316 25.5027 28.9316C30.4816 28.9316 33.077 27.6231 34.0962 26.9364C34.5599 26.624 34.8034 26.1082 34.7165 25.5939C34.7094 25.5524 34.7014 25.5128 34.6928 25.4749Z" fill="#000072"/>
</g>
</g>
<path d="M25.5005 29.1543C20.5283 29.1543 17.889 27.8763 16.7582 27.1145C16.2161 26.7492 15.9416 26.154 16.0419 25.5612C16.0987 25.2249 16.2158 24.9854 16.2207 24.9754C16.2547 24.9067 16.325 24.858 16.4076 24.8461C16.4902 24.8339 16.5741 24.8603 16.6305 24.9159C16.6553 24.9402 19.2231 27.381 25.4972 27.381V27.8253C20.1385 27.8253 17.4203 26.1301 16.565 25.4699C16.5527 25.5186 16.5412 25.5715 16.5316 25.6277C16.4587 26.0587 16.6596 26.4924 17.0558 26.7593C18.1371 27.4878 20.6722 28.71 25.5005 28.71C30.3289 28.71 32.864 27.4878 33.9454 26.7593C34.3415 26.4924 34.5423 26.0588 34.4694 25.6277C34.4599 25.5715 34.4484 25.5186 34.436 25.4699C33.5808 26.1301 30.8625 27.8253 25.5039 27.8253V27.381C31.7993 27.381 34.3456 24.9405 34.3706 24.9159C34.4269 24.8603 34.5108 24.834 34.5934 24.8461C34.6761 24.858 34.7464 24.9067 34.7803 24.9754C34.7853 24.9854 34.9024 25.2249 34.9592 25.5612C35.0595 26.154 34.785 26.7493 34.2429 27.1145C33.1122 27.8763 30.4728 29.1543 25.5005 29.1543Z" fill="#000072"/>
<path d="M16.457 26.9438L20.4511 35.0977" stroke="#000072" stroke-width="0.2" stroke-miterlimit="10"/>
<path d="M30.3848 35.0977L34.4636 26.9438" stroke="#000072" stroke-width="0.2" stroke-miterlimit="10"/>
<path fill-rule="evenodd" clip-rule="evenodd" d="M25.2077 30.2727C25.2061 30.2923 25.1928 30.3099 25.1839 30.3292C25.1754 30.3479 25.1675 30.368 25.1601 30.3876C25.1408 30.4388 25.1228 30.4892 25.1244 30.5555C25.1903 30.5633 25.2733 30.5575 25.3327 30.55C25.3652 30.5629 25.3861 30.583 25.4161 30.5975C25.4104 30.5727 25.4375 30.568 25.4607 30.561C25.4504 30.5717 25.4344 30.5789 25.4399 30.5993C25.4534 30.6048 25.4556 30.5901 25.4667 30.5883C25.482 30.599 25.5014 30.5985 25.5173 30.5883C25.5286 30.5899 25.5256 30.6003 25.5381 30.6011C25.5557 30.5869 25.5305 30.5715 25.5232 30.561C25.5453 30.5681 25.5704 30.5734 25.5679 30.5956C25.5919 30.5867 25.6212 30.5651 25.6452 30.55C25.7072 30.558 25.7865 30.5618 25.8595 30.5573C25.857 30.4463 25.8131 30.3607 25.7702 30.2745C25.7821 30.2736 25.782 30.2832 25.7851 30.2873C25.8294 30.346 25.8688 30.4131 25.9012 30.4843C25.9059 30.4947 25.9138 30.5088 25.919 30.5227C25.9236 30.5348 25.9332 30.556 25.9309 30.5628C25.9258 30.5778 25.8855 30.5828 25.8773 30.5956C25.8526 30.5777 25.7812 30.5829 25.7137 30.581C25.6945 30.5805 25.6689 30.5772 25.6571 30.5792C25.6312 30.5838 25.6198 30.607 25.6065 30.6194C25.6432 30.6209 25.6722 30.5991 25.7047 30.5975C25.7254 30.5964 25.7556 30.6059 25.7821 30.6102C25.8588 30.6227 25.9444 30.6332 26.0143 30.6467C26.0185 30.5 25.957 30.3777 25.8744 30.2782C25.9565 30.3476 26.0118 30.4289 26.0529 30.5245C26.06 30.541 26.0662 30.5567 26.0708 30.5737C26.0773 30.5976 26.0776 30.6272 26.0976 30.6449C26.0729 30.6614 26.0432 30.6748 26.0172 30.6905C25.9441 30.6638 25.8028 30.6252 25.6839 30.6321C25.6554 30.6338 25.6303 30.6425 25.6095 30.654C25.6458 30.6629 25.671 30.6638 25.7196 30.6631C25.7317 30.663 25.7492 30.6599 25.7583 30.6613C25.7686 30.6629 25.7852 30.676 25.8 30.685C25.8859 30.7377 25.9628 30.7763 26.0648 30.8182C26.0967 30.8313 26.1147 30.8446 26.1511 30.8274C26.1572 31.0005 26.0822 31.1283 25.9904 31.2452C25.9797 31.2588 25.973 31.2746 25.9547 31.2853C26.0237 31.1855 26.0767 31.0668 26.0767 30.9277C26.0767 30.9131 26.0813 30.8949 26.0767 30.8821C26.0703 30.8639 26.0235 30.8445 25.9964 30.8292C25.9195 30.7857 25.8583 30.7551 25.7732 30.7142C25.7565 30.7062 25.7423 30.6954 25.7286 30.6923C25.714 30.6891 25.6912 30.6884 25.675 30.6869C25.6547 30.6849 25.6352 30.6844 25.6184 30.6832C25.6513 30.7049 25.7035 30.7318 25.7494 30.7525C25.7577 30.7571 25.7665 30.7509 25.7762 30.7507C25.787 30.9541 25.7624 31.1533 25.669 31.3017C25.6467 31.3372 25.622 31.3719 25.5827 31.3984C25.7096 31.258 25.7192 31.0168 25.6928 30.8055C25.7198 30.7911 25.7081 30.7792 25.6839 30.7617C25.6575 30.7425 25.6105 30.7145 25.5798 30.7051C25.5776 30.7146 25.5829 30.7239 25.5887 30.7325C25.5945 30.7411 25.6074 30.7485 25.6095 30.7562C25.614 30.7725 25.6032 30.8084 25.5976 30.8274C25.5792 30.8903 25.5404 30.9594 25.5053 31.0062C25.493 31.0052 25.5017 30.9914 25.4934 30.9879C25.4802 30.9883 25.4882 31.0018 25.4815 31.0062C25.4406 30.9633 25.4056 30.8924 25.3863 30.8274C25.3794 30.8041 25.3687 30.7762 25.3744 30.7562C25.3789 30.7403 25.4068 30.726 25.4042 30.7069C25.3769 30.7108 25.3515 30.7274 25.3298 30.7416C25.3081 30.7558 25.2856 30.771 25.2703 30.7872C25.2721 30.7952 25.2848 30.7966 25.2881 30.8036C25.2686 31.0175 25.2692 31.2582 25.4012 31.3966C25.3873 31.3955 25.3808 31.3846 25.3744 31.3784C25.2515 31.2579 25.2185 31.0722 25.2048 30.8803C25.2017 30.8379 25.1986 30.7964 25.2077 30.7544C25.2103 30.7456 25.2256 30.7586 25.2345 30.7525C25.2815 30.7309 25.3238 30.7063 25.3685 30.6832C25.3296 30.6869 25.2873 30.6857 25.2524 30.6942C25.2221 30.7015 25.1889 30.7218 25.1601 30.7361C25.0728 30.7798 24.9807 30.8271 24.9072 30.8766C24.8922 31.0394 24.953 31.1706 25.0262 31.2853C24.9206 31.159 24.8225 31.0186 24.8328 30.8274C24.873 30.8508 24.9343 30.8127 24.9667 30.7982C25.0568 30.7577 25.153 30.7056 25.2226 30.6613C25.273 30.6659 25.3322 30.6622 25.3744 30.6558C25.3218 30.6147 25.187 30.6354 25.1066 30.6504C25.0526 30.6604 25.0022 30.6749 24.9697 30.6905C24.9388 30.6778 24.9151 30.6607 24.8863 30.6467C24.9074 30.6143 24.9119 30.5597 24.928 30.5227C24.9673 30.4321 25.0287 30.3519 25.1036 30.2782C25.1016 30.2922 25.0858 30.3042 25.0768 30.3165C25.0116 30.4054 24.9686 30.5156 24.9667 30.6449C25.0355 30.6353 25.1176 30.6235 25.1988 30.6102C25.2253 30.6059 25.2527 30.597 25.2732 30.5975C25.3063 30.5982 25.3374 30.6191 25.3744 30.6194C25.3656 30.6022 25.3488 30.59 25.3298 30.5792C25.2685 30.5835 25.2 30.5768 25.1453 30.5829C25.1397 30.5835 25.1324 30.5855 25.1244 30.5883C25.1251 30.5881 25.1067 30.5956 25.1095 30.5956C25.0972 30.5956 25.0669 30.5692 25.053 30.5664C25.0816 30.4544 25.1461 30.3645 25.2077 30.2727Z" fill="#000072"/>
<path fill-rule="evenodd" clip-rule="evenodd" d="M25.502 29.1543V32.3047V29.1543Z" fill="#000072"/>
<path d="M25.502 29.1543V32.3047" stroke="#000072" stroke-width="0.2" stroke-miterlimit="10"/>
<path d="M24.4042 29.1322C24.4042 29.1322 24.5973 31.713 24.3145 32.1699" stroke="#000072" stroke-width="0.2" stroke-miterlimit="10"/>
<path d="M23.5376 29.0836C23.5376 29.0836 23.973 30.2777 23.3438 31.8906" stroke="#000072" stroke-width="0.2" stroke-miterlimit="10"/>
<path d="M26.5016 29.1534C26.5016 29.1534 26.2997 31.4402 26.5917 32.2188" stroke="#000072" stroke-width="0.2" stroke-miterlimit="10"/>
<path d="M27.531 29.0836C27.531 29.0836 27.0693 31.3512 27.7548 31.8906" stroke="#000072" stroke-width="0.2" stroke-miterlimit="10"/>
<path d="M22.6367 29.5371C22.6367 29.5371 23.0715 29.1649 23.6426 29.5371C23.6426 29.5371 23.9403 29.1677 24.4353 29.5879C24.4353 29.5879 24.7052 29.1278 25.4998 29.5371C25.4998 29.5371 25.8352 29.1525 26.4368 29.5371C26.4368 29.5371 26.9095 29.1101 27.4632 29.5159C27.4632 29.5159 27.9568 29.034 28.3842 29.4644" stroke="#000072" stroke-width="0.2" stroke-miterlimit="10"/>
<path d="M25.4377 30.1281C25.4221 30.1182 25.4067 30.1089 25.3914 30.1001C24.8502 29.789 24.4575 30.1367 24.4575 30.1367C24.056 29.763 23.6837 30.1367 23.6837 30.1367C23.0596 29.4838 22.7227 30.1367 22.7227 30.1367" stroke="#000072" stroke-width="0.2" stroke-miterlimit="10"/>
<path d="M25.4219 30.1347C25.4219 30.1347 25.9152 29.7799 26.4342 30.1347C26.4342 30.1347 26.9384 29.6956 27.3799 30.1543C27.3799 30.1543 28.0352 29.702 28.2796 30.1452" stroke="#000072" stroke-width="0.2" stroke-miterlimit="10"/>
<path d="M22.7227 31.2263C22.7227 31.2263 23.1231 30.6348 23.5445 31.2765C23.5445 31.2765 24.3002 30.8083 24.461 31.4622C24.461 31.4622 25.0868 31.1769 25.5242 31.6465C25.5242 31.6465 25.9876 31.1604 26.5244 31.5311C26.5244 31.5311 26.8828 30.7877 27.4894 31.3613C27.4894 31.3613 27.8631 30.7414 28.2798 31.0951" stroke="#000072" stroke-width="0.2" stroke-miterlimit="10"/>
<path d="M22.6836 31.5807C22.6836 31.5807 23.205 31.1064 23.4331 31.6472C23.4331 31.6472 24.1841 31.3426 24.3938 31.8904C24.3938 31.8904 25.1699 31.5253 25.493 32.1094C25.493 32.1094 25.9522 31.7213 26.5043 31.985C26.5043 31.985 27.0116 31.3005 27.5989 31.7045C27.5989 31.7045 28.0168 31.0644 28.2668 31.4629" stroke="#000072" stroke-width="0.2" stroke-miterlimit="10"/>
<path d="M18.1094 36.7322C18.1094 36.7322 20.4205 34.5534 23.3417 34.7638L24.0057 36.5929C24.0057 36.5929 23.288 39.3087 18.763 38.3936L18.1094 36.7322Z" fill="#000072"/>
<path d="M18.1094 36.7322C18.1094 36.7322 20.4205 34.5534 23.3417 34.7638L24.0057 36.5929C24.0057 36.5929 23.288 39.3087 18.763 38.3936L18.1094 36.7322Z" stroke="#000072" stroke-width="0.2" stroke-miterlimit="10"/>
<path d="M26.8906 37.0432L27.5711 34.4482L30.778 35.3226L32.6887 36.2954V37.0432L32.24 38.3943C32.24 38.3943 29.0295 39.3421 26.8906 37.0432Z" fill="#000072"/>
<path d="M26.8906 37.0432L27.5711 34.4482L30.778 35.3226L32.6887 36.2954V37.0432L32.24 38.3943C32.24 38.3943 29.0295 39.3421 26.8906 37.0432Z" stroke="#000072" stroke-width="0.2" stroke-miterlimit="10"/>
<path d="M10.6602 33.5875L13.1289 39.3281" stroke="#000072" stroke-width="0.2" stroke-miterlimit="10"/>
<path d="M10.0195 34.3125C10.0195 34.3125 10.4461 36.9698 12.3083 39.2852" stroke="#000072" stroke-width="0.2" stroke-miterlimit="10"/>
<path d="M11.6621 33.3671C11.6621 33.3671 13.5904 36.3029 13.8883 39.375" stroke="#000072" stroke-width="0.2" stroke-miterlimit="10"/>
<path d="M12.8984 33.5875C12.8984 33.5875 14.0679 35.6782 14.7272 39.3281" stroke="#000072" stroke-width="0.2" stroke-miterlimit="10"/>
<path d="M9.75781 35.5527C9.75781 35.5527 9.76269 34.9648 10.2287 35.1927C10.2287 35.1927 10.4022 34.1645 11.164 34.8173C11.164 34.8173 11.1928 33.7734 12.2575 34.3993C12.2575 34.3993 12.5611 33.6333 13.1988 34.3128C13.1988 34.3128 13.5151 34.156 13.7186 34.5095" stroke="#000072" stroke-width="0.2" stroke-miterlimit="10"/>
<path d="M10.0898 34.6719C10.0898 34.6719 10.2533 33.9115 10.904 34.1634C10.904 34.1634 11.0328 33.5384 11.8908 33.7462C11.8908 33.7462 12.0171 33.3374 13.0352 33.8599" stroke="#000072" stroke-width="0.2" stroke-miterlimit="10"/>
<path d="M9.84766 35.8652C9.84766 35.8652 9.88358 35.276 10.3806 35.686C10.3806 35.686 10.5372 34.6658 11.4056 35.3232C11.4056 35.3232 11.4289 34.3243 12.4393 34.8888C12.4393 34.8888 12.8111 34.3311 13.4591 34.817C13.4591 34.817 13.5748 34.5267 13.8982 34.817" stroke="#000072" stroke-width="0.2" stroke-miterlimit="10"/>
<path d="M9.84766 36.3711C9.84766 36.3711 10.0494 35.8045 10.6013 36.2964C10.6013 36.2964 10.9391 35.3712 11.6617 35.9973C11.6617 35.9973 11.9528 34.7624 12.8391 35.6106C12.8391 35.6106 12.977 34.8042 13.6819 35.4008C13.6819 35.4008 13.7354 34.9057 14.1071 35.3032" stroke="#000072" stroke-width="0.2" stroke-miterlimit="10"/>
<path d="M10.0195 36.7988C10.0195 36.7988 10.2072 36.3321 10.7541 36.6672C10.7541 36.6672 11.3487 35.9305 11.8944 36.4581C11.8944 36.4581 12.48 35.6652 13.0388 36.2678C13.0388 36.2678 13.3295 35.5238 13.9041 36.0417C13.9041 36.0417 14.1171 35.7644 14.2891 36.0043" stroke="#000072" stroke-width="0.2" stroke-miterlimit="10"/>
<path d="M10.2148 37.3477C10.2148 37.3477 10.5454 36.8393 10.968 37.1429C10.968 37.1429 11.3384 36.5635 12.1454 37.0462C12.1454 37.0462 12.5294 36.2618 13.3196 36.8541C13.3196 36.8541 13.6054 36.1867 14.1057 36.7919C14.1057 36.7919 14.1076 36.1442 14.4578 36.4576" stroke="#000072" stroke-width="0.2" stroke-miterlimit="10"/>
<path d="M10.4609 37.9883V37.8252C10.4609 37.8252 10.6824 37.2305 11.2126 37.6184C11.2126 37.6184 11.7601 37.0557 12.3394 37.4899C12.3394 37.4899 12.9381 36.7872 13.4796 37.3474C13.4796 37.3474 13.8057 36.7332 14.29 37.3451" stroke="#000072" stroke-width="0.2" stroke-miterlimit="10"/>
<path d="M10.873 38.1895C10.873 38.1895 10.8936 37.873 11.4189 37.99C11.4189 37.99 11.9819 37.6075 12.5418 37.9641C12.5418 37.9641 12.9368 37.3358 13.6071 37.812C13.6071 37.812 14.0713 37.3224 14.3889 37.737" stroke="#000072" stroke-width="0.2" stroke-miterlimit="10"/>
<path d="M11.1641 38.582C11.1641 38.582 11.367 38.3052 11.7383 38.5016C11.7383 38.5016 12.2204 38.0821 12.7437 38.4312C12.7437 38.4312 13.1078 37.9364 13.7202 38.2924C13.7202 38.2924 14.1086 37.8412 14.4962 38.1872" stroke="#000072" stroke-width="0.2" stroke-miterlimit="10"/>
<path d="M11.5645 38.8633C11.5645 38.8633 11.6281 38.5702 11.9764 38.8504C11.9764 38.8504 12.3833 38.6161 12.8978 38.8633C12.8978 38.8633 13.4588 38.5479 13.8122 38.7962C13.8122 38.7962 14.2715 38.4867 14.5768 38.7821" stroke="#000072" stroke-width="0.2" stroke-miterlimit="10"/>
<path d="M12.1543 39.0688C12.1543 39.0688 12.4249 38.8141 13.0388 39.1191C13.0388 39.1191 13.3757 38.9347 13.6844 38.9997C13.7285 39.009 13.772 39.0234 13.8138 39.0441" stroke="#000072" stroke-width="0.2" stroke-miterlimit="10"/>
<path d="M13.8555 39.1211C13.8555 39.1211 14.1676 38.8762 14.6979 39.0448" stroke="#000072" stroke-width="0.2" stroke-miterlimit="10"/>
<path d="M14.4591 36.3718C14.366 36.5616 14.7274 39.5488 14.7274 39.5488H19.2354L19.1394 39.3277L18.1112 37.5688L17.4676 35.9165C16.0092 35.731 14.5776 32.6681 14.5776 32.6681L13.5625 33.6362L13.813 34.1627L14.2883 35.1478L14.4591 36.3718Z" fill="#000072"/>
<path d="M40.1598 33.4486L37.9531 39.3281" stroke="#000072" stroke-width="0.2" stroke-miterlimit="10"/>
<path d="M40.7476 34.166C40.7476 34.166 40.3553 37.9179 38.5137 39.418" stroke="#000072" stroke-width="0.2" stroke-miterlimit="10"/>
<path d="M39.3077 33.4122C39.3077 33.4122 37.8132 36.6312 37.1035 39.3633" stroke="#000072" stroke-width="0.2" stroke-miterlimit="10"/>
<path d="M38.0641 33.6941C38.0641 33.6941 36.9764 35.5232 36.4121 39.7031" stroke="#000072" stroke-width="0.2" stroke-miterlimit="10"/>
<path d="M41.111 35.1582C41.111 35.1582 40.992 34.6381 40.6149 34.9882C40.6149 34.9882 40.4574 34.0585 39.7137 34.6325C39.7137 34.6325 39.5037 33.8402 38.851 34.4492C38.851 34.4492 38.343 33.6919 37.7103 34.4492C37.7103 34.4492 37.5795 34.2575 37.2734 34.5096" stroke="#000072" stroke-width="0.2" stroke-miterlimit="10"/>
<path d="M41.1494 35.6836C41.1494 35.6836 41.0097 35.1733 40.4953 35.552C40.4953 35.552 40.1962 34.9125 39.4547 35.3227C39.4547 35.3227 39.2808 34.675 38.5101 35.0969C38.5101 35.0969 38.2824 34.6038 37.5148 34.9542C37.5148 34.9542 37.3352 34.6423 37.0137 34.9817" stroke="#000072" stroke-width="0.2" stroke-miterlimit="10"/>
<path d="M41.1464 36.2969C41.1464 36.2969 40.8526 35.7473 40.3508 36.1033C40.3508 36.1033 39.8817 35.5074 39.2039 35.9833C39.2039 35.9833 38.9476 35.4024 38.2959 35.799C38.2959 35.799 37.9624 35.1585 37.2705 35.6111C37.2705 35.6111 37.1436 35.2734 36.6406 35.5533" stroke="#000072" stroke-width="0.2" stroke-miterlimit="10"/>
<path d="M41.0269 36.793C41.0269 36.793 40.8538 36.2496 40.1687 36.7003C40.1687 36.7003 39.7019 36.0028 39.0048 36.5192C39.0048 36.5192 38.7035 35.8085 38.0647 36.3891C38.0647 36.3891 37.8632 35.8109 37.1026 36.2502C37.1026 36.2502 36.9912 35.7978 36.6666 36.186C36.3419 36.5742 36.5808 36.1788 36.5808 36.1788" stroke="#000072" stroke-width="0.2" stroke-miterlimit="10"/>
<path d="M40.8431 37.332C40.8431 37.332 40.5952 36.7254 39.9843 37.2017C39.9843 37.2017 39.602 36.7064 38.817 37.0192C38.817 37.0192 38.3425 36.5082 37.7923 37.019C37.7923 37.019 37.4176 36.4995 36.9256 36.9323C36.9256 36.9323 36.734 36.0798 36.2715 36.9036" stroke="#000072" stroke-width="0.2" stroke-miterlimit="10"/>
<path d="M40.471 37.752C40.471 37.752 40.4559 37.1978 39.7967 37.6435C39.7967 37.6435 39.3624 37.0999 38.5977 37.611C38.5977 37.611 38.1843 37.0516 37.6252 37.6428C37.6252 37.6428 37.2443 37.1006 36.7718 37.6255C36.7718 37.6255 36.7569 36.7217 36.1191 37.4302" stroke="#000072" stroke-width="0.2" stroke-miterlimit="10"/>
<path d="M40.156 38.2207C40.156 38.2207 40.0579 37.9183 39.5314 38.1519C39.5314 38.1519 38.9595 37.7668 38.3943 38.142C38.3943 38.142 38.068 37.7306 37.4709 38.0992C37.4709 38.0992 36.9795 37.7151 36.6418 38.0833C36.6418 38.0833 36.6716 37.396 35.9551 37.9237" stroke="#000072" stroke-width="0.2" stroke-miterlimit="10"/>
<path d="M39.7769 38.5882C39.7769 38.5882 39.6961 38.2468 39.2588 38.5882C39.2588 38.5882 38.7622 38.2888 38.2039 38.6504C38.2039 38.6504 37.6545 38.3383 37.301 38.6504C37.301 38.6504 36.9222 38.19 36.5215 38.6504C36.5215 38.6504 36.3988 38.042 36.0117 38.5434" stroke="#000072" stroke-width="0.2" stroke-miterlimit="10"/>
<path d="M39.4446 38.764C39.4446 38.764 39.2633 38.6152 39.0814 38.8306C39.0814 38.8306 38.3554 38.6393 38.0657 39.0234C38.0657 39.0234 37.7539 38.7187 37.1954 39.0234C37.1954 39.0234 36.9225 38.5734 36.5133 39.0234C36.5133 39.0234 36.2878 38.4251 35.8652 39.0234" stroke="#000072" stroke-width="0.2" stroke-miterlimit="10"/>
<path d="M33.683 35.8686L35.1318 34.6164L36.2714 32.8829L36.4125 32.4982L37.369 33.4486L37.4441 33.9208L36.9256 34.4486L36.6426 35.0972L36.522 35.8686V36.2829L36.5122 36.5594C36.5122 36.5594 36.0174 38.651 36.2714 39.4741L31.8588 39.5723L31.7148 39.3281L32.4356 38.0727L33.2267 36.4071L33.683 35.8686Z" fill="#000072"/>
<path d="M32.8752 27.7483C32.8752 27.7483 29.3438 33.8936 28.9473 35.6094" stroke="#000072" stroke-width="0.2" stroke-miterlimit="10"/>
<path d="M31.7459 28.2207C31.7459 28.2207 28.2939 34.4171 28.5992 34.9414" stroke="#000072" stroke-width="0.2" stroke-miterlimit="10"/>
<path d="M35.0444 27.8825C35.0444 27.8825 32.4199 34.2931 31.1992 35.791" stroke="#000072" stroke-width="0.2" stroke-miterlimit="10"/>
<path d="M30.3105 29.1548C30.3105 29.1548 31.1092 28.3969 31.3066 29.0296C31.3066 29.0296 31.8428 28.3215 32.2797 28.8065C32.2797 28.8065 33.3203 28.0551 33.4869 28.8957C33.4869 28.8957 34.433 28.2273 34.5118 29.1548C34.5118 29.1548 34.8553 29.0677 34.847 29.8469C34.847 29.8469 35.1556 30.4523 35.066 30.6875" stroke="#000072" stroke-width="0.2" stroke-miterlimit="10"/>
<path d="M31.623 28.4452C31.623 28.4452 32.2484 27.9387 32.6053 28.2213C32.6053 28.2213 33.4468 27.4565 33.8855 28.0928C33.8855 28.0928 34.7176 27.9609 34.7323 28.6279C34.7323 28.6279 35.0692 29.007 35.043 29.1546C35.043 29.1546 34.6573 31.4784 33.9197 32.8594C33.9197 32.8594 32.9417 35.8685 31.9458 36.1094" stroke="#000072" stroke-width="0.2" stroke-miterlimit="10"/>
<path d="M30.1875 29.6218C30.1875 29.6218 30.6875 29.0621 30.984 29.6218C30.984 29.6218 31.7171 28.988 31.7468 29.6218C31.7468 29.6218 32.9041 29.12 33.0569 29.7496C33.0569 29.7496 33.9114 29.2034 34.0841 30.1373C34.0841 30.1373 34.9055 29.8618 34.645 30.8121C34.645 30.8121 35.1007 30.7051 35.0148 31.3027" stroke="#000072" stroke-width="0.2" stroke-miterlimit="10"/>
<path d="M29.7363 30.3196C29.7363 30.3196 30.4629 29.7109 30.5543 30.4272C30.5543 30.4272 31.2578 29.8129 31.2963 30.5894C31.2963 30.5894 32.5533 30.0107 32.5246 30.8102C32.5246 30.8102 33.4026 30.5592 33.5602 31.3117C33.5602 31.3117 34.3187 31.0848 34.3976 31.7197C34.3976 31.7197 34.957 31.6885 34.9046 32.0938" stroke="#000072" stroke-width="0.2" stroke-miterlimit="10"/>
<path d="M29.3535 31.0955C29.3535 31.0955 29.9133 30.2573 30.2536 31.0905C30.2536 31.0905 30.7064 30.7242 30.9119 31.2432C30.9119 31.2432 32.0131 30.9137 32.1096 31.6469C32.1096 31.6469 32.8548 31.227 33.2262 31.8901C33.2262 31.8901 34.0905 31.7621 34.2162 32.2194C34.2162 32.2194 34.6103 32.1093 34.7517 32.498" stroke="#000072" stroke-width="0.2" stroke-miterlimit="10"/>
<path d="M29.1348 31.5823C29.1348 31.5823 29.6528 31.3395 29.8072 31.8913C29.8072 31.8913 30.3437 31.4703 30.5592 31.9753C30.5592 31.9753 31.4376 31.674 31.7193 32.3057C31.7193 32.3057 32.6709 31.982 32.9803 32.5779C32.9803 32.5779 33.6256 32.4241 33.9777 32.8167C33.9777 32.8167 34.4058 32.6725 34.4642 33.0645" stroke="#000072" stroke-width="0.2" stroke-miterlimit="10"/>
<path d="M28.7578 32.2288C28.7578 32.2288 29.476 31.7502 29.4748 32.553C29.4748 32.553 30.0987 32.1571 30.1857 32.6514C30.1857 32.6514 31.157 32.3989 31.397 33.0627C31.397 33.0627 32.2056 32.5342 32.6048 33.3408C32.6048 33.3408 33.4368 32.9413 33.6254 33.5996" stroke="#000072" stroke-width="0.2" stroke-miterlimit="10"/>
<path d="M28.4941 32.9974C28.4941 32.9974 29.0491 32.4606 29.2344 33.0626C29.2344 33.0626 29.7454 32.6749 29.934 33.2254C29.934 33.2254 30.8278 33.0031 31.1297 33.5996C31.1297 33.5996 31.932 33.2908 32.3225 33.9041C32.3225 33.9041 33.0162 33.5076 33.3745 34.1113" stroke="#000072" stroke-width="0.2" stroke-miterlimit="10"/>
<path d="M28.2461 33.5046C28.2461 33.5046 28.8149 33.189 28.9939 33.6001C28.9939 33.6001 29.4921 33.2914 29.6839 33.7502C29.6839 33.7502 30.6611 33.5699 30.8127 34.1119C30.8127 34.1119 31.7047 33.8831 32.051 34.4229C32.051 34.4229 32.7287 34.2077 33.1211 34.6346C33.1211 34.6346 33.2799 34.5493 33.2796 34.9414" stroke="#000072" stroke-width="0.2" stroke-miterlimit="10"/>
<path d="M28.0254 33.9812C28.0254 33.9812 28.6333 33.7017 28.7565 34.0601C28.7565 34.0601 29.4087 33.8257 29.4613 34.2267C29.4613 34.2267 30.5673 34.0022 30.633 34.5872C30.633 34.5872 31.6123 34.3242 31.757 34.9408C31.757 34.9408 32.606 34.6276 32.7936 35.3223C32.7936 35.3223 33.1248 35.1815 33.2207 35.6094" stroke="#000072" stroke-width="0.2" stroke-miterlimit="10"/>
<path d="M17.5684 27.3014C17.5684 27.3014 20.7163 31.9419 21.4519 34.9414" stroke="#000072" stroke-width="0.2" stroke-miterlimit="10"/>
<path d="M19.377 28.1966C19.377 28.1966 21.7287 32.0603 22.5095 34.6172" stroke="#000072" stroke-width="0.2" stroke-miterlimit="10"/>
<path d="M16.0566 28.0385C16.0566 28.0385 18.7981 35.0092 19.6959 35.5527" stroke="#000072" stroke-width="0.2" stroke-miterlimit="10"/>
<path d="M15.9453 29.3397C15.9453 29.3397 18.1626 35.5514 18.824 35.8691" stroke="#000072" stroke-width="0.2" stroke-miterlimit="10"/>
<path d="M16.2559 28.3184C16.2559 28.3184 16.317 27.5892 16.9794 28.0115C16.9794 28.0115 17.2434 27.4891 17.9938 27.9449C17.9938 27.9449 18.193 27.6652 18.8269 27.8929" stroke="#000072" stroke-width="0.2" stroke-miterlimit="10"/>
<path d="M16.0957 29.748C16.0957 29.748 16.1551 29.2349 16.6225 29.4356C16.6225 29.4356 16.7672 28.7246 17.5716 29.2216C17.5716 29.2216 17.7209 28.4737 18.6088 28.9314C18.6088 28.9314 19.1668 28.276 19.8095 28.9314C19.8095 28.9314 20.2797 28.5396 20.6231 28.9314" stroke="#000072" stroke-width="0.2" stroke-miterlimit="10"/>
<path d="M15.9453 29.1328C15.9453 29.1328 16.1515 28.8205 16.3992 28.9322C16.3992 28.9322 16.6662 28.2531 17.2429 28.5556C17.2429 28.5556 17.6083 28.0633 18.2678 28.3827C18.2678 28.3827 18.9544 28.0992 19.3752 28.2749" stroke="#000072" stroke-width="0.2" stroke-miterlimit="10"/>
<path d="M15.8711 30.7207C15.8711 30.7207 15.9504 30.3754 16.4001 30.5741C16.4001 30.5741 16.4621 30.0521 16.9776 30.3219C16.9776 30.3219 17.1098 29.6052 18.0271 30.049C18.0271 30.049 18.1197 29.2128 19.0932 29.7478C19.0932 29.7478 19.5214 29.1067 20.1699 29.569C20.1699 29.569 20.2422 29.2039 20.7391 29.5144" stroke="#000072" stroke-width="0.2" stroke-miterlimit="10"/>
<path d="M15.9453 31.5273C15.9453 31.5273 16.1505 30.956 16.6743 31.3012C16.6743 31.3012 16.7826 30.6918 17.321 31.0949C17.321 31.0949 17.7199 30.5348 18.3041 30.8105C18.3041 30.8105 18.8297 30.0507 19.5113 30.486C19.5113 30.486 20.0061 29.9008 20.5404 30.2463C20.5404 30.2463 20.5594 30.0231 21.0651 30.1358" stroke="#000072" stroke-width="0.2" stroke-miterlimit="10"/>
<path d="M16.0957 32.0938C16.0957 32.0938 16.2367 31.5063 16.9005 31.8892C16.9005 31.8892 17.2087 31.4874 17.6103 31.758C17.6103 31.758 17.9557 31.0784 18.6694 31.4693C18.6694 31.4693 19.1485 30.8505 19.9181 31.24C19.9181 31.24 20.2697 30.7233 20.9472 31.0193C20.9472 31.0193 20.8897 30.7157 21.4041 30.909" stroke="#000072" stroke-width="0.2" stroke-miterlimit="10"/>
<path d="M16.3594 32.668C16.3594 32.668 16.5139 32.1524 17.0497 32.4112C17.0497 32.4112 17.3689 31.8717 17.8538 32.2784C17.8538 32.2784 18.0676 31.5925 18.9748 32.0614C18.9748 32.0614 19.4077 31.4627 20.2052 31.7555C20.2052 31.7555 20.5219 31.1894 21.2358 31.5357C21.2358 31.5357 21.3842 31.2547 21.7447 31.4794" stroke="#000072" stroke-width="0.2" stroke-miterlimit="10"/>
<path d="M16.3965 33.1797C16.3965 33.1797 16.6139 32.5196 17.2078 32.6679C17.2078 32.6679 17.7414 32.4103 18.0104 32.6462C18.0104 32.6462 18.7775 32.1294 19.1715 32.4975C19.1715 32.4975 19.9642 31.9356 20.4446 32.2935C20.4446 32.2935 20.9859 31.8858 21.5158 32.1698C21.5158 32.1698 21.8062 31.8827 22.1648 32.094" stroke="#000072" stroke-width="0.2" stroke-miterlimit="10"/>
<path d="M22.5069 32.8839C22.5069 32.8839 21.9548 32.2297 21.8266 32.8451C21.8266 32.8451 20.8841 32.3387 20.7953 33.0643C20.7953 33.0643 19.8694 32.4408 19.5438 33.2554C19.5438 33.2554 18.5971 32.7887 18.3565 33.4458C18.3565 33.4458 17.7527 32.8796 17.6594 33.6013C17.6594 33.6013 17.3442 33.4933 17.2891 33.7734" stroke="#000072" stroke-width="0.2" stroke-miterlimit="10"/>
<path d="M22.7559 33.4447C22.7559 33.4447 22.2454 32.9393 22.1096 33.5123C22.1096 33.5123 21.3592 33.0697 21.0419 33.6682C21.0419 33.6682 20.2326 33.3015 19.9182 33.9818C19.9182 33.9818 19.0525 33.5491 18.8229 34.295C18.8229 34.295 18.2284 34.0793 18.025 34.6178C18.025 34.6178 17.7193 34.5452 17.5684 34.9414" stroke="#000072" stroke-width="0.2" stroke-miterlimit="10"/>
<path d="M22.8762 33.8778C22.8762 33.8778 22.4909 33.2536 22.311 34.0308C22.311 34.0308 21.8329 33.7642 21.2731 34.3119C21.2731 34.3119 20.5571 34.092 20.164 34.517C20.164 34.517 19.5969 34.3771 19.1854 34.7502C19.1628 34.7707 19.1407 34.7927 19.1191 34.8164" stroke="#000072" stroke-width="0.2" stroke-miterlimit="10"/>
<path d="M19.1389 34.793C19.1389 34.793 18.61 34.75 18.3352 35.1921C18.3352 35.1921 17.9536 35.2067 17.7774 35.61C17.6012 36.0133 17.6947 35.5522 17.6947 35.5522" stroke="#000072" stroke-width="0.2" stroke-miterlimit="10"/>
<path fill-rule="evenodd" clip-rule="evenodd" d="M25.4532 10.9057C31.5281 10.9057 36.2013 16.5759 36.2013 21.3105C36.2013 26.0453 27.6357 27.9586 25.4532 28.0519C23.2706 28.1452 14.2598 25.9064 14.2598 21.1717C14.2598 16.437 19.3783 10.9057 25.4532 10.9057Z" fill="#FF850B"/>
<path d="M25.4561 11.1363C19.3978 11.1363 14.5194 16.6265 14.5194 21.1722C14.5194 22.3542 15.1184 23.4657 16.2999 24.476C18.9316 26.7263 23.7331 27.8247 25.3207 27.8248C25.3643 27.8248 25.4052 27.824 25.4439 27.8223C26.5941 27.7732 29.2439 27.2423 31.5338 26.2162C33.5473 25.3139 35.9474 23.7305 35.9474 21.311C35.9474 16.6058 31.3646 11.1363 25.4561 11.1363ZM25.3272 28.2852C23.6242 28.2852 18.7161 27.1782 15.9456 24.8093C14.6585 23.7087 14.0059 22.485 14.0059 21.1722C14.0059 18.8022 15.2721 16.1611 17.3929 14.1072C19.6446 11.9265 22.5835 10.6759 25.4561 10.6759C28.3466 10.6759 31.1332 11.9213 33.3028 14.1829C35.2803 16.2442 36.461 18.9089 36.461 21.311C36.461 23.4124 34.8365 25.251 31.7633 26.6281C29.4067 27.6842 26.6635 28.2312 25.4683 28.2823C25.4242 28.2842 25.377 28.2852 25.3272 28.2852Z" fill="#000072"/>
<g opacity="0.5">
<g opacity="0.5">
<path opacity="0.5" fill-rule="evenodd" clip-rule="evenodd" d="M25.4528 10.9061C29.1864 10.9061 32.3901 13.0483 34.3052 15.7984C34.3251 15.8872 34.3443 15.9765 34.3612 16.0664C32.6127 13.7679 29.8864 12.2523 26.8672 11.8434C27.0608 11.909 27.173 11.9869 27.173 12.0705C27.173 12.3042 26.2953 12.4936 25.2127 12.4936C24.1302 12.4936 23.2525 12.3042 23.2525 12.0705C23.2525 11.9869 23.3645 11.909 23.5583 11.8434C20.5389 12.2523 17.8129 13.7681 16.0645 16.0664L16.0741 16.018C18.0902 13.158 21.5767 10.9061 25.4528 10.9061Z" fill="white"/>
</g>
</g>
<path fill-rule="evenodd" clip-rule="evenodd" d="M35.9128 22.7653C34.4022 26.4423 27.3967 27.9688 25.4532 28.0519C23.5296 28.1342 16.3035 26.4045 14.6152 22.7519C14.7447 20.7623 15.8718 20.2185 17.9562 21.1908C18.8134 21.5905 19.6853 22.0075 20.3763 21.69C24.3202 19.8772 26.7283 20.219 29.4278 21.69C30.6902 22.378 31.9221 21.3518 32.695 21.0389C35.1567 20.0421 36.2861 20.7393 35.9128 22.7653Z" fill="white"/>
<g opacity="0.300003">
<g opacity="0.300003">
<path opacity="0.300003" fill-rule="evenodd" clip-rule="evenodd" d="M36.1545 20.4834C36.1851 20.7613 36.2013 21.0373 36.2013 21.3102C36.2013 21.4846 36.1883 21.6546 36.1659 21.8215L36.1682 21.7716C35.8682 24.9313 28.773 27.344 24.956 27.5387C21.7698 27.7014 15.4061 24.6255 14.3361 21.7716C14.3381 21.8308 14.3414 21.8898 14.3444 21.9488C14.2899 21.6975 14.2598 21.4386 14.2598 21.1714C14.2598 20.9586 14.2705 20.7443 14.2907 20.5288L14.3073 20.4827C16.7947 23.6897 20.8751 25.6019 25.2313 25.6019C29.587 25.6019 33.6672 23.6898 36.1545 20.4834Z" fill="#000072"/>
</g>
</g>
<path fill-rule="evenodd" clip-rule="evenodd" d="M21.5246 18.9696C21.1849 18.8338 20.8372 18.6062 20.4819 18.2872C19.8659 18.3123 19.373 18.9024 19.373 19.6266C19.373 20.3667 19.8877 20.9668 20.5224 20.9668C21.1573 20.9668 21.672 20.3667 21.672 19.6266C21.672 19.3879 21.6184 19.1638 21.5246 18.9696Z" fill="#000072"/>
<path d="M31.173 17.7092C30.7584 18.2031 30.3508 18.5851 29.9502 18.855C29.3609 19.252 28.723 19.3216 28.6523 18.8842C28.9694 18.8517 29.2997 18.7195 29.6433 18.4881C30.4901 17.9173 30.7548 17.5499 31.173 17.7092Z" fill="#000072"/>
<path fill-rule="evenodd" clip-rule="evenodd" d="M29.2392 18.9696C29.5788 18.8338 29.9266 18.6062 30.282 18.2872C30.898 18.3123 31.3907 18.9024 31.3907 19.6266C31.3907 20.3667 30.8762 20.9668 30.2413 20.9668C29.6064 20.9668 29.0918 20.3667 29.0918 19.6266C29.0918 19.3879 29.1453 19.1638 29.2392 18.9696Z" fill="#000072"/>
<path fill-rule="evenodd" clip-rule="evenodd" d="M29.7633 19.2869C29.5768 19.2869 29.4258 19.4312 29.4258 19.6092C29.4258 19.7873 29.5768 19.9316 29.7633 19.9316C29.9496 19.9316 30.1007 19.7873 30.1007 19.6092C30.1007 19.4312 29.9496 19.2869 29.7633 19.2869Z" fill="white"/>
<path fill-rule="evenodd" clip-rule="evenodd" d="M25.2345 19.8629C26.0565 19.8629 26.7229 20.2613 26.7229 20.7527C26.7229 21.2442 26.0565 21.6426 25.2345 21.6426C24.4124 21.6426 23.7461 21.2442 23.7461 20.7527C23.7461 20.2613 24.4124 19.8629 25.2345 19.8629Z" fill="#000072"/>
<path d="M26.6551 22.7324C26.1312 22.7324 25.6245 22.5577 25.2356 22.2455C24.8013 22.6002 24.2027 22.7652 23.6143 22.6813C22.9307 22.5839 22.3511 22.1637 22.1013 21.5848C22.0502 21.4662 22.1159 21.3329 22.2482 21.287C22.3804 21.2412 22.5291 21.3001 22.5803 21.4187C22.7642 21.8452 23.1913 22.1547 23.6949 22.2265C24.1987 22.2983 24.7116 22.1228 25.034 21.7686C25.0821 21.7157 25.154 21.6847 25.2301 21.684C25.3068 21.684 25.3787 21.7128 25.4282 21.7647C25.7644 22.1181 26.2723 22.3058 26.7891 22.2669C27.3052 22.2281 27.7719 21.9669 28.0377 21.5683C28.1104 21.4591 28.2683 21.4235 28.3898 21.4888C28.5115 21.554 28.5512 21.6954 28.4784 21.8045C28.128 22.3302 27.5126 22.6746 26.8321 22.7258C26.773 22.7302 26.7139 22.7324 26.6551 22.7324Z" fill="#000072"/>
<path fill-rule="evenodd" clip-rule="evenodd" d="M25.2336 21.9145C25.7688 22.3707 26.2946 22.5648 26.8112 22.4966C26.939 25.5038 23.5395 25.3813 23.6552 22.4542C24.2885 22.5262 24.8145 22.3464 25.2336 21.9145Z" fill="#000072"/>
<path d="M23.9118 22.7009C23.9372 23.4671 24.2403 24.0695 24.745 24.3375C25.0785 24.5145 25.4553 24.517 25.7789 24.3442C26.2621 24.0861 26.54 23.5084 26.5579 22.7403C26.121 22.7278 25.6821 22.5582 25.2475 22.234C24.8733 22.5445 24.4297 22.7009 23.9234 22.7009C23.9196 22.7009 23.9157 22.7009 23.9118 22.7009ZM25.2727 24.9316C25.003 24.9317 24.7318 24.8657 24.4834 24.7338C23.7525 24.3457 23.3574 23.5121 23.3995 22.4469L23.4095 22.1949L23.6884 22.2267C24.2367 22.289 24.6784 22.1377 25.0407 21.7643L25.2168 21.5828L25.4113 21.7485C25.8907 22.1571 26.3371 22.3277 26.7747 22.2697L27.0578 22.2324L27.0686 22.4888C27.1136 23.5467 26.7392 24.3672 26.0417 24.7398C25.8022 24.8677 25.5381 24.9316 25.2727 24.9316Z" fill="#000072"/>
<path fill-rule="evenodd" clip-rule="evenodd" d="M25.2623 23.5775C24.8052 23.5775 24.3759 23.7738 24.1074 24.1052C24.7254 24.8945 25.8212 24.9074 26.4116 24.0985C26.1428 23.7711 25.7161 23.5775 25.2623 23.5775Z" fill="#FF0066"/>
<path d="M24.437 24.1107C24.675 24.346 24.9744 24.4736 25.285 24.471C25.5853 24.4666 25.8623 24.3396 26.0802 24.1095C25.863 23.9184 25.5675 23.808 25.2594 23.808C24.95 23.808 24.6542 23.9188 24.437 24.1107ZM25.2691 24.9316C24.7403 24.9316 24.2404 24.6797 23.8944 24.2378L23.7891 24.1032L23.8968 23.9702C24.2125 23.5803 24.7219 23.3475 25.2594 23.3475C25.7925 23.3475 26.2994 23.5773 26.6154 23.9622L26.7211 24.091L26.6235 24.2249C26.3013 24.6663 25.8165 24.9238 25.2934 24.9314C25.2853 24.9316 25.2771 24.9316 25.2691 24.9316Z" fill="#000072"/>
<path fill-rule="evenodd" clip-rule="evenodd" d="M34.9504 16.4922C33.3015 14.0487 31.3246 12.3944 29.0195 11.5295C33.5411 5.84763 35.5181 7.50187 34.9504 16.4922Z" fill="#FF850B"/>
<path d="M29.4151 11.4336C31.4387 12.2618 33.225 13.7137 34.7363 15.7577C35.0121 10.218 34.1742 8.7438 33.4035 8.50071C32.8152 8.31532 31.649 8.68398 29.4151 11.4336ZM35.1612 17.248L34.7321 16.6121C33.1196 14.2226 31.1647 12.5842 28.9218 11.7426L28.625 11.6313L28.8119 11.3964C30.8802 8.79743 32.4374 7.70773 33.5738 8.06631C35.0234 8.52357 35.5427 11.2053 35.2081 16.506L35.1612 17.248Z" fill="#000072"/>
<path fill-rule="evenodd" clip-rule="evenodd" d="M28.6291 16.7896C29.0094 16.6497 29.3928 16.7004 29.4853 16.9028C29.5778 17.1052 29.3445 17.3827 28.9643 17.5226C28.584 17.6624 28.2007 17.6116 28.1081 17.4093C28.0156 17.2069 28.2489 16.9294 28.6291 16.7896Z" fill="white"/>
<path fill-rule="evenodd" clip-rule="evenodd" d="M22.0014 16.776C21.6212 16.636 21.2378 16.6868 21.1453 16.8892C21.0527 17.0916 21.286 17.3691 21.6662 17.5089C22.0464 17.6487 22.4298 17.598 22.5223 17.3957C22.6149 17.1933 22.3816 16.9158 22.0014 16.776Z" fill="white"/>
<path fill-rule="evenodd" clip-rule="evenodd" d="M20.693 19.2869C20.5065 19.2869 20.3555 19.4312 20.3555 19.6092C20.3555 19.7873 20.5065 19.9316 20.693 19.9316C20.8793 19.9316 21.0304 19.7873 21.0304 19.6092C21.0304 19.4312 20.8793 19.2869 20.693 19.2869Z" fill="white"/>
<path fill-rule="evenodd" clip-rule="evenodd" d="M15.6848 16.6094C17.3336 14.1658 19.3105 12.5116 21.6156 11.6466C17.094 5.96473 15.1171 7.61906 15.6848 16.6094Z" fill="#FF850B"/>
<path d="M17.507 8.57746C17.4038 8.57746 17.3128 8.59244 17.2325 8.61779C16.4618 8.86089 15.6239 10.3351 15.8997 15.8747C17.4108 13.8308 19.1971 12.3789 21.2208 11.5506C19.2919 9.17652 18.159 8.57746 17.507 8.57746ZM15.4748 17.3652L15.4279 16.6231C15.0932 11.3224 15.6125 8.64066 17.0621 8.18337C18.1978 7.82522 19.7555 8.9143 21.824 11.5135L22.0109 11.7483L21.7141 11.8596C19.4711 12.7014 17.5162 14.3397 15.9039 16.7293L15.4748 17.3652Z" fill="#000072"/>
<g opacity="0.649994">
<g opacity="0.649994">
<path opacity="0.649994" fill-rule="evenodd" clip-rule="evenodd" d="M21.0444 11.877C21.2309 11.7942 21.4199 11.717 21.611 11.6452C18.8086 8.12374 16.9842 7.42158 16.1367 9.53591C17.0393 8.04914 18.675 8.82938 21.0441 11.8768L21.0444 11.877Z" fill="white"/>
</g>
</g>
<path fill-rule="evenodd" clip-rule="evenodd" d="M16.9187 14.9531C17.7225 14.0616 18.6334 13.29 19.6516 12.6383C17.3692 8.65248 16.4582 9.42406 16.9187 14.9531Z" fill="#000072"/>
<path d="M17.5073 10.3632C17.4961 10.3632 17.4884 10.3646 17.484 10.3657C17.4565 10.3726 17.2125 10.4628 17.1082 11.4779C17.0378 12.1619 17.0461 13.1331 17.1326 14.3701C17.7962 13.6968 18.5304 13.0925 19.3232 12.5675C18.1223 10.509 17.6241 10.3632 17.5073 10.3632ZM16.7122 15.5488L16.664 14.9693C16.3135 10.7621 16.8114 10.0571 17.3448 9.92244C17.9826 9.76097 18.7414 10.5418 19.8812 12.5322L19.9826 12.7092L19.8019 12.8248C18.8078 13.4611 17.9053 14.2255 17.1196 15.097L16.7122 15.5488Z" fill="#000072"/>
<g opacity="0.300003">
<g opacity="0.300003">
<path opacity="0.300003" fill-rule="evenodd" clip-rule="evenodd" d="M17.2135 10.2666C16.3806 10.8252 15.8426 12.3365 15.5996 14.8003C15.6142 15.3661 15.6418 15.9691 15.6822 16.6094C15.8054 16.4096 15.9356 16.2121 16.0732 16.0178L16.0636 16.0662C16.7289 15.1562 17.4446 14.3672 18.2104 13.6992C17.7626 14.078 17.3406 14.4858 16.9444 14.9225C16.9367 14.931 16.9289 14.9395 16.9211 14.9483C16.9204 14.949 16.9198 14.9498 16.919 14.9508C16.9183 14.9515 16.9177 14.9522 16.917 14.9529C16.6938 12.274 16.7927 10.7119 17.2135 10.2666ZM33.4183 10.1502C34.2513 10.7088 34.7893 12.2201 35.0322 14.6839C35.0176 15.2497 34.99 15.8527 34.9497 16.4929C34.8264 16.2931 34.6962 16.0958 34.5586 15.9013L34.5682 15.9498C33.903 15.0397 33.1873 14.2507 32.4214 13.5829C32.8693 13.9617 33.2912 14.3694 33.6874 14.8061C33.6951 14.8146 33.7029 14.8232 33.7107 14.8318C33.7114 14.8326 33.7121 14.8334 33.7128 14.8343C33.7136 14.8351 33.7141 14.8358 33.7148 14.8366C33.9381 12.1576 33.8391 10.5954 33.4183 10.1502Z" fill="#000072"/>
</g>
</g>
<g opacity="0.649994">
<g opacity="0.649994">
<path opacity="0.649994" fill-rule="evenodd" clip-rule="evenodd" d="M29.5842 11.7617C29.3977 11.679 29.2087 11.6018 29.0176 11.5301C31.8199 8.00859 33.6444 7.30634 34.492 9.42067C33.5894 7.9339 31.9536 8.71422 29.5845 11.7616L29.5842 11.7617Z" fill="white"/>
</g>
</g>
<path fill-rule="evenodd" clip-rule="evenodd" d="M33.7192 14.8359C32.9154 13.9443 32.0045 13.1727 30.9863 12.521C33.2687 8.5352 34.1798 9.30686 33.7192 14.8359Z" fill="#000072"/>
<path d="M31.3117 12.4521C32.1046 12.9772 32.8389 13.5816 33.5023 14.2548C33.5888 13.0178 33.5971 12.0466 33.5267 11.3626C33.4223 10.3474 33.1785 10.2573 33.151 10.2503C33.1003 10.2377 32.6284 10.1952 31.3117 12.4521ZM33.9226 15.4336L33.5153 14.9817C32.7298 14.1103 31.8274 13.3458 30.833 12.7094L30.6523 12.5938L30.7537 12.4168C31.8934 10.4265 32.6516 9.64578 33.2902 9.8071C33.8235 9.94179 34.3215 10.6467 33.9709 14.8541L33.9226 15.4336Z" fill="#000072"/>
<path d="M17.5071 8.57748C17.4039 8.57748 17.3129 8.59246 17.2326 8.61781C16.4619 8.86092 15.6239 10.3352 15.8997 15.8748C17.4109 13.8308 19.1972 12.3789 21.2209 11.5506C19.2921 9.17654 18.1591 8.57748 17.5071 8.57748ZM15.4747 17.3652L15.4279 16.6231C15.0932 11.3224 15.6126 8.64065 17.0622 8.18339C18.1979 7.82524 19.7556 8.91432 21.8241 11.5135L22.011 11.7483L21.7142 11.8597C19.4712 12.7014 17.5163 14.3398 15.9039 16.7293L15.4747 17.3652Z" fill="#000072"/>
<path d="M25.4561 11.1363C19.3978 11.1363 14.5194 16.6265 14.5194 21.1722C14.5194 22.3542 15.1184 23.4657 16.2999 24.476C18.9316 26.7263 23.7331 27.8247 25.3207 27.8248C25.3643 27.8248 25.4052 27.824 25.4439 27.8223C26.5941 27.7732 29.2439 27.2423 31.5338 26.2162C33.5473 25.3139 35.9474 23.7305 35.9474 21.311C35.9474 16.6058 31.3646 11.1363 25.4561 11.1363ZM25.3272 28.2852C23.6242 28.2852 18.7161 27.1782 15.9456 24.8093C14.6585 23.7087 14.0059 22.485 14.0059 21.1722C14.0059 18.8022 15.2721 16.1611 17.3929 14.1072C19.6446 11.9265 22.5835 10.6759 25.4561 10.6759C28.3466 10.6759 31.1332 11.9213 33.3028 14.1829C35.2803 16.2442 36.461 18.9089 36.461 21.311C36.461 23.4124 34.8365 25.251 31.7633 26.6281C29.4067 27.6842 26.6635 28.2312 25.4683 28.2823C25.4242 28.2842 25.377 28.2852 25.3272 28.2852Z" fill="#000072"/>
<g opacity="0.559998">
<g opacity="0.559998">
<path opacity="0.559998" fill-rule="evenodd" clip-rule="evenodd" d="M25.7226 20.2202C25.9471 20.2733 26.1131 20.37 26.0936 20.4364C26.0742 20.5027 25.8765 20.5135 25.652 20.4604C25.4275 20.4074 25.2613 20.3106 25.2809 20.2442C25.3004 20.1779 25.4982 20.1671 25.7226 20.2202Z" fill="white"/>
</g>
</g>
<path d="M19.7754 17.7092C20.1901 18.2031 20.5977 18.5851 20.9983 18.855C21.5877 19.252 22.2255 19.3216 22.2962 18.8842C21.9792 18.8517 21.6488 18.7195 21.3052 18.4881C20.4584 17.9173 20.1936 17.5499 19.7754 17.7092Z" fill="#000072"/>
<path d="M29.4151 11.4336C31.4387 12.2618 33.225 13.7137 34.7363 15.7577C35.0121 10.218 34.1742 8.7438 33.4035 8.50071C32.8152 8.31532 31.649 8.68398 29.4151 11.4336ZM35.1612 17.248L34.7321 16.6121C33.1196 14.2226 31.1647 12.5842 28.9218 11.7426L28.625 11.6313L28.8119 11.3964C30.8802 8.79743 32.4374 7.70773 33.5738 8.06631C35.0234 8.52357 35.5427 11.2053 35.2081 16.506L35.1612 17.248Z" fill="#000072"/>
</svg>
