<svg width="14" height="15" viewBox="0 0 14 15" fill="none" xmlns="http://www.w3.org/2000/svg">
<path fill-rule="evenodd" clip-rule="evenodd" d="M12.8244 12.3662C12.8244 12.9262 12.2901 13.3928 11.6489 13.3928H2.24427C1.60305 13.3928 1.0687 12.9262 1.0687 12.3662V4.99284C1.0687 4.52617 1.60305 4.05951 2.24427 4.05951H11.7557C12.3969 4.05951 12.9313 4.52617 12.9313 5.08617V12.3662H12.8244ZM6.94656 1.25951C8.22901 1.25951 9.19084 2.09951 9.40458 3.12617H4.48855C4.70229 2.09951 5.66412 1.25951 6.94656 1.25951ZM11.6489 3.12617H10.4733C10.2595 1.53951 8.76336 0.326172 6.94656 0.326172C5.12977 0.326172 3.63359 1.53951 3.41985 3.12617H2.24427C0.961832 3.12617 0 3.96617 0 5.08617V12.4595C0 13.4862 0.961832 14.3262 2.24427 14.3262H11.7557C12.9313 14.3262 14 13.4862 14 12.3662V4.99284C13.8931 3.96617 12.9313 3.12617 11.6489 3.12617Z" fill="#F5F5F7"/>
</svg>
